<svg width="1293" height="230" viewBox="0 0 1293 230" fill="none" xmlns="http://www.w3.org/2000/svg">
<g style="mix-blend-mode:difference">
<path fill-rule="evenodd" clip-rule="evenodd" d="M108 4C108 7.778 108.167 8 111 8C113.933 8 114 8.111 114 13V18H105H96V21V24H90H84V27V30H78H72V33V36H66H60V39C60 41.667 59.667 42 57 42C54.333 42 54 42.333 54 45C54 47.667 53.667 48 51 48C48.333 48 48 48.333 48 51C48 53.667 47.667 54 45 54C42.333 54 42 54.333 42 57C42 59.667 41.667 60 39 60C36.333 60 36 60.333 36 63C36 65.667 35.667 66 33 66C30.333 66 30 66.333 30 69C30 71.667 29.667 72 27 72H24V78V84H21C18.333 84 18 84.333 18 87C18 89.667 17.667 90 15 90H12V96V102H9H6V111V120H3H0V145V170H3H6V176V182H9C11.667 182 12 182.333 12 185V188H18H24V191V194H46H68V191V188H77H86V185C86 182.333 86.333 182 89 182C91.667 182 92 181.667 92 179C92 176.333 92.333 176 95 176C97.667 176 98 175.667 98 173C98 170.333 98.333 170 101 170C103.667 170 104 169.667 104 167C104 164.667 104.444 164 106 164C107.778 164 108 164.667 108 170V176H114H120V179V182H127H134V179V176H140H146V173V170H154H162V176V182H172H182V179V176H188H194V173C194 170.667 194.444 170 196 170C197.556 170 198 170.667 198 173V176H204H210V179V182H229H248V179V176H257H266V173V170H272H278V167C278 164.667 278.444 164 280 164C281.778 164 282 164.667 282 170V176H285C287.667 176 288 176.333 288 179V182H301H314V179V176H322H330V179V182H343H356V179V176H362H368V173C368 170.667 368.444 170 370 170C371.556 170 372 170.667 372 173C372 175.667 372.333 176 375 176C377.667 176 378 176.333 378 179V182H391H404V179V176H410H416V173C416 170.333 416.333 170 419 170C421.667 170 422 169.667 422 167C422 164.333 422.333 164 425 164C427.667 164 428 163.667 428 161C428 158.333 428.333 158 431 158H434V152V146H437H440V139V132H433H426V138V144H423H420V150V156H417C414.333 156 414 156.333 414 159V162H408H402V165V168H394H386V157V146H389H392V140V134H395C397.667 134 398 133.667 398 131V128H419H440V125V122H446H452V119C452 116.333 452.333 116 455 116H458V100V84H455C452.333 84 452 83.667 452 81V78H439H426V81V84H420H414V87V90H408H402V93C402 95.667 401.667 96 399 96C396.333 96 396 96.333 396 99C396 101.667 395.667 102 393 102C390.333 102 390 102.333 390 105C390 107.667 389.667 108 387 108C384.333 108 384 108.333 384 111C384 113.667 383.667 114 381 114H378V120V126H375H372V135V144H369H366V150V156H363C360.333 156 360 156.333 360 159C360 161.667 359.667 162 357 162C354.333 162 354 162.333 354 165C354 167.933 353.889 168 349 168H344V160V152H347H350V146V140H353H356V134V128H359C361.667 128 362 127.667 362 125C362 122.333 362.333 122 365 122H368V116V110H371H374V104V98H377C379.667 98 380 97.667 380 95C380 92.333 380.333 92 383 92H386V86V80H389C391.667 80 392 79.667 392 77C392 74.333 392.333 74 395 74C397.667 74 398 73.667 398 71C398 68.333 398.333 68 401 68H404V62V56H407C409.667 56 410 55.667 410 53C410 50.333 410.333 50 413 50C415.667 50 416 49.667 416 47C416 44.333 416.333 44 419 44H422V37V30H415H408V33C408 35.667 407.667 36 405 36C402.333 36 402 36.333 402 39V42H396H390V48V54H387C384.333 54 384 54.333 384 57C384 59.667 383.667 60 381 60C378.333 60 378 60.333 378 63C378 65.667 377.667 66 375 66H372V72V78H369C366.333 78 366 78.333 366 81C366 83.667 365.667 84 363 84H360V90V96H357C354.333 96 354 96.333 354 99C354 101.333 353.556 102 352 102C350.222 102 350 101.333 350 96V90H347C344.667 90 344 89.556 344 88C344 86.444 344.667 86 347 86H350V80V74H353C355.667 74 356 73.667 356 71C356 68.333 356.333 68 359 68C361.667 68 362 67.667 362 65C362 62.333 362.333 62 365 62H368V55V48H361H354V51C354 53.667 353.667 54 351 54C348.333 54 348 54.333 348 57V60H342H336V66V72H333C330.333 72 330 72.333 330 75C330 77.667 329.667 78 327 78H324V84V90H313H302V87C302 84.333 301.667 84 299 84C296.333 84 296 83.667 296 81V78H286H276V81V84H270H264V87C264 89.667 263.667 90 261 90C258.333 90 258 90.333 258 93C258 95.667 257.667 96 255 96C252.333 96 252 96.333 252 99C252 101.667 251.667 102 249 102C246.333 102 246 102.333 246 105C246 107.667 245.667 108 243 108C240.333 108 240 108.333 240 111V114H234H228V117C228 119.667 227.667 120 225 120C222.333 120 222 120.333 222 123C222 125.667 221.667 126 219 126C216.333 126 216 126.333 216 129C216 131.667 215.667 132 213 132C210.333 132 210 132.333 210 135C210 137.667 209.667 138 207 138C204.333 138 204 138.333 204 141C204 143.667 203.667 144 201 144H198V150V156H195C192.333 156 192 156.333 192 159C192 161.667 191.667 162 189 162C186.333 162 186 162.333 186 165C186 167.933 185.889 168 181 168H176V160V152H179C181.667 152 182 151.667 182 149C182 146.333 182.333 146 185 146H188V140V134H191H194V128V122H197C199.667 122 200 121.667 200 119C200 116.333 200.333 116 203 116H206V110V104H209C211.667 104 212 103.667 212 101C212 98.333 212.333 98 215 98H218V91V84H211H204V87C204 89.333 203.556 90 202 90C200.444 90 200 89.333 200 87C200 84.333 199.667 84 197 84C194.333 84 194 83.667 194 81V78H181H168V81V84H162H156V87V90H150H144V93C144 95.667 143.667 96 141 96C138.333 96 138 96.333 138 99C138 101.667 137.667 102 135 102C132.333 102 132 102.333 132 105C132 107.667 131.667 108 129 108C126.333 108 126 108.333 126 111C126 113.667 125.667 114 123 114H120V120V126H117H114V132V138H108H102V144V150H99C96.333 150 96 150.333 96 153C96 155.667 95.667 156 93 156C90.333 156 90 156.333 90 159C90 161.667 89.667 162 87 162C84.333 162 84 162.333 84 165C84 167.667 83.667 168 81 168C78.333 168 78 168.333 78 171V174H72H66V177V180H60H54V183C54 185.933 53.889 186 49 186C44.111 186 44 185.933 44 183V180H35H26V177C26 174.333 25.667 174 23 174H20V151V128H23H26V119V110H29H32V104V98H35C37.667 98 38 97.667 38 95C38 92.333 38.333 92 41 92H44V86V80H47C49.667 80 50 79.667 50 77C50 74.333 50.333 74 53 74C55.667 74 56 73.667 56 71C56 68.333 56.333 68 59 68C61.667 68 62 67.667 62 65C62 62.333 62.333 62 65 62C67.667 62 68 61.667 68 59C68 56.333 68.333 56 71 56C73.667 56 74 55.667 74 53C74 50.333 74.333 50 77 50C79.667 50 80 49.667 80 47C80 44.333 80.333 44 83 44C85.667 44 86 43.667 86 41V38H92H98V35V32H104H110V29V26H130H150V32V38H153C155.333 38 156 38.444 156 40C156 41.556 155.333 42 153 42H150V48V54H147C144.333 54 144 54.333 144 57V60H135H126V67V74H136H146V71V68H152H158V65C158 62.333 158.333 62 161 62C163.667 62 164 61.667 164 59C164 56.333 164.333 56 167 56H170V40V24H167C164.333 24 164 23.667 164 21C164 18.333 163.667 18 161 18C158.333 18 158 17.667 158 15C158 12.333 157.667 12 155 12C152.333 12 152 11.667 152 9V6H143H134V3V0H121H108V4ZM588 15V18H582H576V21V24H570H564V27C564 29.667 563.667 30 561 30C558.333 30 558 30.333 558 33C558 35.667 557.667 36 555 36H552V42V48H549H546V58V68H549C551.667 68 552 68.333 552 71C552 73.667 552.333 74 555 74C557.667 74 558 74.333 558 77V80H568H578V77C578 74.333 578.333 74 581 74C583.833 74 584 73.778 584 70V66H575H566V55V44H569C571.667 44 572 43.667 572 41C572 38.333 572.333 38 575 38C577.667 38 578 37.667 578 35C578 32.333 578.333 32 581 32C583.667 32 584 31.667 584 29V26H619H654V29V32H663C671.333 32 672 32.148 672 34C672 35.778 671.333 36 666 36H660V39C660 41.667 659.667 42 657 42C654.333 42 654 42.333 654 45C654 47.667 653.667 48 651 48C648.333 48 648 48.333 648 51C648 53.667 647.667 54 645 54H642V60V66H639C636.333 66 636 66.333 636 69C636 71.667 635.667 72 633 72C630.333 72 630 72.333 630 75C630 77.667 629.667 78 627 78C624.333 78 624 78.333 624 81C624 83.667 623.667 84 621 84H618V90V96H615C612.333 96 612 96.333 612 99C612 101.667 611.667 102 609 102C606.333 102 606 102.333 606 105C606 107.667 605.667 108 603 108H600V114V120H597C594.333 120 594 120.333 594 123C594 125.667 593.667 126 591 126C588.333 126 588 126.333 588 129C588 131.667 587.667 132 585 132C582.333 132 582 132.333 582 135C582 137.667 581.667 138 579 138C576.333 138 576 138.333 576 141C576 143.667 575.667 144 573 144C570.333 144 570 144.333 570 147C570 149.667 569.667 150 567 150C564.333 150 564 150.333 564 153C564 155.667 563.667 156 561 156C558.333 156 558 156.333 558 159V162H552H546V165C546 167.667 545.667 168 543 168C540.333 168 540 168.333 540 171V174H534H528V177V180H519H510V183V186H499H488V183C488 180.333 487.667 180 485 180C482.333 180 482 179.667 482 177C482 174.333 481.667 174 479 174C476.667 174 476 173.556 476 172C476 170.444 476.667 170 479 170H482V164V158H491H500V154V150H484H468V153C468 155.667 467.667 156 465 156H462V172V188H465C467.667 188 468 188.333 468 191V194H499H530V191V188H536H542V185V182H548H554V179C554 176.333 554.333 176 557 176C559.667 176 560 175.667 560 173V170H566H572V167C572 164.333 572.333 164 575 164C577.667 164 578 163.667 578 161C578 158.333 578.333 158 581 158C583.667 158 584 157.667 584 155C584 152.333 584.333 152 587 152C589.667 152 590 151.667 590 149C590 146.333 590.333 146 593 146C595.667 146 596 145.667 596 143C596 140.333 596.333 140 599 140H602V134V128H605C607.667 128 608 127.667 608 125C608 122.333 608.333 122 611 122C613.667 122 614 121.667 614 119C614 116.333 614.333 116 617 116H620V110V104H623C625.667 104 626 103.667 626 101C626 98.333 626.333 98 629 98C631.667 98 632 97.667 632 95C632 92.333 632.333 92 635 92C637.667 92 638 91.667 638 89C638 86.333 638.333 86 641 86H644V80V74H647C649.667 74 650 73.667 650 71C650 68.667 650.444 68 652 68C653.833 68 654 68.667 654 76V84H651H648V90V96H645H642V105V114H639H636V126V138H633H630V147V156H627H624V165V174H621C618.333 174 618 174.333 618 177C618 179.667 617.667 180 615 180C612.167 180 612 180.222 612 184V188H622H632V185C632 182.333 632.333 182 635 182C637.667 182 638 181.667 638 179C638 176.333 638.333 176 641 176C643.667 176 644 175.667 644 173C644 170.333 644.333 170 647 170C649.667 170 650 169.667 650 167C650 164.333 650.333 164 653 164C655.667 164 656 163.667 656 161C656 158.333 656.333 158 659 158C661.667 158 662 157.667 662 155C662 152.333 662.333 152 665 152C667.667 152 668 151.667 668 149C668 146.333 668.333 146 671 146H674V140V134H677C679.667 134 680 133.667 680 131C680 128.333 680.333 128 683 128C685.667 128 686 127.667 686 125C686 122.333 686.333 122 689 122C691.667 122 692 121.667 692 119C692 116.333 692.333 116 695 116H698V110V104H701C703.667 104 704 103.667 704 101C704 98.333 704.333 98 707 98C709.667 98 710 97.667 710 95C710 92.333 710.333 92 713 92C715.667 92 716 91.667 716 89C716 86.333 716.333 86 719 86C721.667 86 722 85.667 722 83C722 80.667 722.444 80 724 80C725.733 80 726 80.667 726 85C726 89.889 725.933 90 723 90H720V96V102H717H714V108V114H711H708V123V132H705H702V157V182H705C707.667 182 708 182.333 708 185C708 187.667 708.333 188 711 188C713.667 188 714 188.333 714 191C714 193.833 714.222 194 718 194H722V187V180H719H716V166V152H719H722V140V128H725H728V122V116H731H734V110V104H737C739.667 104 740 103.667 740 101C740 98.333 740.333 98 743 98H746V92V86H749H752V80V74H755C757.667 74 758 73.667 758 71C758 68.333 758.333 68 761 68C763.667 68 764 67.667 764 65C764 62.333 764.333 62 767 62C769.667 62 770 61.667 770 59C770 56.333 770.333 56 773 56C775.667 56 776 55.667 776 53C776 50.333 776.333 50 779 50C781.667 50 782 49.667 782 47C782 44.333 782.333 44 785 44C787.667 44 788 43.667 788 41C788 38.333 788.333 38 791 38C793.667 38 794 37.667 794 35C794 32.333 794.333 32 797 32C799.667 32 800 31.667 800 29V26H806H812V23V20H820H828V23V26H834H840V32V38H844C847.778 38 848 37.833 848 35C848 32.333 848.333 32 851 32C853.833 32 854 31.778 854 28C854 24.222 853.833 24 851 24H848V18V12H820H792V15V18H786H780V21V24H774H768V27V30H762H756V33C756 35.667 755.667 36 753 36C750.333 36 750 36.333 750 39C750 41.667 749.667 42 747 42C744.333 42 744 42.333 744 45V48H738H732V51C732 53.667 731.667 54 729 54C726.333 54 726 54.333 726 57C726 59.667 725.667 60 723 60C720.333 60 720 60.333 720 63C720 65.667 719.667 66 717 66C714.333 66 714 66.333 714 69C714 71.667 713.667 72 711 72C708.333 72 708 72.333 708 75C708 77.667 707.667 78 705 78C702.333 78 702 78.333 702 81C702 83.667 701.667 84 699 84H696V90V96H693C690.333 96 690 96.333 690 99C690 101.667 689.667 102 687 102C684.333 102 684 102.333 684 105C684 107.667 683.667 108 681 108C678.333 108 678 108.333 678 111C678 113.667 677.667 114 675 114H672V120V126H669C666.333 126 666 126.333 666 129C666 131.667 665.667 132 663 132C660.333 132 660 132.333 660 135C660 137.667 659.667 138 657 138C654.333 138 654 138.333 654 141C654 143.333 653.556 144 652 144C650.267 144 650 143.333 650 139C650 134.111 650.067 134 653 134H656V128V122H659H662V113V104H665H668V92V80H671H674V71V62H677H680V56V50H683H686V44V38H689C691.667 38 692 37.667 692 35V32H698H704V25V18H697H690V21C690 23.933 689.889 24 685 24C680.111 24 680 23.933 680 21V18H668H656V15V12H622H588V15ZM1122 51C1122 53.667 1121.67 54 1119 54H1116V64V74H1126H1136V61V48H1129H1122V51ZM656 64C656 65.333 656.667 66 658 66C659.333 66 660 65.333 660 64C660 62.667 659.333 62 658 62C656.667 62 656 62.667 656 64ZM740 64C740 65.333 740.667 66 742 66C743.333 66 744 65.333 744 64C744 62.667 743.333 62 742 62C740.667 62 740 62.667 740 64ZM734 70C734 71.333 734.667 72 736 72C737.333 72 738 71.333 738 70C738 68.667 737.333 68 736 68C734.667 68 734 68.667 734 70ZM728 76C728 77.333 728.667 78 730 78C731.333 78 732 77.333 732 76C732 74.667 731.333 74 730 74C728.667 74 728 74.667 728 76ZM798 81V84H789H780V87C780 89.667 779.667 90 777 90C774.333 90 774 90.333 774 93V96H768H762V99C762 101.667 761.667 102 759 102H756V108V114H753C750.333 114 750 114.333 750 117C750 119.667 749.667 120 747 120H744V126V132H741H738V141V150H735H732V160V170H735C737.667 170 738 170.333 738 173C738 175.667 738.333 176 741 176C743.667 176 744 176.333 744 179V182H754H764V179V176H770H776V173C776 170.333 776.333 170 779 170C781.667 170 782 169.667 782 167C782 164.667 782.444 164 784 164C785.778 164 786 164.667 786 170V176H789C791.667 176 792 176.333 792 179V182H802H812V179C812 176.333 812.333 176 815 176C817.667 176 818 175.667 818 173C818 170.067 818.111 170 823 170C827.889 170 828 170.067 828 173C828 175.667 828.333 176 831 176C833.667 176 834 176.333 834 179V182H844H854V179C854 176.667 854.444 176 856 176C857.733 176 858 176.667 858 181C858 185.889 857.933 186 855 186H852V192V198H849C846.333 198 846 198.333 846 201C846 203.667 845.667 204 843 204C840.333 204 840 204.333 840 207C840 209.667 839.667 210 837 210C834.333 210 834 210.333 834 213C834 215.667 833.667 216 831 216C828.333 216 828 216.333 828 219V222H820H812V217C812 212.111 812.067 212 815 212H818V205V198H811H804V201C804 203.667 803.667 204 801 204C798.333 204 798 204.333 798 207C798 209.667 797.667 210 795 210H792V217V224H795C797.667 224 798 224.333 798 227V230H820H842V227C842 224.333 842.333 224 845 224C847.667 224 848 223.667 848 221C848 218.333 848.333 218 851 218C853.667 218 854 217.667 854 215C854 212.333 854.333 212 857 212C859.667 212 860 211.667 860 209C860 206.333 860.333 206 863 206C865.667 206 866 205.667 866 203C866 200.333 866.333 200 869 200H872V194V188H875C877.667 188 878 187.667 878 185C878 182.333 878.333 182 881 182H884V176V170H887H890V164V158H893H896V152V146H899C901.667 146 902 145.667 902 143C902 140.333 902.333 140 905 140H908V134V128H911H914V122V116H917C919.667 116 920 115.667 920 113C920 110.333 920.333 110 923 110H926V104V98H929C931.667 98 932 97.667 932 95C932 92.333 932.333 92 935 92C937.833 92 938 91.778 938 88V84H931H924V87C924 89.333 923.556 90 922 90C920.444 90 920 89.333 920 87C920 84.333 919.667 84 917 84C914.333 84 914 83.667 914 81V78H901H888V81V84H882H876V87V90H870H864V93C864 95.667 863.667 96 861 96C858.333 96 858 96.333 858 99C858 101.667 857.667 102 855 102C852.333 102 852 102.333 852 105C852 107.667 851.667 108 849 108C846.333 108 846 108.333 846 111C846 113.667 845.667 114 843 114C840.333 114 840 114.333 840 117C840 119.667 839.667 120 837 120H834V126V132H831H828V141V150H825C822.333 150 822 150.333 822 153C822 155.667 821.667 156 819 156C816.333 156 816 156.333 816 159C816 161.667 815.667 162 813 162C810.333 162 810 162.333 810 165C810 167.933 809.889 168 805 168H800V163C800 158.111 800.067 158 803 158H806V152V146H809H812V140V134H815C817.667 134 818 133.667 818 131C818 128.333 818.333 128 821 128H824V122V116H827C829.667 116 830 115.667 830 113C830 110.333 830.333 110 833 110H836V104V98H839C841.667 98 842 97.667 842 95C842 92.333 842.333 92 845 92C847.833 92 848 91.778 848 88V84H841H834V87C834 89.333 833.556 90 832 90C830.444 90 830 89.333 830 87C830 84.333 829.667 84 827 84C824.333 84 824 83.667 824 81V78H811H798V81ZM972 81V84H966H960V87V90H954H948V93C948 95.667 947.667 96 945 96C942.333 96 942 96.333 942 99C942 101.667 941.667 102 939 102C936.333 102 936 102.333 936 105C936 107.667 935.667 108 933 108C930.333 108 930 108.333 930 111C930 113.667 929.667 114 927 114C924.333 114 924 114.333 924 117C924 119.667 923.667 120 921 120H918V126V132H915H912V154V176H915C917.667 176 918 176.333 918 179V182H928H938V179V176H944H950V173C950 170.333 950.333 170 953 170C955.667 170 956 169.667 956 167C956 164.667 956.444 164 958 164C959.778 164 960 164.667 960 170V176H963C965.667 176 966 176.333 966 179V182H976H986V179V176H992H998V173C998 170.333 998.333 170 1001 170C1003.67 170 1004 169.667 1004 167C1004 164.333 1004.33 164 1007 164C1009.67 164 1010 163.667 1010 161C1010 158.333 1010.33 158 1013 158C1015.67 158 1016 157.667 1016 155C1016 152.333 1016.33 152 1019 152C1021.67 152 1022 151.667 1022 149V146H1030H1038V149C1038 151.667 1038.33 152 1041 152H1044V166V180H1041H1038V186V192H1035C1032.33 192 1032 192.333 1032 195C1032 197.667 1031.67 198 1029 198C1026.33 198 1026 198.333 1026 201C1026 203.667 1025.67 204 1023 204C1020.33 204 1020 204.333 1020 207C1020 209.667 1019.67 210 1017 210C1014.33 210 1014 210.333 1014 213V216H1008H1002V219C1002 221.933 1001.89 222 997 222C992.111 222 992 221.933 992 219C992 216.333 991.667 216 989 216C986.667 216 986 215.556 986 214C986 212.444 986.667 212 989 212C991.667 212 992 211.667 992 209C992 206.333 992.333 206 995 206C997.667 206 998 205.667 998 203C998 200.333 998.333 200 1001 200C1003.67 200 1004 199.667 1004 197V194H1010H1016V190V186H1003H990V189V192H984H978V195C978 197.667 977.667 198 975 198H972V211V224H975C977.667 224 978 224.333 978 227V230H997H1016V227V224H1022H1028V221C1028 218.333 1028.33 218 1031 218C1033.67 218 1034 217.667 1034 215V212H1040H1046V206V200H1049C1051.67 200 1052 199.667 1052 197C1052 194.333 1052.33 194 1055 194H1058V185V176H1061H1064V166V156H1061H1058V150V144H1055C1052.33 144 1052 143.667 1052 141V138H1046C1040.67 138 1040 137.778 1040 136C1040 134.222 1040.67 134 1046 134H1052V131C1052 128.333 1052.33 128 1055 128C1057.67 128 1058 127.667 1058 125V122H1064H1070V119C1070 116.333 1070.33 116 1073 116C1075.67 116 1076 115.667 1076 113V110H1085H1094V107C1094 104.333 1094.33 104 1097 104C1099.67 104 1100 103.667 1100 101C1100 98.667 1100.44 98 1102 98C1103.73 98 1104 98.667 1104 103C1104 107.889 1103.93 108 1101 108C1098.33 108 1098 108.333 1098 111C1098 113.667 1097.67 114 1095 114C1092.33 114 1092 114.333 1092 117C1092 119.667 1091.67 120 1089 120H1086V126V132H1083H1080V138V144H1077H1074V160V176H1077C1079.67 176 1080 176.333 1080 179V182H1090H1100V179V176H1108H1116V179C1116 181.833 1116.22 182 1120 182H1124V173V164H1127H1130V158V152H1133C1135.67 152 1136 151.667 1136 149C1136 146.333 1136.33 146 1139 146H1142V140V134H1145C1147.67 134 1148 133.667 1148 131C1148 128.333 1148.33 128 1151 128C1153.67 128 1154 127.667 1154 125C1154 122.333 1154.33 122 1157 122C1159.67 122 1160 121.667 1160 119C1160 116.333 1160.33 116 1163 116C1165.67 116 1166 115.667 1166 113C1166 110.333 1166.33 110 1169 110C1171.67 110 1172 109.667 1172 107C1172 104.333 1172.33 104 1175 104C1177.67 104 1178 103.667 1178 101V98H1184H1190V95C1190 92.667 1190.44 92 1192 92C1193.83 92 1194 92.667 1194 100V108H1191C1188.33 108 1188 108.333 1188 111C1188 113.667 1187.67 114 1185 114H1182V120V126H1179C1176.33 126 1176 126.333 1176 129C1176 131.667 1175.67 132 1173 132H1170V138V144H1167H1164V150V156H1161H1158V163V170H1161H1164V176V182H1174H1184V179V176H1190H1196V173C1196 170.067 1196.11 170 1201 170C1205.89 170 1206 170.067 1206 173C1206 175.667 1206.33 176 1209 176C1211.67 176 1212 176.333 1212 179V182H1225H1238V179V176H1244H1250V173C1250 170.333 1250.33 170 1253 170C1255.67 170 1256 169.667 1256 167C1256 164.333 1256.33 164 1259 164C1261.67 164 1262 163.667 1262 161C1262 158.333 1262.33 158 1265 158H1268V145V132H1264H1260V138V144H1257C1254.33 144 1254 144.333 1254 147C1254 149.667 1253.67 150 1251 150H1248V156V162H1242H1236V165V168H1225H1214V163C1214 158.111 1214.07 158 1217 158H1220V149V140H1223H1226V134V128H1250H1274V125C1274 122.333 1274.33 122 1277 122C1279.67 122 1280 121.667 1280 119C1280 116.333 1280.33 116 1283 116C1285.67 116 1286 115.667 1286 113C1286 110.333 1286.33 110 1289 110H1292V97V84H1289C1286.33 84 1286 83.667 1286 81V78H1273H1260V81V84H1254H1248V87V90H1242H1236V93C1236 95.667 1235.67 96 1233 96C1230.33 96 1230 96.333 1230 99C1230 101.667 1229.67 102 1227 102C1224.33 102 1224 102.333 1224 105C1224 107.667 1223.67 108 1221 108C1218.33 108 1218 108.333 1218 111C1218 113.667 1217.67 114 1215 114H1212V120V126H1209H1206V132V138H1203H1200V147V156H1197C1194.33 156 1194 156.333 1194 159C1194 161.667 1193.67 162 1191 162C1188.33 162 1188 162.333 1188 165C1188 167.933 1187.89 168 1183 168H1178V163C1178 158.111 1178.07 158 1181 158H1184V152V146H1187C1189.67 146 1190 145.667 1190 143C1190 140.333 1190.33 140 1193 140C1195.67 140 1196 139.667 1196 137C1196 134.333 1196.33 134 1199 134H1202V128V122H1205H1208V116V110H1211H1214V97V84H1195H1176V87C1176 89.667 1175.67 90 1173 90C1170.33 90 1170 90.333 1170 93C1170 95.333 1169.56 96 1168 96C1166.22 96 1166 95.333 1166 90V84H1150H1134V87C1134 89.667 1133.67 90 1131 90C1128.33 90 1128 90.333 1128 93C1128 95.333 1127.56 96 1126 96C1124.22 96 1124 95.333 1124 90V84H1121C1118.33 84 1118 83.667 1118 81V78H1111H1104V81C1104 83.667 1103.67 84 1101 84C1098.33 84 1098 84.333 1098 87C1098 89.333 1097.56 90 1096 90C1094.44 90 1094 89.333 1094 87V84H1087H1080V87V90H1072H1064V87V84H1055H1046V81V78H1039H1032V81V84H1020H1008V87C1008 89.333 1007.56 90 1006 90C1004.44 90 1004 89.333 1004 87C1004 84.333 1003.67 84 1001 84C998.333 84 998 83.667 998 81V78H985H972V81ZM176 95V98H170H164V101C164 103.667 163.667 104 161 104C158.333 104 158 104.333 158 107C158 109.667 157.667 110 155 110C152.333 110 152 110.333 152 113C152 115.667 151.667 116 149 116C146.333 116 146 116.333 146 119C146 121.667 145.667 122 143 122H140V128V134H137C134.333 134 134 134.333 134 137C134 139.667 133.667 140 131 140H128V149V158H125C122.067 158 122 158.111 122 163V168H130H138V165C138 162.333 138.333 162 141 162C143.667 162 144 161.667 144 159C144 156.333 144.333 156 147 156C149.667 156 150 155.667 150 153C150 150.333 150.333 150 153 150C155.667 150 156 149.667 156 147C156 144.333 156.333 144 159 144C161.667 144 162 143.667 162 141C162 138.333 162.333 138 165 138H168V132V126H171C173.667 126 174 125.667 174 123C174 120.333 174.333 120 177 120H180V114V108H183C185.667 108 186 107.667 186 105C186 102.333 186.333 102 189 102C191.933 102 192 101.889 192 97V92H184H176V95ZM278 116V140H275H272V148C272 155.333 272.167 156 274 156C275.556 156 276 155.333 276 153C276 150.333 276.333 150 279 150C281.667 150 282 149.667 282 147C282 144.333 282.333 144 285 144H288V138V132H291C293.667 132 294 131.667 294 129C294 126.333 294.333 126 297 126H300V120V114H303C305.933 114 306 113.889 306 109C306 104.667 305.733 104 304 104C302.444 104 302 104.667 302 107V110H295H288V101V92H283H278V116ZM428 95C428 97.667 427.667 98 425 98C422.333 98 422 98.333 422 101C422 103.667 421.667 104 419 104C416.333 104 416 104.333 416 107C416 109.667 415.667 110 413 110C410.067 110 410 110.111 410 115V120H415C419.889 120 420 119.933 420 117V114H426H432V111C432 108.333 432.333 108 435 108C437.667 108 438 107.667 438 105C438 102.333 438.333 102 441 102C443.667 102 444 101.667 444 99C444 96.333 444.333 96 447 96C449.333 96 450 95.556 450 94C450 92.121 449.333 92 439 92H428V95ZM800 95V98H794H788V101C788 103.667 787.667 104 785 104C782.333 104 782 104.333 782 107C782 109.667 781.667 110 779 110C776.333 110 776 110.333 776 113C776 115.667 775.667 116 773 116H770V122V128H767C764.333 128 764 128.333 764 131C764 133.667 763.667 134 761 134H758V140V146H755H752V157V168H757C761.889 168 762 167.933 762 165C762 162.333 762.333 162 765 162C767.667 162 768 161.667 768 159V156H774H780V150V144H783C785.667 144 786 143.667 786 141C786 138.333 786.333 138 789 138C791.667 138 792 137.667 792 135C792 132.333 792.333 132 795 132H798V126V120H801C803.667 120 804 119.667 804 117C804 114.333 804.333 114 807 114H810V108V102H813C815.933 102 816 101.889 816 97V92H808H800V95ZM890 95C890 97.667 889.667 98 887 98C884.333 98 884 98.333 884 101V104H878H872V107C872 109.667 871.667 110 869 110H866V116V122H863C860.333 122 860 122.333 860 125C860 127.667 859.667 128 857 128H854V134V140H851H848V146V152H845H842V160V168H847C851.889 168 852 167.933 852 165V162H858H864V159C864 156.333 864.333 156 867 156C869.667 156 870 155.667 870 153C870 150.333 870.333 150 873 150H876V144V138H879C881.667 138 882 137.667 882 135C882 132.333 882.333 132 885 132H888V126V120H891C893.667 120 894 119.667 894 117C894 114.333 894.333 114 897 114H900V108V102H903C905.933 102 906 101.889 906 97V92H898H890V95ZM974 95C974 97.667 973.667 98 971 98C968.333 98 968 98.333 968 101C968 103.667 967.667 104 965 104C962.333 104 962 104.333 962 107C962 109.667 961.667 110 959 110C956.333 110 956 110.333 956 113C956 115.667 955.667 116 953 116C950.333 116 950 116.333 950 119C950 121.667 949.667 122 947 122C944.333 122 944 122.333 944 125C944 127.667 943.667 128 941 128H938V134V140H935H932V146V152H929H926V160V168H931C935.889 168 936 167.933 936 165V162H942H948V159C948 156.333 948.333 156 951 156C953.667 156 954 155.667 954 153C954 150.333 954.333 150 957 150C959.667 150 960 149.667 960 147C960 144.333 960.333 144 963 144H966V138V132H969C971.667 132 972 131.667 972 129C972 126.333 972.333 126 975 126H978V120V114H981C983.667 114 984 113.667 984 111C984 108.333 984.333 108 987 108H990V102V96H993C995.333 96 996 95.556 996 94C996 92.121 995.333 92 985 92H974V95ZM1016 98V104H1013C1010.33 104 1010 104.333 1010 107C1010 109.667 1009.67 110 1007 110H1004V116V122H1001C998.333 122 998 122.333 998 125C998 127.667 997.667 128 995 128H992V134V140H989H986V146V152H983H980V158V164H977C974.667 164 974 164.444 974 166C974 167.733 974.667 168 979 168C983.889 168 984 167.933 984 165C984 162.333 984.333 162 987 162C989.667 162 990 161.667 990 159C990 156.333 990.333 156 993 156C995.667 156 996 155.667 996 153C996 150.333 996.333 150 999 150C1001.67 150 1002 149.667 1002 147C1002 144.333 1002.33 144 1005 144C1007.67 144 1008 143.667 1008 141C1008 138.333 1008.33 138 1011 138C1013.67 138 1014 137.667 1014 135V132H1020H1026V129C1026 126.333 1026.33 126 1029 126C1031.67 126 1032 125.667 1032 123V120H1038H1044V117V114H1050H1056V111V108H1062C1067.33 108 1068 107.778 1068 106C1068 104.222 1067.33 104 1062 104H1056V101V98H1045H1034V104V110H1027H1020V101C1020 92.667 1019.85 92 1018 92C1016.22 92 1016 92.667 1016 98ZM1106 94C1106 95.333 1106.67 96 1108 96C1109.33 96 1110 95.333 1110 94C1110 92.667 1109.33 92 1108 92C1106.67 92 1106 92.667 1106 94ZM1142 95C1142 97.667 1141.67 98 1139 98C1136.33 98 1136 98.333 1136 101C1136 103.667 1135.67 104 1133 104C1130.33 104 1130 104.333 1130 107V110H1124H1118V116V122H1115C1112.33 122 1112 122.333 1112 125C1112 127.667 1111.67 128 1109 128H1106V134V140H1103C1100.33 140 1100 140.333 1100 143C1100 145.667 1099.67 146 1097 146H1094V152V158H1091C1088.07 158 1088 158.111 1088 163V168H1093C1097.89 168 1098 167.933 1098 165C1098 162.333 1098.33 162 1101 162C1103.67 162 1104 161.667 1104 159C1104 156.333 1104.33 156 1107 156C1109.67 156 1110 155.667 1110 153C1110 150.333 1110.33 150 1113 150H1116V144V138H1119C1121.67 138 1122 137.667 1122 135C1122 132.333 1122.33 132 1125 132H1128V126V120H1131C1133.67 120 1134 119.667 1134 117C1134 114.333 1134.33 114 1137 114H1140V108V102H1143C1145.93 102 1146 101.889 1146 97C1146 92.667 1145.73 92 1144 92C1142.44 92 1142 92.667 1142 95ZM1262 95C1262 97.667 1261.67 98 1259 98C1256.33 98 1256 98.333 1256 101C1256 103.667 1255.67 104 1253 104C1250.33 104 1250 104.333 1250 107C1250 109.667 1249.67 110 1247 110C1244.07 110 1244 110.111 1244 115V120H1249C1253.89 120 1254 119.933 1254 117V114H1260H1266V111C1266 108.333 1266.33 108 1269 108C1271.67 108 1272 107.667 1272 105C1272 102.333 1272.33 102 1275 102C1277.93 102 1278 101.889 1278 97V92H1270H1262V95ZM260 106C260 107.333 260.667 108 262 108C263.333 108 264 107.333 264 106C264 104.667 263.333 104 262 104C260.667 104 260 104.667 260 106ZM332 107C332 109.667 331.667 110 329 110H326V116V122H323C320.333 122 320 122.333 320 125C320 127.667 319.667 128 317 128H314V134V140H311C308.333 140 308 140.333 308 143C308 145.667 307.667 146 305 146H302V155V164H299C296.667 164 296 164.444 296 166C296 167.833 296.667 168 304 168H312V165C312 162.333 312.333 162 315 162C317.667 162 318 161.667 318 159C318 156.333 318.333 156 321 156C323.667 156 324 155.667 324 153C324 150.333 324.333 150 327 150H330V144V138H333H336V132V126H339H342V120V114H345C347.933 114 348 113.889 348 109V104H340H332V107ZM254 113C254 115.667 253.667 116 251 116C248.333 116 248 116.333 248 119C248 121.667 247.667 122 245 122C242.333 122 242 122.333 242 125C242 127.667 241.667 128 239 128H236V134V140H233C230.333 140 230 140.333 230 143V146H224H218V149C218 151.667 217.667 152 215 152H212V160V168H226H240V165C240 162.333 240.333 162 243 162H246V156V150H249H252V144V138H255H258V124C258 110.667 257.905 110 256 110C254.444 110 254 110.667 254 113Z" fill="black" fill-opacity="0.494"/>
<path fill-rule="evenodd" clip-rule="evenodd" d="M108.401 1.39597C107.161 4.62797 108.432 7.49197 111.25 7.81597C113.832 8.11397 114 8.43097 114 13.027V17.922L105.25 18.211C96.569 18.498 96.498 18.521 96.188 21.202C95.895 23.743 95.538 23.922 90.188 24.202C84.838 24.482 84.481 24.661 84.188 27.202C83.895 29.743 83.538 29.922 78.188 30.202C72.838 30.482 72.481 30.661 72.188 33.202C71.895 35.743 71.538 35.922 66.188 36.202C60.845 36.482 60.481 36.663 60.189 39.189C59.949 41.268 59.268 41.949 57.189 42.189C55.111 42.429 54.429 43.111 54.189 45.189C53.949 47.268 53.268 47.949 51.189 48.189C49.111 48.429 48.429 49.111 48.189 51.189C47.949 53.268 47.268 53.949 45.189 54.189C43.111 54.429 42.429 55.111 42.189 57.189C41.949 59.268 41.268 59.949 39.189 60.189C37.111 60.429 36.429 61.111 36.189 63.189C35.949 65.268 35.268 65.949 33.189 66.189C31.111 66.429 30.429 67.111 30.189 69.189C29.949 71.268 29.268 71.949 27.189 72.189C24.663 72.481 24.482 72.845 24.202 78.188C23.922 83.538 23.743 83.895 21.202 84.188C19.11 84.43 18.43 85.107 18.189 87.189C17.949 89.268 17.268 89.949 15.189 90.189C12.663 90.481 12.482 90.845 12.202 96.188C11.922 101.538 11.743 101.895 9.202 102.188C6.523 102.497 6.49801 102.574 6.21201 111.187C5.92601 119.809 5.90401 119.877 3.21201 120.187L0.5 120.5V145V169.5L3.202 169.812C5.743 170.105 5.922 170.462 6.202 175.812C6.482 181.155 6.663 181.519 9.189 181.811C11.268 182.051 11.949 182.732 12.189 184.811C12.481 187.337 12.845 187.518 18.188 187.798C23.538 188.078 23.895 188.257 24.188 190.798L24.5 193.5H46H67.5L67.813 190.788C68.123 188.096 68.191 188.074 76.813 187.788C85.416 187.503 85.503 187.474 85.811 184.811C86.051 182.732 86.732 182.051 88.811 181.811C90.889 181.571 91.571 180.889 91.811 178.811C92.051 176.732 92.732 176.051 94.811 175.811C96.889 175.571 97.571 174.889 97.811 172.811C98.051 170.732 98.732 170.051 100.811 169.811C102.906 169.569 103.57 168.893 103.816 166.75C104.037 164.835 104.705 164 106.017 164C107.608 164 107.947 164.891 108.2 169.75L108.5 175.5L114.188 175.798C119.538 176.078 119.895 176.257 120.188 178.798C120.491 181.425 120.681 181.5 127 181.5C133.319 181.5 133.509 181.425 133.812 178.798C134.105 176.257 134.462 176.078 139.812 175.798C145.188 175.516 145.517 175.349 145.816 172.75C146.132 170.009 146.16 170 154.017 170H161.9L162.2 175.75L162.5 181.5H172H181.5L181.812 178.798C182.105 176.257 182.462 176.078 187.812 175.798C193.188 175.516 193.517 175.349 193.816 172.75C194.257 168.918 197.743 168.918 198.184 172.75C198.483 175.349 198.812 175.516 204.188 175.798C209.538 176.078 209.895 176.257 210.188 178.798L210.5 181.5H229H247.5L247.813 178.788C248.123 176.096 248.191 176.074 256.813 175.788C265.426 175.502 265.503 175.477 265.812 172.798C266.105 170.257 266.462 170.078 271.812 169.798C277.188 169.516 277.517 169.349 277.816 166.75C278.037 164.835 278.705 164 280.017 164C281.608 164 281.947 164.891 282.2 169.75C282.482 175.16 282.659 175.518 285.189 175.811C287.268 176.051 287.949 176.732 288.189 178.811L288.5 181.5H301H313.5L313.816 178.75C314.132 176.01 314.161 176 322 176C329.839 176 329.868 176.01 330.184 178.75L330.5 181.5H343H355.5L355.812 178.798C356.105 176.257 356.462 176.078 361.812 175.798C367.188 175.516 367.517 175.349 367.816 172.75C368.04 170.807 368.7 170 370.066 170C371.548 170 372 170.701 372 173C372 175.652 372.341 176 374.934 176C377.39 176 377.919 176.447 378.184 178.75L378.5 181.5H391H403.5L403.812 178.798C404.105 176.257 404.462 176.078 409.812 175.798C415.155 175.518 415.519 175.337 415.811 172.811C416.051 170.732 416.732 170.051 418.811 169.811C420.889 169.571 421.571 168.889 421.811 166.811C422.051 164.732 422.732 164.051 424.811 163.811C426.889 163.571 427.571 162.889 427.811 160.811C428.051 158.732 428.732 158.051 430.811 157.811C433.337 157.519 433.518 157.155 433.798 151.812C434.078 146.462 434.257 146.105 436.798 145.812C439.425 145.509 439.5 145.319 439.5 139V132.5H433H426.5L426.202 138.188C425.922 143.538 425.743 143.895 423.202 144.188C420.661 144.481 420.482 144.838 420.202 150.188C419.922 155.538 419.743 155.895 417.202 156.188C415.107 156.43 414.43 157.107 414.188 159.202C413.895 161.743 413.538 161.922 408.188 162.202C402.812 162.484 402.483 162.651 402.184 165.25C401.868 167.992 401.845 168 393.934 168H386V157.066V146.133L388.75 145.816C391.349 145.517 391.516 145.188 391.798 139.812C392.078 134.462 392.257 134.105 394.798 133.812C396.901 133.569 397.57 132.895 397.814 130.77L398.129 128.04L418.814 127.77L439.5 127.5L439.812 124.798C440.105 122.257 440.462 122.078 445.812 121.798C451.155 121.518 451.519 121.337 451.811 118.811C452.051 116.732 452.732 116.051 454.811 115.811L457.5 115.5L457.775 99.75L458.051 84H455.092C452.607 84 452.082 83.559 451.816 81.25L451.5 78.5H439H426.5L426.188 81.202C425.895 83.743 425.538 83.922 420.188 84.202C414.838 84.482 414.481 84.661 414.188 87.202C413.895 89.743 413.538 89.922 408.188 90.202C402.845 90.482 402.481 90.663 402.189 93.189C401.949 95.268 401.268 95.949 399.189 96.189C397.111 96.429 396.429 97.111 396.189 99.189C395.949 101.268 395.268 101.949 393.189 102.189C391.111 102.429 390.429 103.111 390.189 105.189C389.949 107.268 389.268 107.949 387.189 108.189C385.111 108.429 384.429 109.111 384.189 111.189C383.949 113.268 383.268 113.949 381.189 114.189C378.663 114.481 378.482 114.845 378.202 120.188C377.922 125.538 377.743 125.895 375.202 126.188C372.523 126.497 372.498 126.574 372.212 135.187C371.926 143.809 371.904 143.877 369.212 144.187C366.659 144.482 366.483 144.833 366.202 150.188C365.922 155.538 365.743 155.895 363.202 156.188C361.11 156.43 360.43 157.107 360.189 159.189C359.949 161.268 359.268 161.949 357.189 162.189C355.094 162.431 354.43 163.107 354.184 165.25C353.886 167.836 353.572 168 348.934 168H344V160.066C344 152.155 344.008 152.132 346.75 151.816C349.349 151.517 349.516 151.188 349.798 145.812C350.078 140.462 350.257 140.105 352.798 139.812C355.339 139.519 355.518 139.162 355.798 133.812C356.078 128.462 356.257 128.105 358.798 127.812C360.89 127.57 361.57 126.893 361.811 124.811C362.051 122.732 362.732 122.051 364.811 121.811C367.337 121.519 367.518 121.155 367.798 115.812C368.078 110.462 368.257 110.105 370.798 109.812C373.339 109.519 373.518 109.162 373.798 103.812C374.078 98.462 374.257 98.105 376.798 97.812C378.89 97.57 379.57 96.893 379.811 94.811C380.051 92.732 380.732 92.051 382.811 91.811C385.341 91.518 385.518 91.16 385.8 85.75C386.094 80.117 386.16 80 389.05 80C391.646 80 392 79.648 392 77.066C392 74.61 392.447 74.081 394.75 73.816C396.893 73.57 397.569 72.906 397.811 70.811C398.051 68.732 398.732 68.051 400.811 67.811C403.337 67.519 403.518 67.155 403.798 61.812C404.078 56.462 404.257 56.105 406.798 55.812C408.89 55.57 409.57 54.893 409.811 52.811C410.051 50.732 410.732 50.051 412.811 49.811C414.889 49.571 415.571 48.889 415.811 46.811C416.051 44.732 416.732 44.051 418.811 43.811C421.422 43.509 421.5 43.312 421.5 37V30.5H415C408.688 30.5 408.491 30.578 408.189 33.189C407.949 35.268 407.268 35.949 405.189 36.189C403.107 36.43 402.43 37.11 402.188 39.202C401.895 41.743 401.538 41.922 396.188 42.202L390.5 42.5L390.202 48.188C389.922 53.538 389.743 53.895 387.202 54.188C385.11 54.43 384.43 55.107 384.189 57.189C383.949 59.268 383.268 59.949 381.189 60.189C379.111 60.429 378.429 61.111 378.189 63.189C377.949 65.268 377.268 65.949 375.189 66.189C372.663 66.481 372.482 66.845 372.202 72.188C371.922 77.538 371.743 77.895 369.202 78.188C367.11 78.43 366.43 79.107 366.189 81.189C365.949 83.268 365.268 83.949 363.189 84.189C360.663 84.481 360.482 84.845 360.202 90.188C359.922 95.538 359.743 95.895 357.202 96.188C355.093 96.432 354.431 97.104 354.184 99.25C353.963 101.165 353.295 102 351.983 102C350.392 102 350.053 101.109 349.8 96.25C349.516 90.807 349.353 90.483 346.75 90.184C344.845 89.964 344 89.294 344 88C344 86.706 344.845 86.036 346.75 85.816C349.349 85.517 349.516 85.188 349.798 79.812C350.078 74.462 350.257 74.105 352.798 73.812C354.89 73.57 355.57 72.893 355.811 70.811C356.051 68.732 356.732 68.051 358.811 67.811C360.889 67.571 361.571 66.889 361.811 64.811C362.051 62.732 362.732 62.051 364.811 61.811C367.422 61.509 367.5 61.312 367.5 55V48.5H361C354.688 48.5 354.491 48.578 354.189 51.189C353.949 53.268 353.268 53.949 351.189 54.189C349.107 54.43 348.43 55.11 348.188 57.202C347.895 59.743 347.538 59.922 342.188 60.202L336.5 60.5L336.202 66.188C335.922 71.538 335.743 71.895 333.202 72.188C331.11 72.43 330.43 73.107 330.189 75.189C329.949 77.268 329.268 77.949 327.189 78.189C324.659 78.482 324.482 78.84 324.2 84.25L323.9 90H312.95H302V87C302 84.348 301.659 84 299.066 84C296.61 84 296.081 83.553 295.816 81.25L295.5 78.5H286H276.5L276.188 81.202C275.895 83.743 275.538 83.922 270.188 84.202C264.845 84.482 264.481 84.663 264.189 87.189C263.949 89.268 263.268 89.949 261.189 90.189C259.111 90.429 258.429 91.111 258.189 93.189C257.949 95.268 257.268 95.949 255.189 96.189C253.111 96.429 252.429 97.111 252.189 99.189C251.949 101.268 251.268 101.949 249.189 102.189C247.094 102.431 246.43 103.107 246.184 105.25C245.919 107.553 245.39 108 242.934 108C240.352 108 240 108.354 240 110.95C240 113.84 239.883 113.906 234.25 114.2C228.84 114.482 228.482 114.659 228.189 117.189C227.949 119.268 227.268 119.949 225.189 120.189C223.111 120.429 222.429 121.111 222.189 123.189C221.949 125.268 221.268 125.949 219.189 126.189C217.111 126.429 216.429 127.111 216.189 129.189C215.949 131.268 215.268 131.949 213.189 132.189C211.094 132.431 210.43 133.107 210.184 135.25C209.919 137.553 209.39 138 206.934 138C204.355 138 204 138.355 204 140.934C204 143.39 203.553 143.919 201.25 144.184C198.651 144.483 198.484 144.812 198.202 150.188C197.922 155.538 197.743 155.895 195.202 156.188C193.11 156.43 192.43 157.107 192.189 159.189C191.949 161.268 191.268 161.949 189.189 162.189C187.094 162.431 186.43 163.107 186.184 165.25C185.886 167.836 185.572 168 180.934 168H176V160.066C176 152.155 176.008 152.132 178.75 151.816C180.893 151.57 181.569 150.906 181.811 148.811C182.051 146.732 182.732 146.051 184.811 145.811C187.337 145.519 187.518 145.155 187.798 139.812C188.078 134.462 188.257 134.105 190.798 133.812C193.339 133.519 193.518 133.162 193.798 127.812C194.078 122.462 194.257 122.105 196.798 121.812C198.89 121.57 199.57 120.893 199.811 118.811C200.051 116.732 200.732 116.051 202.811 115.811C205.337 115.519 205.518 115.155 205.798 109.812C206.078 104.462 206.257 104.105 208.798 103.812C210.89 103.57 211.57 102.893 211.811 100.811C212.051 98.732 212.732 98.051 214.811 97.811C217.422 97.509 217.5 97.312 217.5 91V84.5H211C204.652 84.5 204.493 84.565 204.184 87.25C203.96 89.193 203.3 90 201.934 90C200.452 90 200 89.299 200 87C200 84.348 199.659 84 197.066 84C194.61 84 194.081 83.553 193.816 81.25L193.5 78.5H181H168.5L168.188 81.202C167.895 83.743 167.538 83.922 162.188 84.202C156.838 84.482 156.481 84.661 156.188 87.202C155.895 89.743 155.538 89.922 150.188 90.202C144.845 90.482 144.481 90.663 144.189 93.189C143.949 95.268 143.268 95.949 141.189 96.189C139.111 96.429 138.429 97.111 138.189 99.189C137.949 101.268 137.268 101.949 135.189 102.189C133.111 102.429 132.429 103.111 132.189 105.189C131.949 107.268 131.268 107.949 129.189 108.189C127.111 108.429 126.429 109.111 126.189 111.189C125.949 113.268 125.268 113.949 123.189 114.189C120.663 114.481 120.482 114.845 120.202 120.188C119.922 125.538 119.743 125.895 117.202 126.188C114.66 126.482 114.482 126.837 114.202 132.202L113.903 137.903L108.202 138.202L102.5 138.5L102.202 144.188C101.922 149.538 101.743 149.895 99.202 150.188C97.11 150.43 96.43 151.107 96.189 153.189C95.949 155.268 95.268 155.949 93.189 156.189C91.111 156.429 90.429 157.111 90.189 159.189C89.949 161.268 89.268 161.949 87.189 162.189C85.111 162.429 84.429 163.111 84.189 165.189C83.949 167.268 83.268 167.949 81.189 168.189C79.107 168.43 78.43 169.11 78.188 171.202C77.895 173.743 77.538 173.922 72.188 174.202C66.838 174.482 66.481 174.661 66.188 177.202C65.895 179.743 65.538 179.922 60.188 180.202C54.812 180.484 54.483 180.651 54.184 183.25C53.887 185.83 53.566 186 49 186C44.434 186 44.113 185.83 43.816 183.25C43.501 180.511 43.465 180.499 34.813 180.212C26.191 179.926 26.123 179.904 25.813 177.212C25.568 175.093 24.899 174.431 22.75 174.184L20 173.867V151V128.133L22.75 127.816C25.489 127.501 25.501 127.465 25.788 118.813C26.074 110.191 26.096 110.123 28.788 109.813C31.341 109.518 31.517 109.167 31.798 103.812C32.078 98.462 32.257 98.105 34.798 97.812C36.89 97.57 37.57 96.893 37.811 94.811C38.051 92.732 38.732 92.051 40.811 91.811C43.337 91.519 43.518 91.155 43.798 85.812C44.078 80.462 44.257 80.105 46.798 79.812C48.89 79.57 49.57 78.893 49.811 76.811C50.051 74.732 50.732 74.051 52.811 73.811C54.889 73.571 55.571 72.889 55.811 70.811C56.051 68.732 56.732 68.051 58.811 67.811C60.889 67.571 61.571 66.889 61.811 64.811C62.051 62.732 62.732 62.051 64.811 61.811C66.889 61.571 67.571 60.889 67.811 58.811C68.051 56.732 68.732 56.051 70.811 55.811C72.889 55.571 73.571 54.889 73.811 52.811C74.051 50.732 74.732 50.051 76.811 49.811C78.889 49.571 79.571 48.889 79.811 46.811C80.051 44.732 80.732 44.051 82.811 43.811C84.893 43.57 85.57 42.89 85.812 40.798C86.105 38.257 86.462 38.078 91.812 37.798C97.162 37.518 97.519 37.339 97.812 34.798C98.105 32.257 98.462 32.078 103.812 31.798C109.188 31.516 109.517 31.349 109.816 28.75L110.133 26H130.017H149.9L150.2 31.75C150.484 37.193 150.647 37.517 153.25 37.816C157.082 38.257 157.082 41.743 153.25 42.184C150.651 42.483 150.484 42.812 150.202 48.188C149.922 53.538 149.743 53.895 147.202 54.188C145.104 54.43 144.43 55.106 144.187 57.212C143.877 59.904 143.809 59.926 135.187 60.212L126.5 60.5V67V73.5H136H145.5L145.812 70.798C146.105 68.257 146.462 68.078 151.812 67.798C157.155 67.518 157.519 67.337 157.811 64.811C158.051 62.732 158.732 62.051 160.811 61.811C162.889 61.571 163.571 60.889 163.811 58.811C164.051 56.732 164.732 56.051 166.811 55.811L169.5 55.5V40V24.5L166.75 24.184C164.447 23.919 164 23.39 164 20.934C164 18.341 163.652 18 161 18C158.333 18 158 17.667 158 15C158 12.348 157.659 12 155.066 12C152.61 12 152.081 11.553 151.816 9.24997C151.501 6.51097 151.465 6.49897 142.813 6.21197C134.191 5.92597 134.123 5.90397 133.813 3.21197L133.5 0.499971L121.23 0.218971C111.219 -0.0100294 108.858 0.205971 108.401 1.39597ZM588.68 12.653C588.306 13.027 588 14.361 588 15.617C588 17.695 587.484 17.927 582.25 18.2C576.833 18.483 576.482 18.657 576.188 21.202C575.895 23.743 575.538 23.922 570.188 24.202C564.845 24.482 564.481 24.663 564.189 27.189C563.949 29.268 563.268 29.949 561.189 30.189C559.111 30.429 558.429 31.111 558.189 33.189C557.949 35.268 557.268 35.949 555.189 36.189C552.663 36.481 552.482 36.845 552.202 42.188C551.922 47.538 551.743 47.895 549.202 48.188L546.5 48.5V58V67.5L549.25 67.816C551.553 68.081 552 68.61 552 71.066C552 73.645 552.355 74 554.934 74C557.39 74 557.919 74.447 558.184 76.75L558.5 79.5H568H577.5L577.811 76.811C578.051 74.732 578.732 74.051 580.811 73.811C583.158 73.539 583.5 73.055 583.5 70V66.5L574.75 66.211L566 65.922V55.027V44.133L568.75 43.816C570.893 43.57 571.569 42.906 571.811 40.811C572.051 38.732 572.732 38.051 574.811 37.811C576.889 37.571 577.571 36.889 577.811 34.811C578.051 32.732 578.732 32.051 580.811 31.811C582.906 31.569 583.57 30.893 583.816 28.75L584.133 26H619H653.867L654.184 28.75C654.499 31.491 654.529 31.501 663.25 31.789C671.097 32.048 672 32.275 672 33.989C672 35.614 671.14 35.945 666.25 36.2C660.84 36.482 660.482 36.659 660.189 39.189C659.949 41.268 659.268 41.949 657.189 42.189C655.111 42.429 654.429 43.111 654.189 45.189C653.949 47.268 653.268 47.949 651.189 48.189C649.111 48.429 648.429 49.111 648.189 51.189C647.949 53.268 647.268 53.949 645.189 54.189C642.663 54.481 642.482 54.845 642.202 60.188C641.922 65.538 641.743 65.895 639.202 66.188C637.11 66.43 636.43 67.107 636.189 69.189C635.949 71.268 635.268 71.949 633.189 72.189C631.111 72.429 630.429 73.111 630.189 75.189C629.949 77.268 629.268 77.949 627.189 78.189C625.111 78.429 624.429 79.111 624.189 81.189C623.949 83.268 623.268 83.949 621.189 84.189C618.663 84.481 618.482 84.845 618.202 90.188C617.922 95.538 617.743 95.895 615.202 96.188C613.11 96.43 612.43 97.107 612.189 99.189C611.949 101.268 611.268 101.949 609.189 102.189C607.111 102.429 606.429 103.111 606.189 105.189C605.949 107.268 605.268 107.949 603.189 108.189C600.659 108.482 600.482 108.84 600.2 114.25C599.906 119.883 599.84 120 596.95 120C594.354 120 594 120.352 594 122.934C594 125.39 593.553 125.919 591.25 126.184C589.107 126.43 588.431 127.094 588.189 129.189C587.949 131.268 587.268 131.949 585.189 132.189C583.111 132.429 582.429 133.111 582.189 135.189C581.949 137.268 581.268 137.949 579.189 138.189C577.111 138.429 576.429 139.111 576.189 141.189C575.949 143.268 575.268 143.949 573.189 144.189C571.111 144.429 570.429 145.111 570.189 147.189C569.949 149.268 569.268 149.949 567.189 150.189C565.111 150.429 564.429 151.111 564.189 153.189C563.949 155.268 563.268 155.949 561.189 156.189C559.107 156.43 558.43 157.11 558.188 159.202C557.895 161.743 557.538 161.922 552.188 162.202C546.845 162.482 546.481 162.663 546.189 165.189C545.949 167.268 545.268 167.949 543.189 168.189C541.107 168.43 540.43 169.11 540.188 171.202C539.895 173.743 539.538 173.922 534.188 174.202C528.833 174.483 528.482 174.659 528.187 177.212C527.877 179.904 527.809 179.926 519.187 180.212C510.535 180.499 510.499 180.511 510.184 183.25L509.867 186H499H488.133L487.816 183.25C487.57 181.107 486.906 180.431 484.811 180.189C482.732 179.949 482.051 179.268 481.811 177.189C481.569 175.094 480.893 174.43 478.75 174.184C476.845 173.964 476 173.294 476 172C476 170.706 476.845 170.036 478.75 169.816C481.351 169.517 481.516 169.19 481.799 163.788L482.098 158.076L490.799 157.788L499.5 157.5V154V150.5H484H468.5L468.189 153.189C467.949 155.268 467.268 155.949 465.189 156.189L462.5 156.5V172V187.5L465.189 187.811C467.268 188.051 467.949 188.732 468.189 190.811L468.5 193.5H499H529.5L529.812 190.798C530.105 188.257 530.462 188.078 535.812 187.798C541.162 187.518 541.519 187.339 541.812 184.798C542.105 182.257 542.462 182.078 547.812 181.798C553.155 181.518 553.519 181.337 553.811 178.811C554.051 176.732 554.732 176.051 556.811 175.811C558.893 175.57 559.57 174.89 559.812 172.798C560.105 170.257 560.462 170.078 565.812 169.798C571.155 169.518 571.519 169.337 571.811 166.811C572.051 164.732 572.732 164.051 574.811 163.811C576.889 163.571 577.571 162.889 577.811 160.811C578.051 158.732 578.732 158.051 580.811 157.811C582.889 157.571 583.571 156.889 583.811 154.811C584.051 152.732 584.732 152.051 586.811 151.811C588.889 151.571 589.571 150.889 589.811 148.811C590.051 146.732 590.732 146.051 592.811 145.811C594.889 145.571 595.571 144.889 595.811 142.811C596.051 140.732 596.732 140.051 598.811 139.811C601.337 139.519 601.518 139.155 601.798 133.812C602.078 128.462 602.257 128.105 604.798 127.812C606.89 127.57 607.57 126.893 607.811 124.811C608.051 122.732 608.732 122.051 610.811 121.811C612.889 121.571 613.571 120.889 613.811 118.811C614.051 116.732 614.732 116.051 616.811 115.811C619.337 115.519 619.518 115.155 619.798 109.812C620.078 104.462 620.257 104.105 622.798 103.812C624.89 103.57 625.57 102.893 625.811 100.811C626.051 98.732 626.732 98.051 628.811 97.811C630.889 97.571 631.571 96.889 631.811 94.811C632.051 92.732 632.732 92.051 634.811 91.811C636.889 91.571 637.571 90.889 637.811 88.811C638.051 86.732 638.732 86.051 640.811 85.811C643.337 85.519 643.518 85.155 643.798 79.812C644.078 74.462 644.257 74.105 646.798 73.812C648.907 73.568 649.569 72.896 649.816 70.75C650.04 68.807 650.7 68 652.066 68C653.815 68 654 68.758 654 75.934C654 83.845 653.992 83.868 651.25 84.184C648.651 84.483 648.484 84.812 648.202 90.188C647.922 95.538 647.743 95.895 645.202 96.188C642.523 96.497 642.498 96.574 642.212 105.187C641.926 113.809 641.904 113.877 639.212 114.187L636.5 114.5L636.219 126.187L635.938 137.873L633.219 138.187C630.519 138.498 630.498 138.56 630.212 147.187C629.926 155.809 629.904 155.877 627.212 156.187C624.52 156.498 624.498 156.565 624.212 165.187C623.926 173.809 623.904 173.877 621.212 174.187C619.11 174.43 618.43 175.105 618.189 177.189C617.949 179.268 617.268 179.949 615.189 180.189C612.842 180.461 612.5 180.945 612.5 184V187.5H622H631.5L631.811 184.811C632.051 182.732 632.732 182.051 634.811 181.811C636.889 181.571 637.571 180.889 637.811 178.811C638.051 176.732 638.732 176.051 640.811 175.811C642.889 175.571 643.571 174.889 643.811 172.811C644.051 170.732 644.732 170.051 646.811 169.811C648.889 169.571 649.571 168.889 649.811 166.811C650.051 164.732 650.732 164.051 652.811 163.811C654.889 163.571 655.571 162.889 655.811 160.811C656.051 158.732 656.732 158.051 658.811 157.811C660.889 157.571 661.571 156.889 661.811 154.811C662.051 152.732 662.732 152.051 664.811 151.811C666.889 151.571 667.571 150.889 667.811 148.811C668.051 146.732 668.732 146.051 670.811 145.811C673.337 145.519 673.518 145.155 673.798 139.812C674.078 134.462 674.257 134.105 676.798 133.812C678.89 133.57 679.57 132.893 679.811 130.811C680.051 128.732 680.732 128.051 682.811 127.811C684.889 127.571 685.571 126.889 685.811 124.811C686.051 122.732 686.732 122.051 688.811 121.811C690.889 121.571 691.571 120.889 691.811 118.811C692.051 116.732 692.732 116.051 694.811 115.811C697.337 115.519 697.518 115.155 697.798 109.812C698.078 104.462 698.257 104.105 700.798 103.812C702.89 103.57 703.57 102.893 703.811 100.811C704.051 98.732 704.732 98.051 706.811 97.811C708.889 97.571 709.571 96.889 709.811 94.811C710.051 92.732 710.732 92.051 712.811 91.811C714.889 91.571 715.571 90.889 715.811 88.811C716.051 86.732 716.732 86.051 718.811 85.811C720.906 85.569 721.57 84.893 721.816 82.75C722.04 80.807 722.7 80 724.066 80C725.717 80 726 80.723 726 84.934C726 89.572 725.836 89.886 723.25 90.184C720.651 90.483 720.484 90.812 720.202 96.188C719.922 101.538 719.743 101.895 717.202 102.188C714.661 102.481 714.482 102.838 714.202 108.188C713.922 113.538 713.743 113.895 711.202 114.188C708.523 114.497 708.498 114.574 708.212 123.187C707.926 131.809 707.904 131.877 705.212 132.187L702.5 132.5V157V181.5L705.25 181.816C707.553 182.081 708 182.61 708 185.066C708 187.645 708.355 188 710.934 188C713.39 188 713.919 188.447 714.184 190.75C714.462 193.166 714.925 193.5 718 193.5H721.5V187C721.5 180.652 721.435 180.493 718.75 180.184L716 179.867V166V152.133L718.75 151.816L721.5 151.5L721.781 139.813L722.062 128.127L724.781 127.813C727.343 127.518 727.517 127.171 727.798 121.812C728.078 116.462 728.257 116.105 730.798 115.812C733.339 115.519 733.518 115.162 733.798 109.812C734.078 104.462 734.257 104.105 736.798 103.812C738.89 103.57 739.57 102.893 739.811 100.811C740.051 98.732 740.732 98.051 742.811 97.811C745.337 97.519 745.518 97.155 745.798 91.812C746.078 86.462 746.257 86.105 748.798 85.812C751.339 85.519 751.518 85.162 751.798 79.812C752.078 74.462 752.257 74.105 754.798 73.812C756.89 73.57 757.57 72.893 757.811 70.811C758.051 68.732 758.732 68.051 760.811 67.811C762.889 67.571 763.571 66.889 763.811 64.811C764.051 62.732 764.732 62.051 766.811 61.811C768.889 61.571 769.571 60.889 769.811 58.811C770.051 56.732 770.732 56.051 772.811 55.811C774.889 55.571 775.571 54.889 775.811 52.811C776.051 50.732 776.732 50.051 778.811 49.811C780.889 49.571 781.571 48.889 781.811 46.811C782.051 44.732 782.732 44.051 784.811 43.811C786.889 43.571 787.571 42.889 787.811 40.811C788.051 38.732 788.732 38.051 790.811 37.811C792.889 37.571 793.571 36.889 793.811 34.811C794.051 32.732 794.732 32.051 796.811 31.811C798.893 31.57 799.57 30.89 799.812 28.798C800.105 26.257 800.462 26.078 805.812 25.798C811.188 25.516 811.517 25.349 811.816 22.75C812.132 20.01 812.161 20 820 20C827.839 20 827.868 20.01 828.184 22.75C828.483 25.35 828.811 25.516 834.202 25.798L839.903 26.097L840.202 31.798L840.5 37.5H844C847.055 37.5 847.539 37.158 847.811 34.811C848.051 32.732 848.732 32.051 850.811 31.811C853.158 31.539 853.5 31.055 853.5 28C853.5 24.941 853.16 24.461 850.798 24.188C848.257 23.895 848.078 23.538 847.798 18.188L847.5 12.5H820H792.5L792.188 15.202C791.895 17.743 791.538 17.922 786.188 18.202C780.838 18.482 780.481 18.661 780.188 21.202C779.895 23.743 779.538 23.922 774.188 24.202C768.838 24.482 768.481 24.661 768.188 27.202C767.895 29.743 767.538 29.922 762.188 30.202C756.845 30.482 756.481 30.663 756.189 33.189C755.949 35.268 755.268 35.949 753.189 36.189C751.094 36.431 750.43 37.107 750.184 39.25C749.919 41.553 749.39 42 746.934 42C744.352 42 744 42.354 744 44.95C744 47.84 743.883 47.906 738.25 48.2C732.84 48.482 732.482 48.659 732.189 51.189C731.949 53.268 731.268 53.949 729.189 54.189C727.111 54.429 726.429 55.111 726.189 57.189C725.949 59.268 725.268 59.949 723.189 60.189C721.111 60.429 720.429 61.111 720.189 63.189C719.949 65.268 719.268 65.949 717.189 66.189C715.111 66.429 714.429 67.111 714.189 69.189C713.949 71.268 713.268 71.949 711.189 72.189C709.111 72.429 708.429 73.111 708.189 75.189C707.949 77.268 707.268 77.949 705.189 78.189C703.111 78.429 702.429 79.111 702.189 81.189C701.949 83.268 701.268 83.949 699.189 84.189C696.663 84.481 696.482 84.845 696.202 90.188C695.922 95.538 695.743 95.895 693.202 96.188C691.11 96.43 690.43 97.107 690.189 99.189C689.949 101.268 689.268 101.949 687.189 102.189C685.111 102.429 684.429 103.111 684.189 105.189C683.949 107.268 683.268 107.949 681.189 108.189C679.111 108.429 678.429 109.111 678.189 111.189C677.949 113.268 677.268 113.949 675.189 114.189C672.663 114.481 672.482 114.845 672.202 120.188C671.922 125.538 671.743 125.895 669.202 126.188C667.11 126.43 666.43 127.107 666.189 129.189C665.949 131.268 665.268 131.949 663.189 132.189C661.111 132.429 660.429 133.111 660.189 135.189C659.949 137.268 659.268 137.949 657.189 138.189C655.094 138.431 654.43 139.107 654.184 141.25C653.96 143.193 653.3 144 651.934 144C650.283 144 650 143.277 650 139.066C650 134.428 650.164 134.114 652.75 133.816C655.349 133.517 655.516 133.188 655.798 127.812C656.078 122.462 656.257 122.105 658.798 121.812C661.477 121.503 661.502 121.426 661.788 112.813C662.074 104.191 662.096 104.123 664.788 103.813L667.5 103.5L667.781 91.813L668.062 80.127L670.781 79.813C673.481 79.502 673.502 79.44 673.788 70.813C674.074 62.191 674.096 62.123 676.788 61.813C679.341 61.518 679.517 61.167 679.798 55.812C680.078 50.462 680.257 50.105 682.798 49.812C685.339 49.519 685.518 49.162 685.798 43.812C686.078 38.462 686.257 38.105 688.798 37.812C690.893 37.57 691.57 36.893 691.812 34.798C692.105 32.257 692.462 32.078 697.812 31.798L703.5 31.5V25V18.5H697C690.652 18.5 690.493 18.565 690.184 21.25C689.887 23.83 689.566 24 685 24C680.434 24 680.113 23.83 679.816 21.25L679.5 18.5L667.813 18.219L656.127 17.938L655.813 15.219L655.5 12.5L622.43 12.237C604.241 12.092 589.054 12.279 588.68 12.653ZM1122.71 48.624C1122.32 49.014 1122 50.353 1122 51.6C1122 53.33 1121.35 53.942 1119.25 54.184L1116.5 54.5V64V73.5H1126H1135.5V61V48.5L1129.46 48.208C1126.14 48.047 1123.1 48.234 1122.71 48.624ZM656 64C656 65.333 656.667 66 658 66C659.333 66 660 65.333 660 64C660 62.667 659.333 62 658 62C656.667 62 656 62.667 656 64ZM740 64C740 65.333 740.667 66 742 66C743.333 66 744 65.333 744 64C744 62.667 743.333 62 742 62C740.667 62 740 62.667 740 64ZM734 70C734 71.333 734.667 72 736 72C737.333 72 738 71.333 738 70C738 68.667 737.333 68 736 68C734.667 68 734 68.667 734 70ZM728 76C728 77.333 728.667 78 730 78C731.333 78 732 77.333 732 76C732 74.667 731.333 74 730 74C728.667 74 728 74.667 728 76ZM798.696 78.637C798.313 79.02 798 80.366 798 81.628C798 83.823 797.624 83.935 789.25 84.211C780.579 84.497 780.497 84.524 780.189 87.189C779.949 89.268 779.268 89.949 777.189 90.189C775.107 90.43 774.43 91.11 774.188 93.202C773.895 95.743 773.538 95.922 768.188 96.202C762.845 96.482 762.481 96.663 762.189 99.189C761.949 101.268 761.268 101.949 759.189 102.189C756.659 102.482 756.482 102.84 756.2 108.25C755.906 113.883 755.84 114 752.95 114C750.354 114 750 114.352 750 116.934C750 119.39 749.553 119.919 747.25 120.184C744.651 120.483 744.484 120.812 744.202 126.188C743.922 131.538 743.743 131.895 741.202 132.188C738.523 132.497 738.498 132.574 738.212 141.187C737.926 149.809 737.904 149.877 735.212 150.187L732.5 150.5V160V169.5L735.189 169.811C737.268 170.051 737.949 170.732 738.189 172.811C738.429 174.889 739.111 175.571 741.189 175.811C743.268 176.051 743.949 176.732 744.189 178.811L744.5 181.5H754H763.5L763.812 178.798C764.105 176.257 764.462 176.078 769.812 175.798C775.155 175.518 775.519 175.337 775.811 172.811C776.051 170.732 776.732 170.051 778.811 169.811C780.906 169.569 781.57 168.893 781.816 166.75C782.037 164.835 782.705 164 784.017 164C785.608 164 785.947 164.891 786.2 169.75C786.482 175.16 786.659 175.518 789.189 175.811C791.268 176.051 791.949 176.732 792.189 178.811L792.5 181.5H802H811.5L811.811 178.811C812.051 176.732 812.732 176.051 814.811 175.811C816.906 175.569 817.57 174.893 817.816 172.75C818.113 170.17 818.434 170 823 170C827.566 170 827.887 170.17 828.184 172.75C828.43 174.893 829.094 175.569 831.189 175.811C833.268 176.051 833.949 176.732 834.189 178.811L834.5 181.5H844H853.5L853.816 178.75C854.04 176.807 854.7 176 856.066 176C857.717 176 858 176.723 858 180.934C858 185.572 857.836 185.886 855.25 186.184C852.651 186.483 852.484 186.812 852.202 192.188C851.922 197.538 851.743 197.895 849.202 198.188C847.11 198.43 846.43 199.107 846.189 201.189C845.949 203.268 845.268 203.949 843.189 204.189C841.111 204.429 840.429 205.111 840.189 207.189C839.949 209.268 839.268 209.949 837.189 210.189C835.111 210.429 834.429 211.111 834.189 213.189C833.949 215.268 833.268 215.949 831.189 216.189C829.094 216.431 828.43 217.107 828.184 219.25C827.868 221.992 827.845 222 819.934 222H812V217.066C812 212.428 812.164 212.114 814.75 211.816C817.435 211.507 817.5 211.348 817.5 205V198.5H811C804.652 198.5 804.493 198.565 804.184 201.25C803.919 203.553 803.39 204 800.934 204C798.355 204 798 204.355 798 206.934C798 209.39 797.553 209.919 795.25 210.184C792.565 210.493 792.5 210.652 792.5 217C792.5 223.312 792.578 223.509 795.189 223.811C797.268 224.051 797.949 224.732 798.189 226.811L798.5 229.5H820H841.5L841.811 226.811C842.051 224.732 842.732 224.051 844.811 223.811C846.889 223.571 847.571 222.889 847.811 220.811C848.051 218.732 848.732 218.051 850.811 217.811C852.889 217.571 853.571 216.889 853.811 214.811C854.051 212.732 854.732 212.051 856.811 211.811C858.889 211.571 859.571 210.889 859.811 208.811C860.051 206.732 860.732 206.051 862.811 205.811C864.889 205.571 865.571 204.889 865.811 202.811C866.051 200.732 866.732 200.051 868.811 199.811C871.337 199.519 871.518 199.155 871.798 193.812C872.078 188.462 872.257 188.105 874.798 187.812C876.89 187.57 877.57 186.893 877.811 184.811C878.051 182.732 878.732 182.051 880.811 181.811C883.337 181.519 883.518 181.155 883.798 175.812C884.078 170.462 884.257 170.105 886.798 169.812C889.339 169.519 889.518 169.162 889.798 163.812C890.078 158.462 890.257 158.105 892.798 157.812C895.339 157.519 895.518 157.162 895.798 151.812C896.078 146.462 896.257 146.105 898.798 145.812C900.89 145.57 901.57 144.893 901.811 142.811C902.051 140.732 902.732 140.051 904.811 139.811C907.337 139.519 907.518 139.155 907.798 133.812C908.078 128.462 908.257 128.105 910.798 127.812C913.339 127.519 913.518 127.162 913.798 121.812C914.078 116.462 914.257 116.105 916.798 115.812C918.89 115.57 919.57 114.893 919.811 112.811C920.051 110.732 920.732 110.051 922.811 109.811C925.337 109.519 925.518 109.155 925.798 103.812C926.078 98.462 926.257 98.105 928.798 97.812C930.89 97.57 931.57 96.893 931.811 94.811C932.051 92.732 932.732 92.051 934.811 91.811C937.158 91.539 937.5 91.055 937.5 88V84.5H931C924.652 84.5 924.493 84.565 924.184 87.25C923.964 89.155 923.294 90 922 90C920.706 90 920.036 89.155 919.816 87.25C919.57 85.107 918.906 84.431 916.811 84.189C914.732 83.949 914.051 83.268 913.811 81.189L913.5 78.5H901H888.5L888.188 81.202C887.895 83.743 887.538 83.922 882.188 84.202C876.838 84.482 876.481 84.661 876.188 87.202C875.895 89.743 875.538 89.922 870.188 90.202C864.845 90.482 864.481 90.663 864.189 93.189C863.949 95.268 863.268 95.949 861.189 96.189C859.094 96.431 858.43 97.107 858.184 99.25C857.919 101.553 857.39 102 854.934 102C852.341 102 852 102.348 852 105C852 107.667 851.667 108 849 108C846.348 108 846 108.341 846 110.934C846 113.39 845.553 113.919 843.25 114.184C841.107 114.43 840.431 115.094 840.189 117.189C839.949 119.268 839.268 119.949 837.189 120.189C834.663 120.481 834.482 120.845 834.202 126.188C833.922 131.538 833.743 131.895 831.202 132.188C828.523 132.497 828.498 132.574 828.212 141.187C827.926 149.809 827.904 149.877 825.212 150.187C823.11 150.43 822.43 151.105 822.189 153.189C821.949 155.268 821.268 155.949 819.189 156.189C817.111 156.429 816.429 157.111 816.189 159.189C815.949 161.268 815.268 161.949 813.189 162.189C811.094 162.431 810.43 163.107 810.184 165.25C809.886 167.836 809.572 168 804.934 168H800V163.066C800 158.428 800.164 158.114 802.75 157.816C805.349 157.517 805.516 157.188 805.798 151.812C806.078 146.462 806.257 146.105 808.798 145.812C811.339 145.519 811.518 145.162 811.798 139.812C812.078 134.462 812.257 134.105 814.798 133.812C816.89 133.57 817.57 132.893 817.811 130.811C818.051 128.732 818.732 128.051 820.811 127.811C823.337 127.519 823.518 127.155 823.798 121.812C824.078 116.462 824.257 116.105 826.798 115.812C828.89 115.57 829.57 114.893 829.811 112.811C830.051 110.732 830.732 110.051 832.811 109.811C835.337 109.519 835.518 109.155 835.798 103.812C836.078 98.462 836.257 98.105 838.798 97.812C840.89 97.57 841.57 96.893 841.811 94.811C842.051 92.732 842.732 92.051 844.811 91.811C847.158 91.539 847.5 91.055 847.5 88V84.5H841C834.652 84.5 834.493 84.565 834.184 87.25C833.964 89.155 833.294 90 832 90C830.706 90 830.036 89.155 829.816 87.25C829.57 85.107 828.906 84.431 826.811 84.189C824.732 83.949 824.051 83.268 823.811 81.189L823.5 78.5L811.446 78.221C804.816 78.067 799.079 78.255 798.696 78.637ZM972.696 78.637C972.313 79.02 972 80.361 972 81.617C972 83.695 971.484 83.927 966.25 84.2C960.833 84.483 960.482 84.657 960.188 87.202C959.895 89.743 959.538 89.922 954.188 90.202C948.845 90.482 948.481 90.663 948.189 93.189C947.949 95.268 947.268 95.949 945.189 96.189C943.111 96.429 942.429 97.111 942.189 99.189C941.949 101.268 941.268 101.949 939.189 102.189C937.111 102.429 936.429 103.111 936.189 105.189C935.949 107.268 935.268 107.949 933.189 108.189C931.111 108.429 930.429 109.111 930.189 111.189C929.949 113.268 929.268 113.949 927.189 114.189C925.111 114.429 924.429 115.111 924.189 117.189C923.949 119.268 923.268 119.949 921.189 120.189C918.663 120.481 918.482 120.845 918.202 126.188C917.922 131.538 917.743 131.895 915.202 132.188L912.5 132.5V154V175.5L915.189 175.811C917.268 176.051 917.949 176.732 918.189 178.811L918.5 181.5H928H937.5L937.812 178.798C938.105 176.257 938.462 176.078 943.812 175.798C949.155 175.518 949.519 175.337 949.811 172.811C950.051 170.732 950.732 170.051 952.811 169.811C954.906 169.569 955.57 168.893 955.816 166.75C956.037 164.835 956.705 164 958.017 164C959.608 164 959.947 164.891 960.2 169.75C960.482 175.16 960.659 175.518 963.189 175.811C965.268 176.051 965.949 176.732 966.189 178.811L966.5 181.5H976H985.5L985.812 178.798C986.105 176.257 986.462 176.078 991.812 175.798C997.155 175.518 997.519 175.337 997.811 172.811C998.051 170.732 998.732 170.051 1000.81 169.811C1002.89 169.571 1003.57 168.889 1003.81 166.811C1004.05 164.732 1004.73 164.051 1006.81 163.811C1008.89 163.571 1009.57 162.889 1009.81 160.811C1010.05 158.732 1010.73 158.051 1012.81 157.811C1014.89 157.571 1015.57 156.889 1015.81 154.811C1016.05 152.732 1016.73 152.051 1018.81 151.811C1020.91 151.569 1021.57 150.893 1021.82 148.75C1022.13 146.01 1022.16 146 1030 146C1037.84 146 1037.87 146.01 1038.18 148.75C1038.43 150.91 1039.09 151.568 1041.25 151.816L1044 152.133V166V179.867L1041.25 180.184C1038.65 180.483 1038.48 180.812 1038.2 186.188C1037.92 191.538 1037.74 191.895 1035.2 192.188C1033.11 192.43 1032.43 193.107 1032.19 195.189C1031.95 197.268 1031.27 197.949 1029.19 198.189C1027.11 198.429 1026.43 199.111 1026.19 201.189C1025.95 203.268 1025.27 203.949 1023.19 204.189C1021.11 204.429 1020.43 205.111 1020.19 207.189C1019.95 209.268 1019.27 209.949 1017.19 210.189C1015.11 210.43 1014.43 211.11 1014.19 213.202C1013.89 215.743 1013.54 215.922 1008.19 216.202C1002.81 216.484 1002.48 216.651 1002.18 219.25C1001.89 221.83 1001.57 222 997 222C992.434 222 992.113 221.83 991.816 219.25C991.568 217.09 990.91 216.432 988.75 216.184C986.845 215.964 986 215.294 986 214C986 212.706 986.845 212.036 988.75 211.816C990.893 211.57 991.569 210.906 991.811 208.811C992.051 206.732 992.732 206.051 994.811 205.811C996.889 205.571 997.571 204.889 997.811 202.811C998.051 200.732 998.732 200.051 1000.81 199.811C1002.89 199.57 1003.57 198.89 1003.81 196.798C1004.11 194.257 1004.46 194.078 1009.81 193.798L1015.5 193.5V190V186.5H1003H990.5L990.188 189.202C989.895 191.743 989.538 191.922 984.188 192.202C978.845 192.482 978.481 192.663 978.189 195.189C977.949 197.268 977.268 197.949 975.189 198.189L972.5 198.5V211V223.5L975.189 223.811C977.268 224.051 977.949 224.732 978.189 226.811L978.5 229.5H997H1015.5L1015.81 226.798C1016.11 224.257 1016.46 224.078 1021.81 223.798C1027.19 223.516 1027.52 223.349 1027.82 220.75C1028.08 218.447 1028.61 218 1031.07 218C1033.65 218 1034 217.646 1034 215.05C1034 212.16 1034.12 212.094 1039.75 211.8L1045.5 211.5L1045.8 205.812C1046.08 200.462 1046.26 200.105 1048.8 199.812C1050.89 199.57 1051.57 198.893 1051.81 196.811C1052.05 194.732 1052.73 194.051 1054.81 193.811C1057.47 193.503 1057.5 193.416 1057.79 184.813C1058.07 176.191 1058.1 176.123 1060.79 175.813L1063.5 175.5V166V156.5L1060.8 156.188C1058.26 155.895 1058.08 155.538 1057.8 150.188C1057.52 144.845 1057.34 144.481 1054.81 144.189C1052.73 143.949 1052.05 143.268 1051.81 141.189C1051.52 138.659 1051.16 138.482 1045.75 138.2C1040.87 137.946 1040 137.612 1040 136C1040 134.388 1040.87 134.054 1045.75 133.8C1051.16 133.518 1051.52 133.341 1051.81 130.811C1052.05 128.732 1052.73 128.051 1054.81 127.811C1056.89 127.57 1057.57 126.89 1057.81 124.798C1058.11 122.257 1058.46 122.078 1063.81 121.798C1069.16 121.518 1069.52 121.337 1069.81 118.811C1070.05 116.732 1070.73 116.051 1072.81 115.811C1074.9 115.57 1075.57 114.89 1075.81 112.788C1076.12 110.096 1076.19 110.074 1084.81 109.788C1093.42 109.503 1093.5 109.474 1093.81 106.811C1094.05 104.732 1094.73 104.051 1096.81 103.811C1098.91 103.569 1099.57 102.893 1099.82 100.75C1100.04 98.807 1100.7 98 1102.07 98C1103.72 98 1104 98.723 1104 102.934C1104 107.572 1103.84 107.886 1101.25 108.184C1099.11 108.43 1098.43 109.094 1098.19 111.189C1097.95 113.268 1097.27 113.949 1095.19 114.189C1093.11 114.429 1092.43 115.111 1092.19 117.189C1091.95 119.268 1091.27 119.949 1089.19 120.189C1086.66 120.481 1086.48 120.845 1086.2 126.188C1085.92 131.538 1085.74 131.895 1083.2 132.188C1080.66 132.481 1080.48 132.838 1080.2 138.188C1079.92 143.538 1079.74 143.895 1077.2 144.188L1074.5 144.5V160V175.5L1077.19 175.811C1079.27 176.051 1079.95 176.732 1080.19 178.811L1080.5 181.5H1090H1099.5L1099.82 178.75C1100.13 176.01 1100.16 176 1108 176C1115.84 176 1115.87 176.01 1116.18 178.75C1116.46 181.166 1116.92 181.5 1120 181.5H1123.5L1123.79 172.813C1124.07 164.191 1124.1 164.123 1126.79 163.813C1129.34 163.518 1129.52 163.167 1129.8 157.812C1130.08 152.462 1130.26 152.105 1132.8 151.812C1134.89 151.57 1135.57 150.893 1135.81 148.811C1136.05 146.732 1136.73 146.051 1138.81 145.811C1141.34 145.519 1141.52 145.155 1141.8 139.812C1142.08 134.462 1142.26 134.105 1144.8 133.812C1146.89 133.57 1147.57 132.893 1147.81 130.811C1148.05 128.732 1148.73 128.051 1150.81 127.811C1152.89 127.571 1153.57 126.889 1153.81 124.811C1154.05 122.732 1154.73 122.051 1156.81 121.811C1158.89 121.571 1159.57 120.889 1159.81 118.811C1160.05 116.732 1160.73 116.051 1162.81 115.811C1164.89 115.571 1165.57 114.889 1165.81 112.811C1166.05 110.732 1166.73 110.051 1168.81 109.811C1170.89 109.571 1171.57 108.889 1171.81 106.811C1172.05 104.732 1172.73 104.051 1174.81 103.811C1176.89 103.57 1177.57 102.89 1177.81 100.798C1178.11 98.257 1178.46 98.078 1183.81 97.798C1189.19 97.516 1189.52 97.349 1189.82 94.75C1190.04 92.807 1190.7 92 1192.07 92C1193.82 92 1194 92.758 1194 99.934C1194 107.845 1193.99 107.868 1191.25 108.184C1189.11 108.43 1188.43 109.094 1188.19 111.189C1187.95 113.268 1187.27 113.949 1185.19 114.189C1182.66 114.481 1182.48 114.845 1182.2 120.188C1181.92 125.538 1181.74 125.895 1179.2 126.188C1177.11 126.43 1176.43 127.107 1176.19 129.189C1175.95 131.268 1175.27 131.949 1173.19 132.189C1170.66 132.481 1170.48 132.845 1170.2 138.188C1169.92 143.538 1169.74 143.895 1167.2 144.188C1164.66 144.481 1164.48 144.838 1164.2 150.188C1163.92 155.538 1163.74 155.895 1161.2 156.188C1158.58 156.491 1158.5 156.681 1158.5 163C1158.5 169.319 1158.58 169.509 1161.2 169.812C1163.74 170.105 1163.92 170.462 1164.2 175.812L1164.5 181.5H1174H1183.5L1183.81 178.798C1184.11 176.257 1184.46 176.078 1189.81 175.798C1195.19 175.516 1195.52 175.349 1195.82 172.75C1196.11 170.164 1196.43 170 1201.07 170C1205.88 170 1206 170.072 1206 173C1206 175.652 1206.34 176 1208.93 176C1211.39 176 1211.92 176.447 1212.18 178.75L1212.5 181.5H1225H1237.5L1237.81 178.798C1238.11 176.257 1238.46 176.078 1243.81 175.798C1249.16 175.518 1249.52 175.337 1249.81 172.811C1250.05 170.732 1250.73 170.051 1252.81 169.811C1254.89 169.571 1255.57 168.889 1255.81 166.811C1256.05 164.732 1256.73 164.051 1258.81 163.811C1260.89 163.571 1261.57 162.889 1261.81 160.811C1262.05 158.732 1262.73 158.051 1264.81 157.811L1267.5 157.5V145V132.5H1264H1260.5L1260.2 138.188C1259.92 143.538 1259.74 143.895 1257.2 144.188C1255.11 144.43 1254.43 145.107 1254.19 147.189C1253.95 149.268 1253.27 149.949 1251.19 150.189C1248.66 150.481 1248.48 150.844 1248.2 156.202L1247.9 161.903L1242.2 162.202C1236.81 162.484 1236.48 162.65 1236.18 165.25L1235.87 168H1224.93H1214V163.066C1214 158.428 1214.16 158.114 1216.75 157.816C1219.49 157.501 1219.5 157.465 1219.79 148.813C1220.07 140.191 1220.1 140.123 1222.79 139.813C1225.34 139.518 1225.52 139.171 1225.8 133.768L1226.1 128.036L1249.8 127.768L1273.5 127.5L1273.81 124.811C1274.05 122.732 1274.73 122.051 1276.81 121.811C1278.91 121.569 1279.57 120.893 1279.82 118.75C1280.08 116.447 1280.61 116 1283.07 116C1285.65 116 1286 115.645 1286 113.066C1286 110.61 1286.45 110.081 1288.75 109.816L1291.5 109.5L1291.78 96.75L1292.06 84H1289.1C1286.61 84 1286.08 83.56 1285.82 81.25L1285.5 78.5H1273H1260.5L1260.19 81.202C1259.89 83.743 1259.54 83.922 1254.19 84.202C1248.84 84.482 1248.48 84.661 1248.19 87.202C1247.89 89.743 1247.54 89.922 1242.19 90.202C1236.84 90.482 1236.48 90.663 1236.19 93.189C1235.95 95.268 1235.27 95.949 1233.19 96.189C1231.11 96.429 1230.43 97.111 1230.19 99.189C1229.95 101.268 1229.27 101.949 1227.19 102.189C1225.11 102.429 1224.43 103.111 1224.19 105.189C1223.95 107.268 1223.27 107.949 1221.19 108.189C1219.11 108.429 1218.43 109.111 1218.19 111.189C1217.95 113.268 1217.27 113.949 1215.19 114.189C1212.66 114.481 1212.48 114.845 1212.2 120.188C1211.92 125.538 1211.74 125.895 1209.2 126.188C1206.66 126.481 1206.48 126.838 1206.2 132.188C1205.92 137.538 1205.74 137.895 1203.2 138.188C1200.52 138.497 1200.5 138.574 1200.21 147.187C1199.93 155.809 1199.9 155.877 1197.21 156.187C1195.11 156.43 1194.43 157.105 1194.19 159.189C1193.95 161.268 1193.27 161.949 1191.19 162.189C1189.09 162.431 1188.43 163.107 1188.18 165.25C1187.89 167.836 1187.57 168 1182.93 168H1178V163.066C1178 158.428 1178.16 158.114 1180.75 157.816C1183.35 157.517 1183.52 157.188 1183.8 151.812C1184.08 146.462 1184.26 146.105 1186.8 145.812C1188.89 145.57 1189.57 144.893 1189.81 142.811C1190.05 140.732 1190.73 140.051 1192.81 139.811C1194.89 139.571 1195.57 138.889 1195.81 136.811C1196.05 134.732 1196.73 134.051 1198.81 133.811C1201.34 133.519 1201.52 133.155 1201.8 127.812C1202.08 122.462 1202.26 122.105 1204.8 121.812C1207.34 121.519 1207.52 121.162 1207.8 115.812C1208.08 110.462 1208.26 110.105 1210.8 109.812L1213.5 109.5V97V84.5H1195H1176.5L1176.19 87.189C1175.95 89.268 1175.27 89.949 1173.19 90.189C1171.09 90.431 1170.43 91.107 1170.18 93.25C1169.96 95.165 1169.3 96 1167.98 96C1166.39 96 1166.05 95.109 1165.8 90.25L1165.5 84.5H1150H1134.5L1134.19 87.189C1133.95 89.268 1133.27 89.949 1131.19 90.189C1129.09 90.431 1128.43 91.107 1128.18 93.25C1127.96 95.165 1127.3 96 1125.98 96C1124.39 96 1124.05 95.109 1123.8 90.25C1123.52 84.84 1123.34 84.482 1120.81 84.189C1118.73 83.949 1118.05 83.268 1117.81 81.189C1117.51 78.578 1117.31 78.5 1111 78.5C1104.69 78.5 1104.49 78.578 1104.19 81.189C1103.95 83.268 1103.27 83.949 1101.19 84.189C1099.09 84.431 1098.43 85.107 1098.18 87.25C1097.96 89.155 1097.29 90 1096 90C1094.71 90 1094.04 89.155 1093.82 87.25C1093.51 84.565 1093.35 84.5 1087 84.5C1080.65 84.5 1080.49 84.565 1080.18 87.25C1079.87 89.99 1079.84 90 1072 90C1064.16 90 1064.13 89.99 1063.82 87.25C1063.5 84.511 1063.46 84.499 1054.81 84.212C1046.19 83.926 1046.12 83.904 1045.81 81.212C1045.51 78.573 1045.32 78.5 1039 78.5C1032.67 78.5 1032.49 78.571 1032.19 81.219L1031.87 83.938L1020.19 84.219L1008.5 84.5L1008.18 87.25C1007.96 89.155 1007.29 90 1006 90C1004.71 90 1004.04 89.155 1003.82 87.25C1003.57 85.107 1002.91 84.431 1000.81 84.189C998.732 83.949 998.051 83.268 997.811 81.189L997.5 78.5L985.446 78.221C978.816 78.067 973.079 78.255 972.696 78.637ZM175.816 94.75C175.517 97.349 175.188 97.516 169.812 97.798C164.462 98.078 164.105 98.257 163.812 100.798C163.57 102.89 162.893 103.57 160.811 103.811C158.732 104.051 158.051 104.732 157.811 106.811C157.571 108.889 156.889 109.571 154.811 109.811C152.732 110.051 152.051 110.732 151.811 112.811C151.571 114.889 150.889 115.571 148.811 115.811C146.732 116.051 146.051 116.732 145.811 118.811C145.57 120.893 144.89 121.57 142.798 121.812C140.257 122.105 140.078 122.462 139.798 127.812C139.518 133.155 139.337 133.519 136.811 133.811C134.732 134.051 134.051 134.732 133.811 136.811C133.57 138.895 132.89 139.57 130.788 139.813C128.096 140.123 128.074 140.191 127.788 148.813C127.501 157.465 127.489 157.501 124.75 157.816C122.164 158.114 122 158.428 122 163.066V168H129.934C137.845 168 137.868 167.992 138.184 165.25C138.43 163.107 139.094 162.431 141.189 162.189C143.268 161.949 143.949 161.268 144.189 159.189C144.429 157.111 145.111 156.429 147.189 156.189C149.268 155.949 149.949 155.268 150.189 153.189C150.429 151.111 151.111 150.429 153.189 150.189C155.268 149.949 155.949 149.268 156.189 147.189C156.429 145.111 157.111 144.429 159.189 144.189C161.268 143.949 161.949 143.268 162.189 141.189C162.43 139.107 163.11 138.43 165.202 138.188C167.743 137.895 167.922 137.538 168.202 132.188C168.482 126.845 168.663 126.481 171.189 126.189C173.268 125.949 173.949 125.268 174.189 123.189C174.43 121.107 175.11 120.43 177.202 120.188C179.743 119.895 179.922 119.538 180.202 114.188C180.482 108.845 180.663 108.481 183.189 108.189C185.268 107.949 185.949 107.268 186.189 105.189C186.431 103.094 187.107 102.43 189.25 102.184C191.836 101.886 192 101.572 192 96.934V92H184.066C176.155 92 176.132 92.008 175.816 94.75ZM277.768 115.75L277.5 139.5L274.75 139.816C272.008 140.132 272 140.155 272 148.066C272 155.242 272.185 156 273.934 156C275.3 156 275.96 155.193 276.184 153.25C276.43 151.107 277.094 150.431 279.189 150.189C281.268 149.949 281.949 149.268 282.189 147.189C282.43 145.107 283.11 144.43 285.202 144.188C287.743 143.895 287.922 143.538 288.202 138.188C288.482 132.845 288.663 132.481 291.189 132.189C293.268 131.949 293.949 131.268 294.189 129.189C294.43 127.107 295.11 126.43 297.202 126.188C299.743 125.895 299.922 125.538 300.202 120.188C300.484 114.812 300.651 114.483 303.25 114.184C305.836 113.886 306 113.572 306 108.934C306 104.723 305.717 104 304.066 104C302.7 104 302.04 104.807 301.816 106.75C301.51 109.413 301.286 109.509 294.75 109.796L288 110.091V101.046V92H283.018H278.036L277.768 115.75ZM427.816 94.75C427.57 96.893 426.906 97.569 424.811 97.811C422.732 98.051 422.051 98.732 421.811 100.811C421.571 102.889 420.889 103.571 418.811 103.811C416.732 104.051 416.051 104.732 415.811 106.811C415.569 108.906 414.893 109.57 412.75 109.816C410.164 110.114 410 110.428 410 115.066V120H414.934C419.572 120 419.886 119.836 420.184 117.25C420.483 114.651 420.812 114.484 426.188 114.202C431.538 113.922 431.895 113.743 432.188 111.202C432.43 109.11 433.107 108.43 435.189 108.189C437.268 107.949 437.949 107.268 438.189 105.189C438.429 103.111 439.111 102.429 441.189 102.189C443.268 101.949 443.949 101.268 444.189 99.189C444.431 97.094 445.107 96.43 447.25 96.184C449.193 95.96 450 95.3 450 93.934C450 92.14 449.208 92 439.066 92H428.133L427.816 94.75ZM799.816 94.75C799.517 97.349 799.188 97.516 793.812 97.798C788.462 98.078 788.105 98.257 787.812 100.798C787.57 102.89 786.893 103.57 784.811 103.811C782.732 104.051 782.051 104.732 781.811 106.811C781.569 108.906 780.893 109.57 778.75 109.816C776.447 110.081 776 110.61 776 113.066C776 115.648 775.646 116 773.05 116C770.16 116 770.094 116.117 769.8 121.75C769.518 127.16 769.341 127.518 766.811 127.811C764.732 128.051 764.051 128.732 763.811 130.811C763.57 132.893 762.89 133.57 760.798 133.812C758.257 134.105 758.078 134.462 757.798 139.812C757.516 145.188 757.349 145.517 754.75 145.816L752 146.133V157.066V168H756.934C761.572 168 761.886 167.836 762.184 165.25C762.43 163.107 763.094 162.431 765.189 162.189C767.268 161.949 767.949 161.268 768.189 159.189C768.481 156.662 768.844 156.482 774.202 156.202L779.903 155.903L780.202 150.202C780.482 144.844 780.662 144.481 783.189 144.189C785.268 143.949 785.949 143.268 786.189 141.189C786.429 139.111 787.111 138.429 789.189 138.189C791.268 137.949 791.949 137.268 792.189 135.189C792.43 133.107 793.11 132.43 795.202 132.188C797.743 131.895 797.922 131.538 798.202 126.188C798.482 120.845 798.663 120.481 801.189 120.189C803.268 119.949 803.949 119.268 804.189 117.189C804.43 115.107 805.11 114.43 807.202 114.188C809.743 113.895 809.922 113.538 810.202 108.188C810.484 102.812 810.651 102.483 813.25 102.184C815.836 101.886 816 101.572 816 96.934V92H808.066C800.155 92 800.132 92.008 799.816 94.75ZM889.816 94.75C889.57 96.893 888.906 97.569 886.811 97.811C884.732 98.051 884.051 98.732 883.811 100.811C883.518 103.341 883.16 103.518 877.75 103.8C872.117 104.094 872 104.16 872 107.05C872 109.65 871.65 110 869.05 110C866.16 110 866.094 110.117 865.8 115.75C865.518 121.16 865.341 121.518 862.811 121.811C860.732 122.051 860.051 122.732 859.811 124.811C859.57 126.893 858.89 127.57 856.798 127.812C854.257 128.105 854.078 128.462 853.798 133.812C853.518 139.162 853.339 139.519 850.798 139.812C848.257 140.105 848.078 140.462 847.798 145.812C847.516 151.188 847.349 151.517 844.75 151.816C842.008 152.132 842 152.155 842 160.066V168H846.934C851.572 168 851.886 167.836 852.184 165.25C852.483 162.651 852.812 162.484 858.188 162.202C863.538 161.922 863.895 161.743 864.188 159.202C864.43 157.11 865.107 156.43 867.189 156.189C869.268 155.949 869.949 155.268 870.189 153.189C870.43 151.107 871.11 150.43 873.202 150.188C875.743 149.895 875.922 149.538 876.202 144.188C876.482 138.845 876.663 138.481 879.189 138.189C881.268 137.949 881.949 137.268 882.189 135.189C882.43 133.107 883.11 132.43 885.202 132.188C887.743 131.895 887.922 131.538 888.202 126.188C888.482 120.845 888.663 120.481 891.189 120.189C893.268 119.949 893.949 119.268 894.189 117.189C894.43 115.107 895.11 114.43 897.202 114.188C899.743 113.895 899.922 113.538 900.202 108.188C900.484 102.812 900.651 102.483 903.25 102.184C905.836 101.886 906 101.572 906 96.934V92H898.066C890.155 92 890.132 92.008 889.816 94.75ZM973.816 94.75C973.57 96.893 972.906 97.569 970.811 97.811C968.732 98.051 968.051 98.732 967.811 100.811C967.571 102.889 966.889 103.571 964.811 103.811C962.732 104.051 962.051 104.732 961.811 106.811C961.571 108.889 960.889 109.571 958.811 109.811C956.732 110.051 956.051 110.732 955.811 112.811C955.571 114.889 954.889 115.571 952.811 115.811C950.732 116.051 950.051 116.732 949.811 118.811C949.571 120.889 948.889 121.571 946.811 121.811C944.732 122.051 944.051 122.732 943.811 124.811C943.57 126.893 942.89 127.57 940.798 127.812C938.257 128.105 938.078 128.462 937.798 133.812C937.518 139.162 937.339 139.519 934.798 139.812C932.257 140.105 932.078 140.462 931.798 145.812C931.516 151.188 931.349 151.517 928.75 151.816C926.008 152.132 926 152.155 926 160.066V168H930.934C935.572 168 935.886 167.836 936.184 165.25C936.483 162.651 936.812 162.484 942.188 162.202C947.538 161.922 947.895 161.743 948.188 159.202C948.43 157.11 949.107 156.43 951.189 156.189C953.268 155.949 953.949 155.268 954.189 153.189C954.429 151.111 955.111 150.429 957.189 150.189C959.268 149.949 959.949 149.268 960.189 147.189C960.43 145.107 961.11 144.43 963.202 144.188C965.743 143.895 965.922 143.538 966.202 138.188C966.482 132.845 966.663 132.481 969.189 132.189C971.268 131.949 971.949 131.268 972.189 129.189C972.43 127.107 973.11 126.43 975.202 126.188C977.743 125.895 977.922 125.538 978.202 120.188C978.482 114.845 978.663 114.481 981.189 114.189C983.268 113.949 983.949 113.268 984.189 111.189C984.43 109.107 985.11 108.43 987.202 108.188C989.743 107.895 989.922 107.538 990.202 102.188C990.484 96.812 990.651 96.483 993.25 96.184C995.193 95.96 996 95.3 996 93.934C996 92.14 995.208 92 985.066 92H974.133L973.816 94.75ZM1015.8 97.75C1015.52 103.16 1015.34 103.518 1012.81 103.811C1010.73 104.051 1010.05 104.732 1009.81 106.811C1009.57 108.893 1008.89 109.57 1006.8 109.812C1004.26 110.105 1004.08 110.462 1003.8 115.812C1003.52 121.155 1003.34 121.519 1000.81 121.811C998.732 122.051 998.051 122.732 997.811 124.811C997.57 126.893 996.89 127.57 994.798 127.812C992.257 128.105 992.078 128.462 991.798 133.812C991.518 139.162 991.339 139.519 988.798 139.812C986.257 140.105 986.078 140.462 985.798 145.812C985.518 151.162 985.339 151.519 982.798 151.812C980.257 152.105 980.078 152.462 979.798 157.812C979.516 163.188 979.349 163.517 976.75 163.816C974.807 164.04 974 164.7 974 166.066C974 167.717 974.723 168 978.934 168C983.572 168 983.886 167.836 984.184 165.25C984.43 163.107 985.094 162.431 987.189 162.189C989.268 161.949 989.949 161.268 990.189 159.189C990.429 157.111 991.111 156.429 993.189 156.189C995.268 155.949 995.949 155.268 996.189 153.189C996.429 151.111 997.111 150.429 999.189 150.189C1001.27 149.949 1001.95 149.268 1002.19 147.189C1002.43 145.111 1003.11 144.429 1005.19 144.189C1007.27 143.949 1007.95 143.268 1008.19 141.189C1008.43 139.111 1009.11 138.429 1011.19 138.189C1013.27 137.949 1013.95 137.268 1014.19 135.189C1014.48 132.663 1014.84 132.482 1020.19 132.202C1025.54 131.922 1025.89 131.743 1026.19 129.202C1026.43 127.11 1027.11 126.43 1029.19 126.189C1031.27 125.949 1031.95 125.268 1032.19 123.189C1032.48 120.663 1032.84 120.482 1038.19 120.202C1043.54 119.922 1043.89 119.743 1044.19 117.202C1044.48 114.661 1044.84 114.482 1050.19 114.202C1055.54 113.922 1055.89 113.743 1056.19 111.202C1056.48 108.657 1056.83 108.483 1062.25 108.2C1067.13 107.946 1068 107.612 1068 106C1068 104.388 1067.13 104.054 1062.25 103.8C1056.81 103.516 1056.48 103.353 1056.18 100.75L1055.87 98H1044.98H1034.1L1033.8 103.75L1033.5 109.5H1027H1020.5L1020.21 100.75C1019.95 92.903 1019.72 92 1018.01 92C1016.39 92 1016.06 92.86 1015.8 97.75ZM1106 94C1106 95.333 1106.67 96 1108 96C1109.33 96 1110 95.333 1110 94C1110 92.667 1109.33 92 1108 92C1106.67 92 1106 92.667 1106 94ZM1141.82 94.75C1141.57 96.893 1140.91 97.569 1138.81 97.811C1136.73 98.051 1136.05 98.732 1135.81 100.811C1135.57 102.889 1134.89 103.571 1132.81 103.811C1130.73 104.051 1130.05 104.732 1129.81 106.811C1129.52 109.338 1129.16 109.518 1123.8 109.798L1118.1 110.097L1117.8 115.798C1117.52 121.156 1117.34 121.519 1114.81 121.811C1112.73 122.051 1112.05 122.732 1111.81 124.811C1111.57 126.893 1110.89 127.57 1108.8 127.812C1106.26 128.105 1106.08 128.462 1105.8 133.812C1105.52 139.155 1105.34 139.519 1102.81 139.811C1100.73 140.051 1100.05 140.732 1099.81 142.811C1099.57 144.893 1098.89 145.57 1096.8 145.812C1094.26 146.105 1094.08 146.462 1093.8 151.812C1093.52 157.188 1093.35 157.517 1090.75 157.816C1088.16 158.114 1088 158.428 1088 163.066V168H1092.93C1097.57 168 1097.89 167.836 1098.18 165.25C1098.43 163.107 1099.09 162.431 1101.19 162.189C1103.27 161.949 1103.95 161.268 1104.19 159.189C1104.43 157.111 1105.11 156.429 1107.19 156.189C1109.27 155.949 1109.95 155.268 1110.19 153.189C1110.43 151.107 1111.11 150.43 1113.2 150.188C1115.74 149.895 1115.92 149.538 1116.2 144.188C1116.48 138.845 1116.66 138.481 1119.19 138.189C1121.27 137.949 1121.95 137.268 1122.19 135.189C1122.43 133.107 1123.11 132.43 1125.2 132.188C1127.74 131.895 1127.92 131.538 1128.2 126.188C1128.48 120.845 1128.66 120.481 1131.19 120.189C1133.27 119.949 1133.95 119.268 1134.19 117.189C1134.43 115.107 1135.11 114.43 1137.2 114.188C1139.74 113.895 1139.92 113.538 1140.2 108.188C1140.48 102.812 1140.65 102.483 1143.25 102.184C1145.84 101.886 1146 101.572 1146 96.934C1146 92.723 1145.72 92 1144.07 92C1142.7 92 1142.04 92.807 1141.82 94.75ZM1261.82 94.75C1261.57 96.893 1260.91 97.569 1258.81 97.811C1256.73 98.051 1256.05 98.732 1255.81 100.811C1255.57 102.889 1254.89 103.571 1252.81 103.811C1250.73 104.051 1250.05 104.732 1249.81 106.811C1249.57 108.906 1248.89 109.57 1246.75 109.816C1244.16 110.114 1244 110.428 1244 115.066V120H1248.93C1253.57 120 1253.89 119.836 1254.18 117.25C1254.48 114.651 1254.81 114.484 1260.19 114.202C1265.54 113.922 1265.89 113.743 1266.19 111.202C1266.43 109.11 1267.11 108.43 1269.19 108.189C1271.27 107.949 1271.95 107.268 1272.19 105.189C1272.43 103.094 1273.11 102.43 1275.25 102.184C1277.84 101.886 1278 101.572 1278 96.934V92H1270.07C1262.16 92 1262.13 92.008 1261.82 94.75ZM260 106C260 107.333 260.667 108 262 108C263.333 108 264 107.333 264 106C264 104.667 263.333 104 262 104C260.667 104 260 104.667 260 106ZM331.816 106.75C331.569 108.896 330.907 109.568 328.798 109.812C326.257 110.105 326.078 110.462 325.798 115.812C325.518 121.155 325.337 121.519 322.811 121.811C320.732 122.051 320.051 122.732 319.811 124.811C319.57 126.893 318.89 127.57 316.798 127.812C314.257 128.105 314.078 128.462 313.798 133.812C313.518 139.155 313.337 139.519 310.811 139.811C308.732 140.051 308.051 140.732 307.811 142.811C307.57 144.895 306.89 145.57 304.788 145.813C302.096 146.123 302.074 146.191 301.788 154.813C301.501 163.465 301.489 163.501 298.75 163.816C296.807 164.04 296 164.7 296 166.066C296 167.815 296.758 168 303.934 168C311.845 168 311.868 167.992 312.184 165.25C312.43 163.107 313.094 162.431 315.189 162.189C317.268 161.949 317.949 161.268 318.189 159.189C318.429 157.111 319.111 156.429 321.189 156.189C323.268 155.949 323.949 155.268 324.189 153.189C324.43 151.107 325.11 150.43 327.202 150.188C329.743 149.895 329.922 149.538 330.202 144.188C330.482 138.838 330.661 138.481 333.202 138.188C335.743 137.895 335.922 137.538 336.202 132.188C336.482 126.838 336.661 126.481 339.202 126.188C341.743 125.895 341.922 125.538 342.202 120.188C342.484 114.812 342.651 114.483 345.25 114.184C347.836 113.886 348 113.572 348 108.934V104H340.066C332.155 104 332.132 104.008 331.816 106.75ZM253.816 112.75C253.57 114.893 252.906 115.569 250.811 115.811C248.732 116.051 248.051 116.732 247.811 118.811C247.571 120.889 246.889 121.571 244.811 121.811C242.732 122.051 242.051 122.732 241.811 124.811C241.57 126.893 240.89 127.57 238.798 127.812C236.257 128.105 236.078 128.462 235.798 133.812C235.518 139.155 235.337 139.519 232.811 139.811C230.732 140.051 230.051 140.732 229.811 142.811C229.519 145.337 229.155 145.518 223.812 145.798C218.462 146.078 218.105 146.257 217.812 148.798C217.568 150.907 216.896 151.569 214.75 151.816C212.008 152.132 212 152.155 212 160.066V168H225.934H239.867L240.184 165.25C240.431 163.104 241.093 162.432 243.202 162.188C245.743 161.895 245.922 161.538 246.202 156.188C246.482 150.838 246.661 150.481 249.202 150.188C251.743 149.895 251.922 149.538 252.202 144.188C252.484 138.812 252.651 138.483 255.25 138.184L258 137.867V123.934C258 110.826 257.885 110 256.066 110C254.7 110 254.04 110.807 253.816 112.75Z" />
</g>
</svg>
