<svg width="41" height="48" viewBox="0 0 41 48" fill="none" xmlns="http://www.w3.org/2000/svg">
<g style="mix-blend-mode:difference">
<path fill-rule="evenodd" clip-rule="evenodd" d="M40.0958 0.231597C40.0958 0.449389 40.0107 0.461766 38.6594 0.439868C37.232 0.416661 37.2232 0.418208 37.2232 0.69134C37.2233 0.844271 37.1701 0.933529 37.1036 0.892589C37.0378 0.852125 36.9839 0.873904 36.9839 0.941027C36.9839 1.00803 36.7146 1.09848 36.3855 1.1418C35.8483 1.21273 35.7299 1.2958 35.7715 1.57274C35.7941 1.72353 34.8998 1.90014 34.2571 1.8717C33.6916 1.84671 33.6326 1.86789 33.6326 2.09663C33.6326 2.29419 33.5162 2.38179 33.0982 2.49806C32.8042 2.57994 32.4811 2.61541 32.3801 2.57685C32.246 2.52567 32.1963 2.58482 32.1963 2.79595C32.1963 3.03433 32.1092 3.10847 31.7 3.21808C31.427 3.29116 31.1038 3.32496 30.9819 3.2933C30.8129 3.24938 30.7601 3.30151 30.7601 3.51252C30.7601 3.71888 30.6749 3.80802 30.4257 3.86253C30.1997 3.9118 30.0479 4.04986 29.9573 4.28848C29.8836 4.48258 29.7416 4.64146 29.6418 4.64146C29.4677 4.64146 29.4494 4.36345 29.546 3.18107C29.5554 3.06503 29.6916 2.91198 29.8488 2.84081C30.072 2.73965 30.1509 2.58649 30.2107 2.13793C30.2753 1.65403 30.3413 1.54073 30.6333 1.4122C30.8591 1.31282 31.0027 1.14418 31.0463 0.92746C31.0983 0.668966 31.1803 0.59506 31.4154 0.59506C31.7201 0.59506 31.8192 0.43356 31.5979 0.29753C31.5321 0.257066 31.4782 0.281344 31.4782 0.351561C31.4782 0.431537 31.2107 0.46736 30.7601 0.447604C30.0981 0.418565 30.0419 0.435941 30.0419 0.668609C30.0419 0.86605 29.9254 0.953642 29.5075 1.06992C29.2136 1.1518 28.8904 1.18726 28.7894 1.1487C28.667 1.10193 28.6057 1.1487 28.6057 1.28902C28.6057 1.55989 28.3774 1.78518 28.103 1.78518C27.958 1.78518 27.8875 1.87468 27.8875 2.05879C27.8875 2.35798 27.3684 2.61826 26.7719 2.61826C26.5298 2.61826 26.4513 2.67729 26.4513 2.85926C26.4513 3.03183 26.3493 3.12049 26.0922 3.17167C25.7692 3.23593 25.6636 3.39434 25.7219 3.72793C25.7313 3.78196 25.6838 3.7922 25.6164 3.75066C25.5489 3.70924 25.4938 3.72579 25.4938 3.78744C25.4938 3.8492 25.386 3.92763 25.2544 3.96191C25.0596 4.01249 25.015 4.12424 25.015 4.56089C25.015 5.03563 24.9759 5.11478 24.6762 5.24664C24.4898 5.32876 24.2699 5.54738 24.1874 5.73268C24.0981 5.93346 23.9447 6.06961 23.8081 6.06961C23.6794 6.06961 23.5787 6.15173 23.5787 6.25658C23.5787 6.4946 23.2915 6.78368 23.055 6.78368C22.92 6.78368 22.8638 6.94458 22.8369 7.40754C22.8052 7.95428 22.7601 8.05068 22.4716 8.18754C22.2906 8.27347 22.1425 8.39831 22.1425 8.46484C22.1425 8.64895 21.8241 8.92589 21.6124 8.92589C21.4723 8.92589 21.4243 9.04919 21.4243 9.4098C21.4243 10.0106 21.2486 10.354 20.9414 10.354C20.7894 10.354 20.7062 10.4347 20.7062 10.5821C20.7062 10.7164 20.571 10.8697 20.3771 10.955C20.0625 11.0936 20.0477 11.1381 20.0434 11.9599C20.0388 12.8307 19.8702 13.2103 19.4879 13.2103C19.3675 13.2103 19.3298 13.4908 19.3298 14.3856C19.3298 15.5584 19.3305 15.561 19.6589 15.6843C19.8562 15.7584 19.9881 15.897 19.9881 16.0302C19.9881 16.1679 20.1247 16.3037 20.3471 16.3872C20.5671 16.4698 20.7062 16.6069 20.7062 16.7413C20.7062 16.8705 20.8537 17.0255 21.0653 17.1187L21.4243 17.2767V18.6438C21.4243 20.0551 21.3324 20.351 20.8942 20.351C20.7888 20.351 20.7062 20.4511 20.7062 20.5791C20.7062 20.715 20.5693 20.8674 20.3674 20.9562C20.181 21.0383 19.9611 21.257 19.8786 21.4423C19.7893 21.643 19.6359 21.7792 19.4993 21.7792C19.3543 21.7792 19.2699 21.8618 19.2699 22.0036C19.2699 22.3045 18.6327 22.5867 17.9534 22.5867C17.274 22.5867 16.6368 22.3045 16.6368 22.0036C16.6368 21.875 16.553 21.7792 16.4405 21.7792C16.0323 21.7792 15.9264 21.41 15.9225 19.9737L15.9186 18.5848L16.2777 18.5064C16.6221 18.4311 16.6368 18.4017 16.6368 17.7923C16.6368 17.1828 16.6515 17.1534 16.9958 17.0782C17.3409 17.0029 17.3549 16.9747 17.3549 16.3547C17.3549 15.9998 17.3954 15.7154 17.4447 15.7224C17.494 15.7296 17.6556 15.6965 17.8037 15.6491C18.0382 15.5739 18.073 15.4813 18.073 14.9316C18.073 14.327 18.0882 14.297 18.4321 14.2219L18.7912 14.1435V12.1298C18.7912 10.7918 18.8337 10.116 18.9179 10.116C18.9876 10.116 19.0114 10.0625 18.9707 9.997C18.9287 9.92952 19.0294 9.87799 19.203 9.87799C19.5055 9.87799 19.5093 9.86621 19.5093 8.9497C19.5093 7.99153 19.6152 7.73577 20.012 7.73577C20.162 7.73577 20.2274 7.64544 20.2274 7.43824C20.2274 7.2746 20.2679 7.14655 20.3172 7.15357C20.6158 7.19641 20.9358 6.96493 20.9687 6.68228C20.9969 6.44009 21.08 6.35857 21.3273 6.33012C21.5761 6.30156 21.6576 6.22051 21.6863 5.97309C21.7151 5.72578 21.7967 5.64462 22.0454 5.61605C22.2942 5.58749 22.3757 5.50644 22.4045 5.25902C22.4315 5.02671 22.5192 4.92805 22.7249 4.89913C22.8806 4.87723 23.0345 4.75869 23.0668 4.63575C23.0991 4.51269 23.2769 4.34548 23.4619 4.26408C23.6781 4.16899 23.8219 3.99749 23.8649 3.78375C23.9122 3.54917 24.0042 3.45135 24.1779 3.45135C24.3133 3.45135 24.4598 3.35756 24.5033 3.24307C24.6142 2.95209 24.8468 2.73727 25.0514 2.73727C25.148 2.73727 25.2562 2.57946 25.2963 2.38024C25.3534 2.09663 25.4302 2.0232 25.6703 2.0232C26.0783 2.0232 26.0563 1.81053 25.6434 1.76328C25.3939 1.73484 25.3058 1.65355 25.2795 1.42814C25.2456 1.13823 25.2235 1.13157 24.4118 1.17013C23.7769 1.20024 23.5787 1.25129 23.5787 1.38447C23.5787 1.66319 22.8416 1.89872 22.0978 1.85766C21.4636 1.82267 21.4243 1.83647 21.4243 2.09473C21.4243 2.31038 21.3282 2.39559 20.9755 2.49294C20.2142 2.70324 20.2274 2.72061 20.2274 1.51466V0.411186H19.7487C19.3356 0.411186 19.2699 0.447009 19.2699 0.672179C19.2699 0.865455 19.1767 0.953523 18.9109 1.0116C18.6815 1.06171 18.5518 1.16406 18.5518 1.29473C18.5518 1.56048 18.3214 1.78518 18.0491 1.78518C17.9009 1.78518 17.8337 1.87515 17.8337 2.07331C17.8337 2.29526 17.753 2.37893 17.4818 2.4382C17.2133 2.49675 17.1212 2.59077 17.0928 2.83439C17.0621 3.09859 16.9883 3.16024 16.6657 3.19119C16.2696 3.22915 16.0276 3.07991 15.8872 2.71109C15.8443 2.59851 15.6753 2.47295 15.5117 2.43213C15.3389 2.38893 15.1988 2.25754 15.1774 2.11829C15.148 1.92668 15.0335 1.87099 14.6047 1.83981C14.3099 1.81826 14.0495 1.74329 14.0259 1.67319C14.0024 1.60309 13.9325 1.57679 13.8708 1.61475C13.8089 1.65272 13.766 1.63975 13.7755 1.58571C13.8509 1.1537 13.7825 1.13002 12.5676 1.16822C11.4644 1.20297 11.3705 1.22451 11.3705 1.44302C11.3705 1.57346 11.3166 1.64712 11.2508 1.60666C11.1849 1.5662 11.1311 1.58357 11.1311 1.64522C11.1311 1.70699 11.0234 1.78542 10.8917 1.81969C10.7521 1.85599 10.6523 1.98202 10.6523 2.12186C10.6523 2.47557 10.0562 2.62159 8.78134 2.58006C7.6826 2.54424 7.24681 2.37441 7.3288 2.01428C7.34914 1.92478 7.18768 1.87194 6.88511 1.86908C6.48415 1.86527 6.39917 1.90788 6.34376 2.14114C6.30761 2.29336 6.18014 2.43213 6.06045 2.44962C5.94076 2.46712 5.81341 2.51056 5.77763 2.54626C5.72305 2.60053 5.71024 3.51775 5.73957 5.26628C5.74435 5.55202 5.79235 5.59356 6.11766 5.59356C6.46369 5.59356 6.48655 5.61915 6.43771 5.9506C6.40875 6.14697 6.42945 6.30763 6.48391 6.30763C6.53837 6.30763 6.5829 6.17243 6.5829 6.00713C6.5829 5.77291 6.6571 5.69186 6.9197 5.63962C7.14974 5.59392 7.29816 5.46288 7.38804 5.22605C7.57129 4.74322 7.94556 4.75131 7.87398 5.23652C7.84502 5.43289 7.86572 5.59356 7.92018 5.59356C7.97464 5.59356 8.01916 5.46538 8.01916 5.30876C8.01916 4.97922 8.21474 4.87949 8.8607 4.87949H9.32353L9.29912 5.59356C9.28559 5.9863 9.31528 6.30763 9.36507 6.30763C9.41474 6.30763 9.45543 6.20243 9.45543 6.07377C9.45543 5.67342 10.394 5.39326 10.6038 5.73102C10.6541 5.81171 10.637 5.83623 10.5623 5.79029C10.4797 5.73959 10.4837 5.81599 10.5738 6.00903C10.6588 6.19124 10.8123 6.30608 10.972 6.30668C11.1629 6.30739 11.2527 6.40213 11.3106 6.66467C11.3596 6.88639 11.4652 7.02242 11.5894 7.02349C12.0003 7.0273 12.0979 7.21819 12.1568 8.13244C12.2226 9.15463 12.2158 9.1613 11.3405 8.91959C10.9678 8.81676 10.8917 8.74285 10.8917 8.48388C10.8917 8.31251 10.8538 8.20992 10.8074 8.25598C10.761 8.30203 10.7207 8.48507 10.7177 8.66264C10.7125 8.96219 10.6788 8.98338 10.2478 8.95743C9.71408 8.9253 9.45543 8.75487 9.45543 8.43533C9.45543 8.31239 9.41103 8.21182 9.35681 8.21182C9.30259 8.21182 9.27769 8.55993 9.30151 8.9854C9.34412 9.74565 9.33957 9.75898 9.04107 9.75898C8.77584 9.75898 8.7373 9.70804 8.7373 9.35731C8.7373 9.00623 8.69206 8.9466 8.37823 8.88424C8.08595 8.82616 8.01916 8.75321 8.01916 8.49245C8.01916 8.31631 7.98529 8.20587 7.94388 8.24705C7.90247 8.28811 7.86213 8.99325 7.85411 9.81396C7.83999 11.2665 7.84645 11.3061 8.0972 11.3061C8.2759 11.3061 8.39319 11.4156 8.47997 11.6632C8.58733 11.9695 8.66548 12.0202 9.0303 12.0202C9.39846 12.0202 9.45543 11.9821 9.45543 11.7366C9.45543 11.4198 9.70726 11.3104 10.4429 11.3078C10.7705 11.3066 10.8917 11.2556 10.8917 11.1192C10.8917 10.696 11.1968 10.5921 12.439 10.5921H13.6444L13.5945 11.3813C13.5343 12.3332 13.3746 12.5284 12.6436 12.5442C12.1644 12.5546 12.0998 12.5892 12.0439 12.8669C11.9927 13.1218 11.8957 13.1915 11.5059 13.2535C11.2444 13.2951 10.9453 13.2966 10.8413 13.257C10.7098 13.2068 10.6523 13.2539 10.6523 13.4118C10.6523 13.692 10.4313 13.9244 10.1646 13.9244C10.0376 13.9244 9.93778 14.0553 9.8923 14.2814C9.83592 14.5618 9.75741 14.6385 9.52665 14.6385C9.313 14.6385 9.22228 14.7115 9.19451 14.9062C9.17344 15.0536 9.03496 15.2269 8.88691 15.2915C8.65364 15.3932 8.61761 15.4983 8.61761 16.0771C8.61761 16.9557 8.43257 17.4702 8.09971 17.5175C7.92904 17.5416 7.8516 17.6254 7.87446 17.7612C7.89373 17.8751 7.85124 18.1831 7.78014 18.4455C7.68499 18.7967 7.58888 18.9229 7.41605 18.9229C7.18936 18.9229 7.18134 19.021 7.18134 21.7792C7.18134 23.731 7.14077 24.6355 7.05315 24.6355C6.86237 24.6355 6.5829 24.3221 6.5829 24.1084C6.5829 24.0055 6.49828 23.9214 6.39486 23.9214C6.15297 23.9214 5.86476 23.6348 5.86476 23.3943C5.86476 23.2915 5.78014 23.2073 5.67673 23.2073C5.33993 23.2073 5.14663 22.8848 5.14663 22.3232C5.14663 21.8983 5.10366 21.7792 4.95034 21.7792C4.5799 21.7792 4.43627 21.3981 4.43232 20.4046C4.42837 19.4148 4.53023 19.1609 4.93119 19.1609C5.12425 19.1609 5.14663 19.0375 5.14663 17.9708C5.14663 16.8773 5.12796 16.7807 4.9173 16.7807C4.77751 16.7807 4.62586 16.6412 4.52903 16.4236C4.44154 16.2273 4.29851 16.0666 4.21114 16.0666C3.99438 16.0666 3.71036 15.7677 3.71036 15.5395C3.71036 15.4367 3.66584 15.3525 3.61138 15.3525C3.55692 15.3525 3.53406 15.4999 3.56039 15.6798C3.62622 16.1296 3.39749 16.6719 3.11048 16.7465C2.92544 16.7947 2.87254 16.9095 2.87254 17.2623C2.87254 17.642 2.91646 17.7224 3.14112 17.7542C3.44142 17.7968 3.55309 18.1344 3.57655 19.0717C3.58528 19.4237 3.5392 19.637 3.45422 19.637C3.20874 19.637 2.99989 19.2298 2.99606 18.7437C2.9927 18.3301 2.94471 18.246 2.63316 18.1089C2.40898 18.0102 2.27409 17.8625 2.27409 17.7158C2.27409 17.5865 2.22717 17.5095 2.16984 17.5447C2.01508 17.6398 1.55811 17.2036 1.54183 16.9453C1.53417 16.822 1.48426 16.9786 1.43112 17.2934C1.32388 17.928 1.14662 18.2088 0.853143 18.2088C0.705567 18.2088 0.65829 18.3245 0.65829 18.6849C0.65829 19.0915 0.695513 19.1609 0.913586 19.1609C1.14207 19.1609 1.37044 19.5039 1.32951 19.7857C1.32244 19.8348 1.57247 19.8758 1.8851 19.8768C2.19785 19.8778 2.52053 19.9209 2.60228 19.9726C2.68415 20.0241 2.78684 20.3263 2.83065 20.6439L2.91024 21.2214L2.45757 21.1483C1.99713 21.074 1.55596 20.7767 1.55608 20.5409C1.55608 20.4678 1.36278 20.416 1.11634 20.4229C0.776423 20.4324 0.653981 20.4958 0.57738 20.7019C0.522802 20.8485 0.370557 20.9966 0.239019 21.0307C0.0533813 21.079 0 21.1932 0 21.5421C0 21.9221 0.0461999 22.0029 0.299223 22.0661C0.517775 22.1206 0.598445 22.2204 0.598445 22.436C0.598445 22.5985 0.652305 22.7313 0.718134 22.7313C0.783963 22.7313 0.837823 22.6471 0.837823 22.5443C0.837823 22.224 1.16996 21.9996 1.58492 22.0393C1.90545 22.07 1.98133 22.1325 2.01137 22.3904C2.03902 22.6274 2.13142 22.7208 2.38899 22.772C2.67696 22.8292 2.74267 22.9143 2.81138 23.3186C2.92879 24.0098 2.69755 24.6355 2.3246 24.6355C2.1252 24.6355 2.03471 24.7024 2.03471 24.8497C2.03471 25.1995 1.78145 25.3495 1.19138 25.3495H0.635309L0.66188 25.7958C0.682706 26.1433 0.74279 26.2503 0.933455 26.2789C1.079 26.3008 1.22825 26.4579 1.30114 26.6657C1.40587 26.9644 1.48606 27.0157 1.84896 27.0157C2.17858 27.0157 2.27409 26.9675 2.27409 26.8015C2.27409 26.5273 2.50102 26.3016 2.77679 26.3016C2.95201 26.3016 2.99486 26.1962 3.00635 25.7363C3.01425 25.4253 3.01485 25.1327 3.00778 25.0859C2.98433 24.9295 3.94806 24.7434 4.37176 24.8224C4.87912 24.917 4.90198 24.9503 4.95824 25.6706C4.9945 26.1358 5.04812 26.249 5.24633 26.2791C5.403 26.3029 5.51683 26.4381 5.56542 26.6582C5.62084 26.9093 5.73107 27.0199 5.97966 27.0741C6.2723 27.138 6.32916 27.22 6.3981 27.6766C6.4419 27.9673 6.44442 28.2588 6.4036 28.3245C6.35525 28.4022 6.93346 28.4438 8.06022 28.4438H9.79104L9.91288 28.7914C9.99248 29.0183 10.1314 29.1524 10.3136 29.1782C10.467 29.1997 10.5992 29.2844 10.6074 29.3662C10.6157 29.4481 10.6291 29.5953 10.6374 29.6935C10.6462 29.7989 10.7709 29.872 10.9421 29.872C11.1666 29.872 11.2495 29.9522 11.3106 30.229C11.3711 30.5028 11.4554 30.5861 11.6721 30.5861C12.0429 30.5861 12.0837 30.6701 12.1569 31.5828C12.2289 32.4784 11.9993 33.2043 11.6443 33.2043C11.525 33.2043 11.374 33.3249 11.3091 33.4721C11.2441 33.6194 11.0743 33.7908 10.9318 33.8531C10.7885 33.9155 10.6426 34.1152 10.6056 34.2994C10.542 34.6159 10.5058 34.6325 9.87734 34.6325C9.3203 34.6325 9.21605 34.6663 9.21605 34.8467C9.21605 35.288 8.98398 35.3465 7.2358 35.3465C5.74771 35.3465 5.51886 35.3202 5.34471 35.1289C5.2358 35.0091 5.14663 34.8485 5.14663 34.7718C5.14663 34.6752 4.80025 34.6325 4.0164 34.6325C2.88738 34.6325 2.88582 34.6329 2.67397 34.9895C2.55728 35.1859 2.37248 35.3465 2.2632 35.3465C2.13836 35.3465 2.03794 35.479 1.99282 35.7036C1.93525 35.9898 1.85961 36.0606 1.61173 36.0606C1.43268 36.0606 1.33417 36.1115 1.37762 36.1815C1.41903 36.2481 1.50497 36.2705 1.56864 36.2314C1.63232 36.1922 1.88857 36.1945 2.13812 36.2364C2.48271 36.2942 2.61844 36.3868 2.70234 36.6208C2.79318 36.8744 2.89217 36.9312 3.26165 36.9411C3.60144 36.9502 3.71048 36.9062 3.71048 36.7594C3.71036 36.6529 3.79019 36.5 3.88774 36.4194C4.0954 36.2481 5.62538 36.1215 5.62538 36.2758C5.62538 36.5075 5.16326 36.7747 4.76278 36.7747C4.40348 36.7747 4.31491 36.8298 4.18912 37.1317C4.08283 37.3869 3.95919 37.4888 3.75572 37.4888C3.59905 37.4888 3.47685 37.5289 3.48391 37.578C3.52819 37.8832 3.29647 38.2028 3.031 38.2028C2.87026 38.2028 2.76889 38.2514 2.80575 38.3107C2.84261 38.3699 2.98085 38.3904 3.11287 38.3561C3.44704 38.2691 4.0735 38.5501 4.17918 38.8342C4.24369 39.0077 4.38433 39.074 4.70701 39.083C5.08235 39.0936 5.14675 39.0576 5.14675 38.837C5.14663 38.6469 5.24118 38.5581 5.50569 38.5004C5.83376 38.4287 5.86512 38.3791 5.86859 37.9256C5.8729 37.3587 6.12185 36.9483 6.39762 37.0535C6.49947 37.0924 6.5829 37.0723 6.5829 37.009C6.5829 36.9456 6.71755 36.8937 6.88212 36.8937C7.11934 36.8937 7.18134 36.9537 7.18134 37.1835C7.18134 37.6694 6.96554 38.0735 6.66596 38.1482C6.42407 38.2085 6.38529 38.2848 6.40755 38.6573C6.42778 38.9968 6.48882 39.1037 6.67853 39.1322C6.81952 39.1534 6.97224 39.3082 7.03843 39.4967C7.14053 39.7881 7.20133 39.8189 7.58625 39.7741C7.91539 39.7359 8.01916 39.6693 8.01916 39.496C8.01916 39.3378 8.12928 39.2461 8.37823 39.1966C8.7519 39.1223 8.87745 38.9169 8.54927 38.9169C8.25028 38.9169 8.01916 38.6081 8.01916 38.2083C8.01916 37.8941 8.07207 37.8294 8.37823 37.7684C8.70127 37.7042 8.80684 37.5458 8.74855 37.2122C8.73909 37.1581 8.78661 37.1479 8.85399 37.1894C8.9215 37.2309 8.97668 37.2141 8.97668 37.152C8.97668 37.0899 9.1671 37.0037 9.39978 36.9602C9.95956 36.8558 10.6303 37.0982 10.6769 37.4214C10.6976 37.5659 10.8162 37.682 10.9644 37.7031C11.2524 37.7439 11.5636 38.4992 11.4453 38.8701C11.3829 39.0654 11.4368 39.0954 11.8506 39.0954C12.2607 39.0954 12.328 39.059 12.328 38.837C12.328 38.6469 12.4225 38.5581 12.687 38.5004C13.0006 38.4319 13.0461 38.3704 13.0461 38.0149C13.0461 37.7682 13.1051 37.608 13.1957 37.6085C13.4753 37.6097 14.2657 37.8628 14.1986 37.9296C14.1618 37.9662 14.18 38.0858 14.239 38.1956C14.3673 38.4338 15.2005 38.3899 15.2005 38.1449C15.2005 37.8576 15.553 37.7056 16.3325 37.6569C16.8674 37.6234 17.1155 37.6508 17.1155 37.7434C17.1155 37.9875 16.706 38.1952 16.2171 38.199C15.8012 38.2023 15.7166 38.2501 15.5787 38.5599C15.4819 38.7774 15.3302 38.9169 15.1905 38.9169C15.0618 38.9169 14.9611 38.999 14.9611 39.1039C14.9611 39.3444 14.6729 39.631 14.431 39.631C14.3276 39.631 14.243 39.6832 14.243 39.747C14.243 39.8113 14.396 39.8326 14.5855 39.795C15.0119 39.7101 15.6793 40.033 15.6793 40.3241C15.6793 40.4919 15.7773 40.5339 16.1577 40.5294C16.5566 40.5245 16.6361 40.4834 16.6364 40.2818C16.6367 40.1228 16.7595 39.9941 16.9958 39.9054C17.33 39.78 17.3549 39.7287 17.3549 39.1653C17.3549 38.7065 17.3984 38.5599 17.5344 38.5599C17.6332 38.5599 17.714 38.5142 17.714 38.4583C17.714 38.4024 17.916 38.3623 18.1628 38.3691C18.6055 38.3812 18.6113 38.3875 18.5846 38.8332C18.5569 39.2975 18.333 39.631 18.049 39.631C17.9413 39.631 17.8881 39.787 17.8881 40.1023C17.8881 40.4846 17.9337 40.5801 18.1301 40.6081C18.2633 40.6271 18.4254 40.763 18.4904 40.9103C18.5822 41.1185 18.707 41.1781 19.0507 41.1781C19.4179 41.1781 19.4991 41.1329 19.5309 40.9103C19.5583 40.7186 19.6626 40.6319 19.8983 40.605C20.3082 40.558 20.3347 40.345 19.9305 40.345C19.717 40.345 19.6133 40.2649 19.5615 40.0596C19.4259 39.5224 19.5422 39.2175 19.8983 39.1768C20.1477 39.1483 20.2274 39.0748 20.2274 38.8733C20.2274 38.4662 20.9228 38.2513 21.6161 38.4442C22.0486 38.5646 22.1425 38.641 22.1425 38.8729C22.1425 39.0739 22.21 39.1549 22.3777 39.1549C22.6806 39.1549 22.8606 39.4967 22.8606 40.0721C22.8606 40.5258 22.864 40.5289 23.3394 40.5289C23.7574 40.5289 23.8181 40.4948 23.8181 40.2585C23.8181 40.1098 23.8586 39.9994 23.9079 40.0132C23.9572 40.0272 24.1072 39.9779 24.2411 39.9039C24.4383 39.7947 24.4757 39.6769 24.4381 39.2842C24.4125 39.0175 24.3409 38.8303 24.2792 38.8683C24.1145 38.9695 23.8181 38.6853 23.8181 38.4263C23.8181 38.239 23.726 38.2028 23.2485 38.2028C22.5619 38.2028 22.3372 37.9486 22.3021 37.1317C22.259 36.1307 22.3711 35.7108 22.7034 35.6279C22.8882 35.5817 23.0489 35.4244 23.121 35.2187C23.1927 35.0141 23.3389 34.8704 23.4982 34.8478C23.6559 34.8255 23.7724 34.7123 23.7943 34.5602C23.8355 34.2731 24.5992 33.9637 25.0061 34.0695C25.1425 34.105 25.2895 34.0773 25.3327 34.0079C25.3768 33.9367 25.3546 33.9163 25.2818 33.961C25.1927 34.0157 25.1535 33.7024 25.1555 32.9542L25.1585 31.8679L25.5584 31.9324C25.9224 31.9911 25.9616 31.9683 25.9954 31.6782C26.0237 31.4343 26.1062 31.3511 26.3479 31.3233C26.5889 31.2955 26.68 31.2042 26.7339 30.9366C26.7895 30.6596 26.8678 30.5861 27.1066 30.5861C27.3786 30.5861 27.4439 30.4893 27.3986 30.1531C27.3728 29.9612 27.7895 29.8754 28.7553 29.8738C29.4137 29.8727 29.8026 29.9188 29.8026 29.998C29.8026 30.0673 29.8564 30.091 29.9223 30.0505C29.9888 30.0096 30.0419 30.0988 30.0419 30.2518C30.0419 30.4978 30.1003 30.5277 30.599 30.5385C31.3865 30.5551 31.4782 30.727 31.4782 32.1857L31.4781 33.3828L32.6343 33.369L33.7905 33.3552L33.7822 31.5244C33.7705 28.9304 33.7685 28.896 33.6282 28.9821C33.56 29.024 33.294 29.0231 33.0373 28.9799C32.6451 28.9141 32.558 28.8459 32.4935 28.5537C32.4362 28.2944 32.3479 28.2058 32.1462 28.2058C31.5525 28.2058 31.5551 27.2097 32.1491 27.0614C32.3304 27.0162 32.4343 26.8899 32.4588 26.6851C32.5091 26.2634 32.8779 26.1852 34.6567 26.219C36.1699 26.2477 36.5051 26.349 36.5051 26.7773C36.5051 26.9139 36.6291 27.0106 36.8642 27.0574L37.2233 27.1288L37.2195 29.2442C37.215 31.688 37.1856 31.7762 36.3707 31.7762C35.939 31.7762 35.8224 31.8246 35.7256 32.044C35.6606 32.1913 35.4864 32.3646 35.3382 32.4292C35.19 32.4938 35.0689 32.6182 35.0689 32.7055C35.0689 32.9479 34.7257 33.2359 34.5272 33.1602C34.4062 33.1139 34.3507 33.1715 34.3507 33.3437C34.3507 33.8014 34.0215 33.9105 32.6293 33.9146C31.4469 33.918 31.3063 33.8951 31.1057 33.665C30.9841 33.5257 30.9138 33.365 30.9492 33.308C30.9847 33.2507 30.1525 33.2043 29.0915 33.2043C27.424 33.2043 27.1694 33.2291 27.1694 33.3913C27.1694 33.7194 26.8448 33.9184 26.3096 33.9184C25.8491 33.9184 25.774 33.958 25.6326 34.2754C25.5358 34.493 25.3841 34.6325 25.2443 34.6325C25.0517 34.6325 25.015 34.7197 25.015 35.1765C25.015 35.7381 24.8217 36.0606 24.4849 36.0606C24.3267 36.0606 24.2969 36.2467 24.2969 37.2359V38.4111L24.6559 38.4825L25.015 38.5539V39.5602C25.015 40.5119 25.0296 40.5685 25.2832 40.6045C25.4343 40.626 25.6198 40.7851 25.7082 40.9691C25.7945 41.1487 25.9971 41.3286 26.1583 41.3688C26.4282 41.4361 26.4513 41.4979 26.4513 42.1516C26.4513 43.1037 26.3353 43.2013 25.203 43.2013C24.459 43.2013 24.2969 43.2348 24.2969 43.3883C24.2969 43.8637 24.0443 43.9154 21.7233 43.9154C19.6662 43.9154 19.4949 43.8992 19.5319 43.7081C19.5556 43.5859 19.7189 43.4743 19.9297 43.4364C20.176 43.3921 20.277 43.3112 20.2541 43.1763C20.2349 43.0628 20.3725 42.8915 20.5817 42.7686C20.9282 42.5651 20.9414 42.527 20.9141 41.8082C20.8985 41.3964 20.8453 41.0595 20.796 41.0594C20.7467 41.0592 20.7062 41.1433 20.7062 41.2461C20.7062 41.4866 20.418 41.7732 20.1761 41.7732C20.0727 41.7732 19.9881 41.861 19.9881 41.9684C19.9881 42.3254 19.6031 42.4795 18.7014 42.4834C17.947 42.4868 17.8337 42.5152 17.8337 42.7015C17.8337 43.096 17.5765 43.2013 16.6128 43.2013C15.9106 43.2013 15.6793 43.241 15.6793 43.3614C15.6793 43.663 15.2522 43.9154 14.7422 43.9154C14.3682 43.9154 14.243 43.9623 14.243 44.1024C14.243 44.3377 13.9967 44.5876 13.6959 44.6574C13.4984 44.7033 13.5143 44.7311 13.8058 44.8502C13.9931 44.9268 14.1744 45.0959 14.2086 45.226C14.2523 45.392 14.3723 45.4626 14.6104 45.4626C15.2157 45.4626 15.6303 45.7314 15.5737 46.0874C15.5659 46.1365 15.6 46.1776 15.6493 46.1789C16.7171 46.2054 17.5834 46.2749 17.6936 46.3426C17.7707 46.39 17.8337 46.5485 17.8337 46.695C17.8337 46.9483 17.8716 46.9591 18.6015 46.9128C19.4349 46.8601 19.9767 47.0962 19.9844 47.5155C19.9865 47.6406 20.0802 47.7238 20.2189 47.7238C20.3458 47.7238 20.5286 47.8022 20.6249 47.898C20.7788 48.0511 20.8089 48.0401 20.8712 47.8088C20.9104 47.6638 20.9431 47.3829 20.9439 47.1845C20.9452 46.8924 20.8774 46.7982 20.5865 46.6891C20.3456 46.5986 20.2274 46.4726 20.2274 46.306C20.2274 46.1233 20.1517 46.0576 19.941 46.0576C19.6819 46.0576 19.5093 45.8634 19.5093 45.5718C19.5093 45.5081 20.8507 45.4626 22.7216 45.4626H25.9341L26.0674 45.1714C26.2126 44.8546 26.5892 44.7537 27.5285 44.7795C27.9807 44.792 28.0727 44.7565 28.1021 44.5576C28.122 44.4233 28.2883 44.2641 28.4857 44.19C28.7013 44.109 28.8635 43.9436 28.9108 43.756C28.9564 43.5753 29.086 43.4382 29.232 43.4164C29.4581 43.3826 29.4777 43.2919 29.4901 42.2195C29.5031 41.0828 29.4977 41.059 29.227 41.0591C29.075 41.0591 28.9804 41.0112 29.0168 40.9526C29.0533 40.8939 28.9992 40.8141 28.8966 40.7749C28.7941 40.7358 28.742 40.6526 28.781 40.5898C28.8577 40.4663 28.4389 40.1934 28.3336 40.2983C28.2983 40.3334 28.2331 40.1976 28.1887 39.9966C28.125 39.7083 28.0451 39.631 27.8112 39.631C27.6437 39.631 27.5465 39.5791 27.5883 39.512C27.629 39.4465 27.6113 39.3929 27.5488 39.3929C27.4865 39.3929 27.3997 39.2036 27.356 38.9722C27.252 38.4207 27.4948 37.7489 27.8149 37.7024C27.9573 37.6818 28.0854 37.5478 28.1256 37.3774C28.1712 37.184 28.3123 37.0558 28.5494 36.9924C29.0461 36.8595 30.7601 36.8906 30.7601 37.0323C30.7601 37.2929 30.3906 37.4888 29.8994 37.4888C29.4762 37.4888 29.3588 37.5381 29.2624 37.7565C29.1974 37.9039 29.0231 38.0771 28.875 38.1418C28.7268 38.2064 28.6057 38.3308 28.6057 38.4181C28.6057 38.6408 28.305 38.9148 28.0456 38.9283C27.9258 38.9346 28.1239 39.0016 28.486 39.0771C28.967 39.1774 29.1749 39.2838 29.258 39.472C29.3351 39.6466 29.5049 39.745 29.7853 39.7775C30.1474 39.8196 30.2145 39.7844 30.3243 39.4953C30.3932 39.3137 30.553 39.1494 30.6795 39.1303C30.8522 39.1041 30.9209 38.9771 30.9561 38.6194C30.9819 38.3575 31.0111 38.0785 31.0211 37.9993C31.0409 37.8436 31.6155 37.6078 31.9748 37.6078C32.1541 37.6078 32.1963 37.7001 32.1963 38.0923C32.1963 38.5957 31.9899 38.9169 31.6662 38.9169C31.5285 38.9169 31.4782 39.0371 31.4782 39.3669C31.4782 39.7575 31.5255 39.8346 31.8373 39.9516C32.0568 40.0339 32.1963 40.1713 32.1962 40.3049C32.1962 40.4812 32.2831 40.5203 32.6451 40.5068C32.9047 40.497 33.0814 40.4343 33.0641 40.358C33.0477 40.2854 33.088 40.226 33.1539 40.226C33.2197 40.226 33.2735 40.1457 33.2735 40.0475C33.2735 39.9484 33.3799 39.869 33.5129 39.869C33.6446 39.869 33.7523 39.8154 33.7523 39.75C33.7523 39.6845 33.6356 39.631 33.4929 39.631C33.3504 39.631 33.2688 39.5961 33.3116 39.5535C33.3545 39.5109 33.309 39.4171 33.2106 39.3452C32.9608 39.1627 33.2247 38.4652 33.5622 38.4162C33.7035 38.3957 33.8308 38.2603 33.8716 38.0871C33.9626 37.7015 34.6015 37.5375 35.2925 37.7225C35.563 37.795 35.7784 37.8924 35.7715 37.9392C35.7223 38.2669 35.8273 38.4191 36.1461 38.4825C36.4879 38.5505 36.5051 38.5827 36.5051 39.1519V39.75H36.9839C37.2472 39.75 37.4542 39.7099 37.4436 39.6607C37.396 39.4369 37.6321 39.1549 37.8672 39.1549C38.0898 39.1549 38.1263 39.0877 38.1263 38.6789C38.1263 38.2701 38.0898 38.2028 37.8672 38.2028C37.6318 38.2028 37.44 37.9766 37.4131 37.6673C37.4075 37.6018 37.2795 37.5309 37.1287 37.5096C36.9352 37.4823 36.8341 37.3686 36.7846 37.1228C36.7238 36.8205 36.6615 36.7747 36.3107 36.7747C35.9947 36.7747 35.9067 36.7258 35.9067 36.5503C35.9067 36.2331 36.2056 35.5643 36.3037 35.6619C36.3487 35.7067 36.3863 35.6674 36.3873 35.5747C36.3888 35.4308 36.4051 35.431 36.4978 35.5768C36.5801 35.7062 36.6323 35.6484 36.7126 35.3388C36.7894 35.0423 36.8945 34.919 37.095 34.8901C37.2714 34.8647 37.4196 34.7236 37.5042 34.5005C37.5986 34.2519 37.7062 34.1601 37.8765 34.1833C38.0586 34.2081 38.131 34.1317 38.1785 33.8642C38.2216 33.6224 38.3274 33.4922 38.5172 33.4477C38.6691 33.412 38.7998 33.3293 38.8077 33.2638C38.8306 33.0734 39.1654 32.788 39.3697 32.7848C39.4855 32.7829 39.5463 32.6919 39.5287 32.5468C39.5131 32.4175 39.5312 32.1107 39.5692 31.8651C39.6224 31.5209 39.7044 31.4019 39.9268 31.3463C40.1546 31.2895 40.216 31.1954 40.2179 30.9005C40.2192 30.6948 40.2327 29.3617 40.2478 27.938C40.2763 25.2583 40.2764 25.2591 39.8177 25.3384C39.7633 25.3478 39.753 25.3005 39.7948 25.2335C39.8365 25.1664 39.7955 25.1115 39.7037 25.1115C39.5812 25.1115 39.5394 24.946 39.5461 24.4867C39.5543 23.9177 39.5327 23.865 39.3034 23.8964C39.1196 23.9215 39.011 23.8334 38.9016 23.5705C38.819 23.3724 38.7071 23.2376 38.653 23.2709C38.5987 23.3042 38.3396 23.2973 38.0771 23.2555C37.6963 23.1951 37.5705 23.1091 37.4543 22.8303C37.3572 22.5971 37.2494 22.5035 37.1303 22.549C36.8431 22.6584 36.1461 22.4833 36.1461 22.3015C36.1461 22.2106 36.0939 22.1362 36.0301 22.1362C35.9664 22.1362 35.9401 22.0693 35.9717 21.9875C36.0165 21.8715 35.5516 21.8419 33.8637 21.8533C31.4446 21.8696 31.4594 21.875 31.7037 21.0642C31.8035 20.7329 31.9164 20.5945 32.109 20.5673C32.2763 20.5436 32.3896 20.4332 32.4129 20.2709C32.4356 20.1125 32.5802 19.9672 32.7859 19.8959C32.9972 19.8226 33.151 19.6646 33.2001 19.4701C33.2704 19.1913 33.3341 19.1609 33.8484 19.1609C34.3553 19.1609 34.4424 19.1212 34.6309 18.8039C34.8498 18.4353 35.1037 18.3766 36.3555 18.4055C36.5695 18.4104 36.7445 18.3682 36.7445 18.3116C36.7445 18.2551 36.6144 18.2088 36.4554 18.2088C36.2491 18.2088 36.1206 18.1064 36.0072 17.8518C35.9164 17.6479 35.7569 17.4948 35.6351 17.4948C35.494 17.4948 35.3977 17.3741 35.3501 17.1377C35.2999 16.8878 35.2084 16.7807 35.0454 16.7807C34.7653 16.7807 34.4929 16.5352 34.5578 16.3414C34.6074 16.1937 34.1877 15.9113 34.0792 16.0192C33.9033 16.1941 33.7387 15.1388 33.7884 14.1565C33.8327 13.2842 33.8858 13.0469 34.067 12.9104C34.1901 12.8177 34.3256 12.7401 34.3681 12.7381C34.4106 12.7359 34.477 12.5067 34.5158 12.2285C34.5546 11.9502 34.5962 11.6581 34.6082 11.5791C34.6202 11.5002 34.6749 11.4632 34.7298 11.4969C34.7846 11.5306 34.8295 11.5014 34.8295 11.4322C34.8295 11.3629 34.9372 11.3061 35.0689 11.3061C35.2284 11.3061 35.3083 11.2268 35.3083 11.0681C35.3083 10.9372 35.3653 10.8301 35.435 10.8301C35.5047 10.8301 35.5285 10.7765 35.4878 10.7111C35.4224 10.6059 35.9192 10.5536 37.0737 10.5441C37.2218 10.5429 37.343 10.5034 37.343 10.4563C37.343 10.4091 37.2218 10.3534 37.0737 10.3326C36.8809 10.3054 36.7936 10.2016 36.7665 9.96725C36.7457 9.7873 36.6514 9.6333 36.5571 9.62509C36.4627 9.61688 36.3232 9.60355 36.2472 9.59534C36.1712 9.58712 36.0934 9.47478 36.0744 9.34565C36.0333 9.06776 35.683 8.7832 35.5115 8.88864C35.4376 8.93399 35.4289 8.90173 35.489 8.8051C35.5571 8.69537 35.5342 8.66752 35.4142 8.71334C35.2708 8.76808 35.242 8.58433 35.2449 7.63557C35.2484 6.49638 35.2497 6.49139 35.5776 6.37678C35.8953 6.26562 35.9067 6.23218 35.9067 5.40659C35.9067 4.52531 36.0138 4.30014 36.4645 4.23432C36.5867 4.21659 36.7152 4.04914 36.771 3.83564C36.8325 3.59928 36.9537 3.45396 37.1097 3.42969C37.2431 3.40886 37.3541 3.33828 37.3563 3.27283C37.3628 3.06658 37.7329 2.7343 37.9207 2.76619C38.0349 2.78559 38.1385 2.65527 38.204 2.40999C38.2677 2.17161 38.3829 2.0232 38.5047 2.0232C38.6131 2.0232 38.8518 1.84921 39.035 1.63641L39.368 1.24963L39.3728 1.63641C39.3755 1.84921 39.4265 2.0232 39.4861 2.0232C39.5458 2.0232 39.5686 1.92395 39.5366 1.80267C39.5048 1.6814 39.5402 1.35471 39.6155 1.07682C39.7273 0.664206 39.7949 0.582444 39.9839 0.631596C40.1736 0.680867 40.2155 0.629335 40.2155 0.345849C40.2155 0.155668 40.1886 0 40.1557 0C40.1227 0 40.0958 0.104254 40.0958 0.231597ZM37.0737 1.37721C36.8866 1.47813 36.7445 1.65581 36.7445 1.78899C36.7445 1.94156 36.6635 2.0232 36.512 2.0232C36.1844 2.0232 35.9067 2.47223 35.9067 3.00184C35.9067 3.36839 35.8636 3.45135 35.673 3.45135C35.5048 3.45135 35.4042 3.57655 35.3146 3.89764C35.1448 4.50567 35.1564 4.64146 35.3785 4.64146C35.483 4.64146 35.6287 4.48258 35.7024 4.28848C35.793 4.04986 35.9448 3.9118 36.1707 3.86253C36.4826 3.79434 36.5051 3.74923 36.5051 3.19273C36.5051 2.69979 36.546 2.5853 36.7402 2.53483C36.8695 2.50127 37.0441 2.31883 37.1285 2.12948C37.2128 1.94013 37.3655 1.78518 37.4679 1.78518C37.6945 1.78518 37.9414 1.5556 37.9414 1.34483C37.9414 1.13918 37.4832 1.15632 37.0737 1.37721ZM12.328 2.11187C12.328 2.29146 12.4582 2.38559 12.8624 2.49806C13.1563 2.57994 13.4795 2.61541 13.5805 2.57685C13.7154 2.52531 13.7642 2.58565 13.7642 2.80344C13.7642 3.03802 13.8395 3.11526 14.1233 3.17167C14.369 3.22058 14.4824 3.31353 14.4824 3.46622C14.4824 3.58892 14.5395 3.68937 14.6091 3.68937C14.6788 3.68937 14.7067 3.73638 14.6709 3.79386C14.6352 3.85134 14.7733 3.93168 14.978 3.97238C15.5076 4.07771 15.6793 4.06461 15.6793 3.91894C15.6793 3.72924 15.3641 3.45135 15.1492 3.45135C15.0437 3.45135 14.9611 3.35126 14.9611 3.22332C14.9611 3.08741 14.8242 2.93495 14.6223 2.84617C14.4359 2.76405 14.2161 2.54543 14.1335 2.36013C14.007 2.07569 13.9128 2.0232 13.5298 2.0232C13.2802 2.0232 12.9077 1.98976 12.702 1.94882C12.383 1.88539 12.328 1.90943 12.328 2.11187ZM19.238 2.70371C19.0558 2.73109 18.9378 2.80333 18.9757 2.86438C19.0137 2.92543 18.9876 2.9753 18.9179 2.9753C18.8483 2.9753 18.7912 3.08241 18.7912 3.21332C18.7912 3.41719 18.7113 3.45135 18.2358 3.45135C17.8473 3.45135 17.6327 3.51395 17.5215 3.65962C17.2724 3.98583 17.3167 4.02653 17.9213 4.02653C18.6407 4.02653 19.2699 3.77315 19.2699 3.48348C19.2699 3.35054 19.4101 3.21296 19.629 3.13073C19.8265 3.05658 19.9881 2.91103 19.9881 2.80713C19.9881 2.61933 19.8898 2.60577 19.238 2.70371ZM22.4683 2.70633C22.0724 2.73097 21.8069 2.79761 21.847 2.86236C21.8856 2.92448 21.8601 2.9753 21.7905 2.9753C21.7208 2.9753 21.6637 3.08241 21.6637 3.21332C21.6637 3.42016 21.5839 3.45135 21.0549 3.45135C20.4882 3.45135 20.4367 3.4761 20.3105 3.80838C20.1912 4.12269 20.1172 4.16589 19.6926 4.16923C19.1599 4.17339 18.7912 4.38416 18.7912 4.68431C18.7912 4.82189 18.6851 4.87949 18.4321 4.87949C18.0771 4.87949 18.073 4.88687 18.073 5.52751V6.17541L19.1997 6.14137C20.5372 6.10103 20.7376 5.97547 20.7548 5.16702C20.7632 4.77654 20.8137 4.64146 20.9516 4.64146C21.1895 4.64146 21.4242 4.4082 21.4247 4.17137C21.4251 4.03165 21.5608 3.98595 21.9845 3.98309C22.3165 3.98083 22.5638 3.92013 22.5929 3.83361C22.6197 3.75352 22.6909 3.71817 22.7511 3.75518C22.8113 3.7922 22.8606 3.68532 22.8606 3.51787C22.8606 3.30389 22.9248 3.21332 23.076 3.21332C23.3281 3.21332 23.5787 2.99374 23.5787 2.77298C23.5787 2.68788 23.4845 2.62838 23.3693 2.64076C23.254 2.65313 22.8486 2.68265 22.4683 2.70633ZM6.5829 3.74888C6.5829 3.9869 6.64274 4.04641 6.88212 4.04641C7.1215 4.04641 7.18134 3.9869 7.18134 3.74888C7.18134 3.51085 7.1215 3.45135 6.88212 3.45135C6.64274 3.45135 6.5829 3.51085 6.5829 3.74888ZM11.6098 3.87634C11.6098 4.5647 11.8414 4.69335 13.1251 4.71823C14.2602 4.74013 14.4617 4.65432 14.0335 4.33108C13.9183 4.24408 13.5966 4.17125 13.3184 4.16923C12.821 4.16554 12.8139 4.15959 12.8845 3.80838L12.9563 3.45135H12.2831H11.6098V3.87634ZM34.8774 4.25848C34.805 4.30549 34.6818 4.46449 34.6039 4.61171C34.5258 4.75893 34.3594 4.87949 34.2339 4.87949C34.1085 4.87949 33.9653 4.94459 33.9159 5.02421C33.7744 5.25176 33.7462 7.98403 33.8802 8.4796C33.9602 8.77546 34.0702 8.92589 34.2064 8.92589C34.3197 8.92589 34.4834 9.0862 34.571 9.28293C34.6843 9.5375 34.8129 9.63997 35.0191 9.63997C35.1782 9.63997 35.3081 9.68019 35.308 9.72922C35.308 9.77826 34.7298 9.83574 34.0233 9.8568C32.7024 9.8962 32.4357 9.98212 32.4357 10.3686C32.4357 10.5603 32.3415 10.5921 31.7744 10.5921C31.1354 10.5921 31.1108 10.6041 31.0413 10.9491L30.9695 11.3061H29.7376C28.3045 11.3061 28.1269 11.3528 28.1269 11.7295C28.1269 11.9855 28.0705 12.0113 27.4387 12.044C26.7872 12.0778 26.7485 12.0972 26.7127 12.407C26.6749 12.7333 26.6721 12.7343 25.7252 12.7343C25.1366 12.7343 24.7756 12.7822 24.7756 12.8603C24.7756 12.9296 24.7204 12.9524 24.6529 12.911C24.5856 12.8695 24.538 12.8797 24.5475 12.9337C24.5932 13.1959 24.509 13.3293 24.2071 13.4727C24.0213 13.5609 23.8613 13.7453 23.8397 13.8957C23.8067 14.1253 23.7289 14.1624 23.2809 14.1624C22.5763 14.1624 22.3818 14.2552 22.3818 14.5917C22.3818 14.8446 22.3282 14.8765 21.9031 14.8765C21.4722 14.8765 21.4243 14.8467 21.4243 14.579C21.4243 14.4153 21.3839 14.2873 21.3346 14.2943C21.2853 14.3014 21.1236 14.2683 20.9755 14.221C20.6674 14.1222 20.6132 13.9244 20.8942 13.9244C21.231 13.9244 21.4243 13.6019 21.4243 13.0403C21.4243 12.625 21.4689 12.4963 21.6124 12.4963C21.8543 12.4963 22.1425 12.2097 22.1425 11.9691C22.1425 11.8663 22.2271 11.7822 22.3305 11.7822C22.6612 11.7822 22.8606 11.4594 22.8606 10.9242C22.8606 10.4579 22.8965 10.3927 23.2197 10.2714C23.4606 10.181 23.5787 10.055 23.5787 9.88834C23.5787 9.71589 23.6551 9.63997 23.8285 9.63997C23.9954 9.63997 24.1226 9.5231 24.2119 9.28805C24.2893 9.08394 24.4472 8.92149 24.5875 8.90126C24.7206 8.8821 24.8889 8.74749 24.9614 8.60218C25.034 8.45675 25.2374 8.22527 25.4132 8.08769C25.5892 7.95012 25.7331 7.75529 25.7331 7.65485C25.7331 7.53476 25.8 7.49787 25.9287 7.5469C26.0363 7.58796 26.313 7.5863 26.5438 7.54333C26.8518 7.48585 26.9955 7.38005 27.0845 7.14536C27.1513 6.96958 27.3594 6.75821 27.5468 6.67574C27.7503 6.58612 27.8875 6.4339 27.8875 6.29763C27.8875 6.15232 27.9707 6.06961 28.1169 6.06961C28.2535 6.06961 28.4069 5.93346 28.4962 5.73268C28.5787 5.54738 28.7986 5.32876 28.985 5.24664C29.3242 5.0974 29.4557 4.75988 29.1742 4.76119C29.092 4.76155 28.8227 4.8176 28.5758 4.8858C28.2214 4.98362 28.1269 5.068 28.1269 5.28675C28.1269 5.49776 28.0435 5.58035 27.7768 5.63343C27.5297 5.68258 27.4152 5.78315 27.3878 5.97559C27.3537 6.2148 27.2716 6.25253 26.7163 6.28419C26.1256 6.31799 26.079 6.34322 26.0144 6.66455C25.9626 6.92245 25.8586 7.02765 25.5998 7.08418C25.3385 7.14131 25.2544 7.22771 25.2544 7.43944C25.2544 7.63795 25.1769 7.7303 24.9881 7.7572C24.8416 7.77814 24.6565 7.92584 24.5768 8.08555C24.4971 8.24515 24.2938 8.4477 24.125 8.53565C23.9541 8.62467 23.8181 8.79926 23.8181 8.9297C23.8181 9.10084 23.7367 9.16392 23.5159 9.16392C23.2804 9.16392 23.1988 9.23771 23.1463 9.49882C23.1013 9.72268 22.9689 9.87501 22.7469 9.95832C22.4996 10.0512 22.3945 10.1897 22.336 10.5001C22.2928 10.7295 22.2896 11.0007 22.3289 11.1029C22.3818 11.2398 22.3119 11.2986 22.0622 11.3271C21.7936 11.3577 21.7158 11.4334 21.6857 11.6929C21.6523 11.981 21.549 12.0527 21.2283 12.0101C21.0642 11.9882 20.9492 12.3426 20.9474 12.8752C20.9457 13.3942 20.923 13.4351 20.6164 13.4702C20.376 13.4977 20.2765 13.5832 20.2474 13.7878C20.1806 14.257 20.3307 14.6385 20.5822 14.6385C20.7159 14.6385 20.8789 14.776 20.9701 14.9657C21.0565 15.1457 21.2444 15.3097 21.3876 15.33C21.5645 15.3552 21.6727 15.479 21.7251 15.7168C21.7817 15.9732 21.872 16.0666 22.0629 16.0666C22.3044 16.0666 22.3215 16.119 22.2985 16.7882C22.2693 17.6388 22.4136 18.0892 22.7423 18.1747C22.9496 18.2286 22.9803 18.3383 22.9803 19.0276C22.9803 19.7337 22.9514 19.8312 22.711 19.936C22.5628 20.0007 22.4245 20.1739 22.4034 20.3213C22.3762 20.5116 22.2844 20.5891 22.086 20.5891C21.8842 20.5891 21.7725 20.6868 21.6831 20.9419C21.6039 21.1681 21.4492 21.3223 21.2525 21.3713C21.0301 21.4269 20.9456 21.5263 20.9456 21.7325C20.9456 21.9932 20.8971 22.0172 20.3711 22.0172C19.7711 22.0172 19.5093 22.1648 19.5093 22.5031C19.5093 22.68 19.1279 22.8986 18.8809 22.8631C18.8315 22.8561 18.7912 22.9842 18.7912 23.1478C18.7912 23.4358 18.7653 23.4453 17.9826 23.4453C17.1992 23.4453 17.169 23.4342 17.015 23.0883C16.9182 22.8708 16.7665 22.7313 16.6267 22.7313C16.4857 22.7313 16.3974 22.6488 16.3974 22.5171C16.3974 22.2537 16.1733 22.0172 15.9239 22.0172C15.8215 22.0172 15.6662 21.8565 15.5787 21.6602C15.4913 21.4638 15.3301 21.3031 15.2204 21.3031C15.0426 21.3031 15.021 21.0966 15.021 19.3989C15.021 17.9 15.0546 17.4948 15.1791 17.4948C15.4882 17.4948 15.7166 17.1192 15.7279 16.5922C15.7378 16.1281 15.7709 16.0666 16.0114 16.0666C16.217 16.0666 16.3009 15.9808 16.3542 15.7161C16.4023 15.4771 16.5061 15.354 16.6803 15.3293C16.8596 15.3039 16.9881 15.1433 17.1103 14.7919C17.2945 14.2622 17.23 14.0388 16.9578 14.2635C16.8679 14.3376 16.7589 14.3632 16.7155 14.3201C16.6722 14.277 16.6368 14.381 16.6368 14.5512C16.6368 14.8003 16.5726 14.868 16.3076 14.8984C16.1265 14.9191 15.9718 15.003 15.9635 15.0848C15.9553 15.1666 15.9419 15.3096 15.9336 15.4026C15.9253 15.4956 15.7571 15.607 15.5596 15.6501C15.2151 15.7253 15.2005 15.7544 15.2005 16.3657C15.2005 16.9724 15.1847 17.0047 14.8714 17.0406L14.5422 17.0782L14.5097 19.2986L14.4772 21.5189L14.8388 21.6781C15.0377 21.7656 15.2005 21.9206 15.2005 22.0224C15.2005 22.2705 15.4383 22.4933 15.7032 22.4933C15.8217 22.4933 15.9186 22.5774 15.9186 22.6802C15.9186 22.9207 16.2068 23.2073 16.4487 23.2073C16.5522 23.2073 16.6368 23.2952 16.6368 23.4025C16.6368 23.7678 17.0205 23.9137 17.9918 23.9176C18.9555 23.9215 19.2699 23.7927 19.2699 23.3943C19.2699 23.2915 19.3546 23.2073 19.458 23.2073C19.6884 23.2073 19.9881 22.9246 19.9881 22.7074C19.9881 22.6 20.1457 22.5474 20.4668 22.5474C20.8453 22.5474 20.9456 22.5916 20.9456 22.7583C20.9456 22.8743 21.0027 22.9693 21.0723 22.9693C21.142 22.9693 21.17 23.0162 21.1343 23.0734C21.054 23.2026 21.9341 23.3528 22.1929 23.254C22.3277 23.2024 22.3818 23.2528 22.3818 23.4295C22.3818 23.5841 22.5161 23.7463 22.7392 23.8611C22.9358 23.9621 23.13 24.1776 23.1711 24.3401C23.2175 24.5243 23.3307 24.6355 23.472 24.6355C23.7232 24.6355 23.7291 24.6788 23.7214 26.4504C23.7179 27.2435 23.755 27.4918 23.8771 27.4918C23.9653 27.4918 24.109 27.3311 24.1963 27.1347C24.2838 26.9383 24.4269 26.7777 24.5142 26.7777C24.7189 26.7777 25.015 26.4832 25.015 26.2797C25.015 26.1929 25.1766 26.0506 25.3741 25.9636C25.7027 25.819 25.7331 25.7562 25.7331 25.2205C25.7331 24.768 25.7757 24.6355 25.9212 24.6355C26.1631 24.6355 26.4513 24.3489 26.4513 24.1084C26.4513 23.9657 26.5808 23.9214 26.9984 23.9214C27.5455 23.9214 27.8875 23.73 27.8875 23.424C27.8875 23.2991 28.3287 23.2698 30.0419 23.2812C32.0385 23.2947 32.1963 23.28 32.1963 23.0825C32.1963 22.9423 32.0733 22.8423 31.8373 22.7908C31.608 22.7407 31.4782 22.6383 31.4782 22.5077C31.4782 22.2419 31.2478 22.0172 30.9755 22.0172C30.8063 22.0172 30.7601 21.9213 30.7601 21.5702C30.7601 21.188 30.8121 21.1003 31.1191 20.9651C31.3379 20.8689 31.4782 20.7181 31.4782 20.5791C31.4782 20.4511 31.5608 20.351 31.6662 20.351C31.8957 20.351 32.1963 20.0686 32.1963 19.8531C32.1963 19.7662 32.3579 19.624 32.5554 19.537C32.7742 19.4407 32.9145 19.2899 32.9145 19.1509C32.9145 19.023 32.9971 18.9229 33.1025 18.9229C33.3376 18.9229 33.6326 18.6387 33.6326 18.4123C33.6326 18.2967 33.7248 18.2593 33.9193 18.2963C34.077 18.3263 34.4002 18.2592 34.6374 18.1473C35.0086 17.9721 35.0689 17.8869 35.0689 17.5377C35.0689 17.1844 35.0236 17.1227 34.7195 17.0623C34.4797 17.0145 34.3473 16.902 34.297 16.7031C34.2098 16.3571 33.8902 16.2034 33.742 16.436C33.6696 16.5499 33.6357 16.4647 33.6344 16.1653C33.6329 15.7845 33.5898 15.7191 33.2982 15.6554C33.0722 15.6062 32.9205 15.4681 32.8299 15.2295C32.7403 14.9935 32.6131 14.8765 32.4461 14.8765C32.2372 14.8765 32.1963 14.8033 32.1963 14.4295C32.1963 14.0473 32.2484 13.9596 32.5554 13.8244C32.8841 13.6798 32.9145 13.617 32.9145 13.0813C32.9145 12.6288 32.9571 12.4963 33.1025 12.4963C33.3444 12.4963 33.6326 12.2097 33.6326 11.9691C33.6326 11.8643 33.7333 11.7822 33.8619 11.7822C34.0017 11.7822 34.1534 11.6427 34.2502 11.4251C34.3377 11.2288 34.4807 11.0681 34.5681 11.0681C34.8313 11.0681 35.0688 10.7488 35.0707 10.3922C35.072 10.1586 35.1038 10.1057 35.1754 10.218C35.3534 10.4972 35.7332 10.2738 35.7639 9.87192C35.7937 9.48382 35.5646 9.16392 35.2569 9.16392C35.1515 9.16392 35.0689 9.06383 35.0689 8.93589C35.0689 8.79688 34.9286 8.6461 34.7098 8.54982L34.3507 8.39177V7.23069C34.3507 6.25455 34.3807 6.06961 34.5388 6.06961C34.9373 6.06961 35.0813 5.74947 35.0445 4.94578C35.0203 4.4176 34.9674 4.20005 34.8774 4.25848ZM14.4814 9.70292C14.398 9.99926 14.3666 10.2786 14.4118 10.3235C14.5396 10.4506 14.8973 10.1769 14.936 9.92262C14.9648 9.73232 15.0499 9.70161 15.4447 9.73898C15.7054 9.76374 15.9186 9.83574 15.9186 9.89894C15.9186 10.078 16.2401 10.354 16.4487 10.354C16.6015 10.354 16.6368 10.5078 16.6368 11.1722C16.6368 11.9866 16.6351 11.9908 16.2767 12.0621C16.0788 12.1014 15.9235 12.175 15.9319 12.2257C15.987 12.5616 15.8808 12.7237 15.5596 12.7938C15.2812 12.8546 15.2005 12.937 15.2005 13.1602C15.2005 13.3848 15.1373 13.4483 14.9141 13.4483C14.5749 13.4483 14.4824 13.6416 14.4824 14.3507C14.4824 14.7777 14.4419 14.8765 14.2669 14.8765C13.9963 14.8765 13.7642 15.1008 13.7642 15.3624C13.7642 15.5393 13.3828 15.7579 13.1359 15.7224C13.0866 15.7154 13.0461 15.8317 13.0461 15.981C13.0461 16.1734 12.9414 16.2918 12.687 16.3872C12.4523 16.4753 12.328 16.6048 12.328 16.7609C12.328 16.9296 12.2224 17.0229 11.9689 17.0782L11.6098 17.1566L11.6137 18.9025C11.6176 20.7091 11.7028 21.0651 12.1317 21.0651C12.2964 21.0651 12.328 21.2104 12.328 21.9661C12.328 22.8928 12.4623 23.2073 12.8581 23.2073C13.0125 23.2073 13.0461 23.3686 13.0461 24.1084C13.0461 25.035 13.1804 25.3495 13.5762 25.3495C13.7197 25.3495 13.7642 25.4783 13.7642 25.8935C13.7642 26.5837 13.9837 26.8114 14.663 26.826C15.1302 26.8361 15.1891 26.8702 15.2484 27.1645C15.2994 27.4178 15.3826 27.4918 15.6164 27.4918C15.8237 27.4918 15.9192 27.5571 15.9204 27.7C15.925 28.2151 16.0552 28.2507 18.0345 28.2774C20.0362 28.3045 20.7062 28.1712 20.7062 27.746C20.7063 27.5835 20.8545 27.5505 21.6022 27.5466C22.3487 27.5427 22.5276 27.5031 22.6756 27.3086C22.7731 27.1802 22.8547 27.0408 22.8568 26.9988C22.8608 26.9178 20.5574 26.986 19.8983 27.0863C19.5798 27.1347 19.5093 27.1991 19.5093 27.4412V27.7369L17.9833 27.7036C16.4954 27.6711 16.4563 27.6635 16.4183 27.3977C16.3909 27.2053 16.2765 27.1047 16.0294 27.0556C15.8096 27.0119 15.6793 26.9118 15.6793 26.7866C15.6793 26.5259 15.4468 26.3016 15.1766 26.3016C15.0284 26.3016 14.9611 26.2117 14.9611 26.0135C14.9611 25.7902 14.8805 25.7079 14.6021 25.6471C14.3727 25.597 14.243 25.4946 14.243 25.3639C14.243 25.1057 14.0147 24.8735 13.7608 24.8735C13.604 24.8735 13.5717 24.7633 13.5956 24.3082C13.612 23.9972 13.5963 23.5448 13.5609 23.3029C13.5082 22.9438 13.4364 22.8499 13.1705 22.7919C12.8608 22.7241 12.8463 22.69 12.8791 22.1011C12.9278 21.2276 12.7465 20.6144 12.4254 20.5673C12.1791 20.5311 12.1683 20.4689 12.1586 19.0122C12.1487 17.5313 12.1547 17.4948 12.4083 17.4948C12.5995 17.4948 12.6888 17.4007 12.7469 17.1377C12.7973 16.9097 12.9002 16.7807 13.0316 16.7807C13.2989 16.7807 13.5249 16.5516 13.5249 16.2808C13.5249 16.1491 13.6132 16.0666 13.7542 16.0666C13.894 16.0666 14.0456 15.9271 14.1425 15.7096C14.2299 15.5132 14.373 15.3525 14.4603 15.3525C14.7701 15.3525 14.9985 14.9774 15.0097 14.45C15.0185 14.0434 15.0661 13.9244 15.2204 13.9244C15.3301 13.9244 15.4913 13.7637 15.5787 13.5674C15.6884 13.3212 15.8225 13.2103 16.0107 13.2103C16.2182 13.2103 16.3009 13.1248 16.3555 12.8533C16.4054 12.6049 16.4975 12.4963 16.6578 12.4963C17.1129 12.4963 17.395 11.1065 17.0888 10.3724C17.0164 10.1986 16.9659 10.0163 16.9766 9.96725C16.9871 9.91822 16.8612 9.87799 16.6966 9.87799C16.4882 9.87799 16.3974 9.81289 16.3974 9.66377C16.3974 9.29126 16.136 9.16392 15.3717 9.16392H14.6332L14.4814 9.70292ZM32.9145 10.5705C32.9145 10.8639 32.5606 11.0822 32.0482 11.1049C31.6275 11.1237 31.5102 11.183 31.3791 11.4434C31.1948 11.8094 30.4953 12.0081 30.2124 11.7747C30.0929 11.6761 30.0419 11.6735 30.0419 11.766C30.0419 11.8523 29.7941 11.8839 29.3238 11.8574C28.7629 11.8259 28.6057 11.8541 28.6057 11.9866C28.6057 12.2914 28.2592 12.5099 27.7394 12.533C27.3665 12.5497 27.1963 12.6192 27.1072 12.7914C26.9145 13.1636 26.4525 13.3255 25.7032 13.2836C25.11 13.2504 25.015 13.2742 25.015 13.4557C25.015 13.5726 24.8641 13.7329 24.6762 13.8155C24.4898 13.8976 24.2723 14.1106 24.193 14.2892C24.0466 14.618 23.4513 14.8384 23.086 14.699C22.9827 14.6597 22.8601 14.7708 22.7607 14.9942C22.6634 15.2128 22.5117 15.3525 22.3718 15.3525C22.2456 15.3525 22.1425 15.4061 22.1425 15.4715C22.1425 15.537 22.2308 15.5906 22.3388 15.5906C22.6462 15.5906 22.8526 15.9605 22.8568 16.5189L22.8606 17.0305L28.3663 17.0116C31.4904 17.0007 33.872 16.9467 33.872 16.8866C33.872 16.8284 33.7341 16.7807 33.5657 16.7807C33.392 16.7807 33.2914 16.7291 33.3334 16.6617C33.3741 16.5962 33.3251 16.5427 33.2245 16.5427C33.1163 16.5427 33.0682 16.4741 33.1065 16.3747C33.1467 16.2707 33.0429 16.1459 32.8334 16.0464C32.6402 15.9546 32.4792 15.7717 32.4573 15.6192C32.4302 15.4304 32.3378 15.3525 32.1409 15.3525C31.6982 15.3525 31.4802 14.5801 31.7195 13.8589C31.823 13.5471 31.9229 13.4483 32.1346 13.4483C32.3408 13.4483 32.3993 13.3942 32.3595 13.2401C32.3298 13.1255 32.3504 12.8195 32.4051 12.56C32.4782 12.2128 32.5754 12.0715 32.7735 12.0245C32.9214 11.9894 33.1093 11.8268 33.191 11.6632C33.2726 11.4995 33.4531 11.3493 33.592 11.3293C33.763 11.3048 33.8674 11.1797 33.9152 10.9426C33.9653 10.693 34.0555 10.5921 34.2281 10.5921C34.3614 10.5921 34.4703 10.5518 34.4702 10.5028C34.4701 10.4538 34.12 10.4134 33.6922 10.4132C33.1263 10.4129 32.9145 10.4558 32.9145 10.5705ZM12.4716 13.5912C12.3926 13.6697 12.328 13.8304 12.328 13.9482C12.328 14.1068 12.2348 14.1624 11.9689 14.1624C11.6685 14.1624 11.6098 14.2097 11.6098 14.4515C11.6098 14.7571 11.6174 14.7581 13.117 14.6556C13.2977 14.6432 13.4058 14.5106 13.5059 14.1784C13.5822 13.9253 13.6445 13.6576 13.6445 13.5833C13.6445 13.4013 12.6559 13.4079 12.4716 13.5912ZM10.4129 15.7166C10.4129 15.7859 10.3591 15.8095 10.2933 15.7691C10.2254 15.7273 10.1736 15.8274 10.1736 16.0001C10.1736 16.2592 10.1199 16.3046 9.8145 16.3046C9.51133 16.3046 9.45543 16.3509 9.45543 16.6022C9.45543 16.8942 9.46956 16.8987 10.2426 16.8503C11.018 16.8019 11.3559 16.6147 11.3666 16.2276C11.3688 16.1499 11.5381 16.0986 11.7594 16.1086C12.0782 16.1229 12.1554 16.0778 12.1867 15.8583C12.2235 15.6009 12.19 15.5906 11.319 15.5906C10.7611 15.5906 10.4129 15.639 10.4129 15.7166ZM30.0752 17.4479C30.1325 17.543 29.143 17.576 26.5075 17.5669C24.5017 17.56 22.8606 17.5814 22.8606 17.6145C22.8606 17.6476 23.0222 17.7457 23.2197 17.8327C23.4385 17.929 23.5787 18.0798 23.5787 18.2188C23.5787 18.3675 23.662 18.4468 23.8181 18.4468C23.9498 18.4468 24.0575 18.5036 24.0575 18.5729C24.0575 18.6421 24.1114 18.6658 24.1772 18.6254C24.245 18.5836 24.2969 18.6837 24.2969 18.8564C24.2969 19.1408 24.3348 19.1609 24.8714 19.1609C25.4787 19.1609 25.7331 19.3085 25.7331 19.6608C25.7331 19.8457 25.8435 19.8752 26.541 19.8767C27.6416 19.8788 27.8875 19.9572 27.8875 20.3055C27.8875 20.5615 27.939 20.5891 28.4163 20.5891C29.1251 20.5891 29.3238 20.6809 29.3238 21.0089C29.3238 21.218 29.4101 21.303 29.6829 21.3626C29.9613 21.4235 30.0419 21.5058 30.0419 21.7291C30.0419 21.8876 30.0884 22.0172 30.145 22.0172C30.2017 22.0172 30.2232 21.8874 30.1926 21.7286C30.1621 21.5698 30.2006 21.2485 30.2783 21.0145C30.3887 20.6824 30.4831 20.5891 30.7096 20.5891C30.8848 20.5891 30.9995 20.5199 30.9995 20.4141C30.9995 20.3178 31.157 20.1234 31.3495 19.9817C31.5421 19.8402 31.7306 19.6014 31.7686 19.451C31.8105 19.2854 31.9439 19.1625 32.1068 19.1394C32.2756 19.1156 32.3896 19.0057 32.4126 18.8448C32.4346 18.6917 32.5631 18.5599 32.7316 18.5178C32.8903 18.4783 33.0835 18.2908 33.1729 18.09C33.2866 17.8349 33.4148 17.7328 33.622 17.7328C33.7814 17.7328 33.8765 17.6977 33.8335 17.6547C33.7902 17.6119 32.9868 17.5801 32.048 17.5841C30.9246 17.589 30.2822 17.5445 30.1686 17.4539C30.0537 17.3623 30.0226 17.3603 30.0752 17.4479ZM9.66489 18.5288C9.53802 18.5618 9.45543 18.6971 9.45543 18.8721C9.45543 19.0708 9.38829 19.1609 9.23999 19.1609C8.96423 19.1609 8.7373 19.3866 8.7373 19.6608C8.7373 19.8194 8.64418 19.875 8.37823 19.875C8.07482 19.875 8.01916 19.9212 8.01916 20.1732C8.01916 20.4691 8.02623 20.471 8.87733 20.4154C9.74041 20.359 9.92868 20.2573 9.93239 19.8452C9.93347 19.7215 10.0254 19.637 10.159 19.637C10.4594 19.637 10.6138 19.4302 10.7148 18.8931L10.7987 18.4468L10.3365 18.4607C10.0824 18.4683 9.78015 18.499 9.66489 18.5288ZM23.6273 19.4485C23.6161 19.9764 23.3877 20.351 23.0771 20.351C22.9893 20.351 22.8642 20.4715 22.7992 20.6188C22.7342 20.7662 22.5599 20.9394 22.4118 21.0041C22.2636 21.0687 22.1425 21.193 22.1425 21.2804C22.1425 21.4966 21.8423 21.7792 21.6124 21.7792C21.4728 21.7792 21.4243 21.9018 21.4243 22.2552V22.7313H22.0228C22.3641 22.7313 22.6212 22.7854 22.6212 22.8573C22.6212 22.9266 22.6751 22.9503 22.7409 22.9098C22.8082 22.8685 22.8606 22.9631 22.8606 23.1259C22.8606 23.3525 22.9388 23.4312 23.2197 23.487C23.5049 23.5438 23.5787 23.6202 23.5787 23.8589C23.5787 24.0312 23.6473 24.1594 23.7397 24.1594C24.0995 24.1594 24.291 24.5808 24.324 25.4449C24.342 25.9158 24.3972 26.3013 24.4465 26.3014C24.4958 26.3015 24.5362 26.172 24.5362 26.0135C24.5362 25.7894 24.617 25.7079 24.9 25.646C25.1862 25.5835 25.2486 25.5191 25.1929 25.3443C25.0916 25.027 25.2541 24.2784 25.4243 24.2784C25.6635 24.2784 25.9838 23.9886 26.02 23.7397C26.048 23.5464 26.1632 23.4985 26.6708 23.4689C27.2655 23.4343 27.5382 23.2474 27.4867 22.9098C27.4674 22.7832 29.7106 22.5931 30.0719 22.6907C30.1871 22.7219 30.2813 22.6901 30.2813 22.6202C30.2813 22.5504 30.1454 22.4933 29.9791 22.4933C29.739 22.4933 29.6622 22.4198 29.6051 22.1362C29.5519 21.872 29.4662 21.7792 29.2752 21.7792C29.0968 21.7792 28.9742 21.6658 28.8776 21.4113C28.7962 21.1969 28.6835 21.0768 28.6076 21.1234C28.5359 21.1676 28.266 21.1681 28.0078 21.1247C27.6745 21.0687 27.5128 20.9711 27.45 20.7877C27.4012 20.6457 27.3675 20.5028 27.375 20.47C27.3826 20.4373 26.9951 20.4085 26.514 20.406C25.5913 20.4013 25.2544 20.2561 25.2544 19.8634C25.2544 19.6864 25.1894 19.6558 24.9252 19.7081C24.4631 19.7997 23.9542 19.5763 23.819 19.2226C23.7559 19.0577 23.6896 18.9229 23.6715 18.9229C23.6534 18.9229 23.6336 19.1594 23.6273 19.4485ZM9.66489 21.3851C9.53802 21.4181 9.45543 21.5534 9.45543 21.7284C9.45543 21.9116 9.38661 22.0172 9.2674 22.0172C9.02551 22.0172 8.7373 22.3038 8.7373 22.5443C8.7373 22.6727 8.62491 22.7313 8.37823 22.7313H8.01916V23.5133C8.01916 24.4474 8.16064 24.6355 8.86345 24.6355C9.35765 24.6355 9.36447 24.6298 9.29385 24.2784C9.22479 23.9352 9.32102 23.8499 9.71588 23.9044C9.7604 23.9104 9.83281 23.7524 9.87686 23.5531C9.93323 23.2979 10.0096 23.2107 10.1345 23.2584C10.2323 23.2956 10.5232 23.2925 10.781 23.2516C11.2013 23.1847 11.2625 23.13 11.3733 22.7206C11.4988 22.2576 11.4339 21.7224 11.2196 21.4519C11.1061 21.3085 10.1223 21.2662 9.66489 21.3851ZM11.1012 24.2414C10.9723 24.275 10.8917 24.4101 10.8917 24.5927C10.8917 24.8329 10.8472 24.8755 10.6582 24.8159C10.5298 24.7753 10.2066 24.8005 9.94005 24.8719L9.45543 25.0017V25.9507V26.8997L10.2035 26.8429C11.1375 26.772 11.239 26.7547 11.2311 26.6685C11.2044 26.3738 11.4335 26.0636 11.6781 26.0636C11.8988 26.0636 11.9835 25.9707 12.0803 25.6218C12.375 24.5605 11.9858 24.0116 11.1012 24.2414ZM31.8269 24.4078C31.701 24.533 31.5979 24.6922 31.5979 24.7615C31.5979 24.8308 31.542 24.8533 31.4738 24.8112C31.4056 24.7694 31.146 24.7692 30.8969 24.8111C30.5109 24.876 30.4205 24.9519 30.2836 25.3266C30.1954 25.5683 30.1003 25.6992 30.0726 25.6173C30.0042 25.4164 28.1706 25.4201 27.7679 25.6221C27.6033 25.7045 27.4522 25.8851 27.4321 26.0233C27.4075 26.1932 27.2817 26.2971 27.0431 26.3446C26.7646 26.3999 26.6906 26.4778 26.6906 26.7152C26.6906 26.9829 26.6416 27.0158 26.2418 27.0174C25.5615 27.0198 25.2544 27.1346 25.2544 27.3865C25.2544 27.5883 25.333 27.6058 26.0416 27.5614C26.8246 27.5125 27.1554 27.3255 27.1656 26.9264C27.1677 26.8447 27.254 26.7777 27.3574 26.7777C27.5866 26.7777 27.8875 26.4954 27.8875 26.2803C27.8875 26.1602 28.1797 26.1228 29.1243 26.1218C30.4112 26.1204 30.7601 25.9957 30.7601 25.5365C30.7601 25.3964 30.8878 25.3486 31.2688 25.3457C31.8269 25.3416 32.1963 25.1352 32.1963 24.8276C32.1963 24.6497 32.3893 24.6327 34.0814 24.6622C35.8068 24.6922 35.9636 24.7128 35.931 24.9051C35.9103 25.027 35.9606 25.102 36.0507 25.0837C36.136 25.0663 36.1925 25.119 36.176 25.2008C36.1553 25.3035 36.3267 25.3495 36.73 25.3495C37.266 25.3495 37.3261 25.3788 37.4627 25.7066C37.562 25.9452 37.6959 26.0636 37.8661 26.0636C38.1193 26.0636 38.1209 26.083 38.1209 29.0389C38.1209 32.005 38.1201 32.0142 37.8634 32.0142C37.6854 32.0142 37.5675 32.1233 37.482 32.3671C37.4028 32.5932 37.2482 32.7474 37.0514 32.7965C36.829 32.852 36.7445 32.9514 36.7445 33.1577C36.7445 33.382 36.6811 33.4423 36.4453 33.4423C36.2591 33.4423 36.1461 33.5098 36.1461 33.6209C36.1461 33.7191 36.089 33.7994 36.0193 33.7994C35.9497 33.7994 35.9259 33.8529 35.9665 33.9184C36.0106 33.9892 35.868 34.0374 35.6145 34.0374C35.3803 34.0374 35.1886 34.0893 35.1886 34.1527C35.1886 34.216 35.1178 34.2409 35.0314 34.208C34.8767 34.1489 34.4956 34.473 34.4789 34.6778C34.4743 34.7354 33.6356 34.789 32.6153 34.7968C30.8082 34.8106 30.7601 34.8046 30.7601 34.562C30.7601 34.2608 30.1108 34.0312 29.3099 34.0493C28.526 34.067 28.2038 34.19 28.1303 34.4994C28.0753 34.7305 27.9737 34.7814 27.4912 34.8192C26.7848 34.8745 26.6906 34.9293 26.6906 35.2847C26.6906 35.4979 26.6071 35.584 26.3437 35.6415C26.071 35.701 25.9817 35.7988 25.9275 36.0971C25.8097 36.7459 25.8568 38.7942 25.9973 39.1316C26.0708 39.3081 26.1221 39.4926 26.1115 39.5417C26.1009 39.5909 26.2193 39.631 26.3747 39.631C26.6308 39.631 26.6538 39.676 26.6224 40.1153C26.587 40.609 26.8622 41.0592 27.1993 41.059C27.3059 41.059 27.3442 41.2901 27.3322 41.8623C27.3165 42.6136 27.2952 42.673 27.003 42.778C26.7962 42.8523 26.6906 42.9781 26.6906 43.1499C26.6906 43.3432 26.5988 43.4278 26.3316 43.481C26.0745 43.5322 25.9725 43.6208 25.9725 43.7934C25.9725 43.981 25.8941 44.0344 25.6191 44.0344C25.1886 44.0344 24.6915 44.2468 24.6064 44.467C24.5574 44.594 24.7145 44.6295 25.3266 44.6295C26.112 44.6295 26.4513 44.4793 26.4513 44.1315C26.4513 44.0446 26.6129 43.9024 26.8103 43.8154C27.0291 43.7191 27.1694 43.5684 27.1694 43.4294C27.1694 43.3014 27.252 43.2013 27.3574 43.2013C27.7728 43.2013 27.8875 42.8932 27.8875 41.7787V40.6961L27.5285 40.6247C27.1827 40.5559 27.1694 40.5295 27.1694 39.9106C27.1694 39.2918 27.1561 39.2654 26.8103 39.1966L26.4513 39.1252V37.5929C26.4513 36.1622 26.4665 36.0606 26.6806 36.0606C26.8204 36.0606 26.972 35.9211 27.0689 35.7036C27.2102 35.3862 27.2854 35.3465 27.7458 35.3465C28.2811 35.3465 28.6057 35.1476 28.6057 34.8194C28.6057 34.6689 28.7554 34.6325 29.3756 34.6325C30.0404 34.6325 30.1559 34.665 30.2215 34.8705C30.2632 35.0014 30.3509 35.1085 30.4161 35.1085C30.4814 35.1085 30.5015 35.1621 30.4609 35.2275C30.4126 35.3052 31.1269 35.3452 32.5184 35.3427C34.7269 35.3388 35.0689 35.2698 35.0689 34.8276C35.0689 34.6752 35.1887 34.6325 35.616 34.6325C36.1808 34.6325 36.5051 34.4403 36.5051 34.1054C36.5051 34.0025 36.5935 33.9184 36.7014 33.9184C36.9326 33.9184 37.2141 33.5849 37.2195 33.3048C37.2221 33.1711 37.2957 33.1265 37.4482 33.1661C37.6107 33.2084 37.7158 33.1285 37.8275 32.8775C37.9125 32.6866 38.1344 32.4635 38.3207 32.3814L38.6596 32.2322V29.08C38.6596 25.7824 38.63 25.5876 38.1294 25.5876C38.0253 25.5876 37.9414 25.4879 37.9414 25.3641C37.9414 25.0253 37.6392 24.845 37.044 24.8287C36.5794 24.816 36.5065 24.7795 36.5059 24.5589C36.5055 24.4186 36.4148 24.2694 36.3044 24.2273C36.194 24.1851 35.1929 24.1573 34.0798 24.1654C32.2575 24.1786 32.0331 24.2027 31.8269 24.4078ZM12.0919 26.3123C11.6966 26.4729 11.6138 26.6274 11.6116 27.2091C11.61 27.6588 11.5797 27.706 11.2508 27.7714C10.9446 27.8324 10.8917 27.8971 10.8917 28.2113C10.8917 28.6942 11.1355 28.9195 11.694 28.9525C12.1356 28.9787 12.148 28.9685 12.1308 28.5926C12.1185 28.3238 12.1667 28.2058 12.2889 28.2058C12.5153 28.2058 12.8067 27.916 12.8067 27.691C12.8067 27.5695 12.9253 27.5215 13.1957 27.5338C13.5843 27.5513 13.5847 27.5508 13.5493 27.0162C13.5299 26.722 13.476 26.4462 13.4296 26.4036C13.2666 26.2538 12.3845 26.1936 12.0919 26.3123ZM13.2556 28.5198C13.1344 28.5548 13.0461 28.6958 13.0461 28.8542C13.0461 29.0634 12.9612 29.1451 12.687 29.1996C12.3515 29.2663 12.328 29.3063 12.328 29.8095C12.328 30.3179 12.3464 30.348 12.6578 30.348C12.9092 30.348 13.0255 30.433 13.1466 30.7051C13.2618 30.9637 13.3876 31.0621 13.6033 31.0621C13.9408 31.0621 14.243 30.8131 14.243 30.535C14.243 30.4322 14.3276 30.348 14.431 30.348C14.8109 30.348 15.0132 29.9833 15.0035 29.3158C14.9983 28.9633 14.9586 28.6397 14.9153 28.5967C14.8159 28.4979 13.5362 28.4386 13.2556 28.5198ZM21.0952 28.5226C21.013 28.5557 20.9456 28.7095 20.9456 28.8643C20.9456 29.1238 20.8912 29.1489 20.2574 29.1817L19.5692 29.2174L19.5342 30.1398L19.4993 31.0621H20.2908C21.1046 31.0621 21.4243 30.9135 21.4243 30.535C21.4243 30.4322 21.509 30.348 21.6124 30.348C21.9923 30.348 22.1425 30.03 22.1425 29.2259V28.4438L21.6936 28.4532C21.4468 28.4584 21.1775 28.4897 21.0952 28.5226ZM24.0397 28.5236C23.8212 28.5813 23.6436 29.2747 23.7566 29.6287C23.8124 29.8036 23.7499 29.8679 23.4637 29.9304C23.2637 29.9742 23.1 30.0793 23.1 30.164C23.1 30.2489 23.0663 30.4856 23.0252 30.6902C22.9508 31.0595 22.954 31.0621 23.4526 31.0621C23.9724 31.0621 24.2969 30.8596 24.2969 30.535C24.2969 30.4322 24.3815 30.348 24.4849 30.348C24.7268 30.348 25.015 30.0615 25.015 29.8209C25.015 29.7181 25.0996 29.634 25.203 29.634C25.6488 29.634 25.9155 28.9109 25.5895 28.5867C25.4535 28.4515 24.4653 28.4112 24.0397 28.5236ZM16.7804 29.3007C16.7014 29.3793 16.6368 29.5399 16.6368 29.6578C16.6368 29.7926 16.5481 29.872 16.3974 29.872C16.2657 29.872 16.158 29.9288 16.158 29.998C16.158 30.0673 16.1155 30.098 16.0637 30.0661C15.9196 29.9776 15.9036 30.5737 16.0431 30.833C16.1397 31.0125 16.2967 31.0621 16.7685 31.0621C17.4817 31.0621 17.8337 30.9033 17.8337 30.5819C17.8337 30.4446 17.9146 30.348 18.03 30.348C18.4458 30.348 18.7141 29.6049 18.4082 29.3007C18.3292 29.2222 17.9629 29.1579 17.5943 29.1579C17.2256 29.1579 16.8594 29.2222 16.7804 29.3007ZM16.6368 32.2727C16.6368 32.5583 16.5883 32.6093 16.3161 32.6093C15.7173 32.6093 15.2005 32.8694 15.2005 33.171C15.2005 33.3965 15.1513 33.4353 14.9312 33.3836C14.489 33.2795 13.9571 33.4901 13.7879 33.8362C13.7022 34.0115 13.5003 34.1878 13.3391 34.2281C13.1335 34.2795 13.0461 34.3836 13.0461 34.5776C13.0461 34.7731 12.9677 34.865 12.7779 34.8919C12.6268 34.9135 12.4413 35.0726 12.3529 35.2566C12.2666 35.4362 12.0641 35.616 11.9028 35.6562C11.6477 35.72 11.6098 35.7968 11.6098 36.252C11.6098 36.7534 11.6244 36.7747 11.9689 36.7747C12.2156 36.7747 12.328 36.8332 12.328 36.9617C12.328 37.2356 12.6285 37.4888 12.9538 37.4888C13.2917 37.4888 13.5249 37.2846 13.5249 36.9889C13.5249 36.8572 13.6132 36.7747 13.7542 36.7747C13.894 36.7747 14.0456 36.6352 14.1425 36.4176L14.3014 36.0606H15.4691C16.4715 36.0606 16.6368 36.0882 16.6368 36.2558C16.6368 36.6528 17.0115 36.7671 18.3124 36.7671C19.8081 36.7671 19.9893 36.6779 20.024 35.9241C20.0441 35.4896 20.1009 35.3796 20.3771 35.2424C20.5605 35.1511 20.7062 34.9801 20.7062 34.8556C20.7062 34.7282 20.7903 34.6325 20.9025 34.6325C21.2089 34.6325 21.4163 34.2632 21.4205 33.7101C21.4234 33.3313 21.4715 33.2043 21.6124 33.2043C21.9322 33.2043 22.1425 32.8853 22.1425 32.4003V31.9361H19.3896H16.6368V32.2727ZM30.1953 36.3348C30.2713 36.7209 30.4752 36.7539 32.8798 36.7681C34.6533 36.7788 35.3638 36.7422 35.5428 36.631C36.1485 36.255 35.8355 36.2026 32.978 36.2022C30.9723 36.2019 30.1766 36.2398 30.1953 36.3348Z" fill="white"/>
</g>
</svg>
